<?xml version="1.0" encoding="UTF-8"?>
<svg id="Layer_2" data-name="Layer 2" xmlns="http://www.w3.org/2000/svg" viewBox="0 0 64.08 64.38">
  <defs>
    <style>
      .cls-1, .cls-2 {
        fill: #fff;
      }

      .cls-2 {
        stroke: #000;
        stroke-miterlimit: 10;
        stroke-width: .6px;
      }
    </style>
  </defs>
  <g id="Layer_1-2" data-name="Layer 1">
    <g>
      <rect width="64.08" height="54.62" rx="6.04" ry="6.04"/>
      <path class="cls-1" d="M31.78,49.99c1.61,0,3.09-.21,4.46-.63,1.37-.42,2.55-.98,3.55-1.68,1-.7,1.77-1.51,2.32-2.43.55-.92.82-1.86.82-2.83,0-1.57-.46-2.94-1.38-4.11-.92-1.17-2.13-2.21-3.64-3.13-1.51-.92-3.22-1.76-5.14-2.53-1.92-.77-3.88-1.56-5.87-2.38-2-.82-3.95-1.69-5.87-2.61-1.92-.92-3.63-2-5.14-3.23-1.51-1.24-2.72-2.67-3.64-4.29-.92-1.62-1.38-3.52-1.38-5.69,0-2.04.51-3.94,1.53-5.69,1.02-1.75,2.44-3.27,4.26-4.54,1.82-1.27,3.98-2.26,6.49-2.98,2.51-.72,5.25-1.08,8.22-1.08,2,0,3.85.12,5.58.35,1.72.23,3.42.69,5.08,1.35,1.66.67,3.32,1.63,4.96,2.88,1.64,1.25,3.39,2.88,5.23,4.89l-4.4,3.36c-2.27-3.18-4.81-5.54-7.6-7.09-2.8-1.55-5.78-2.33-8.95-2.33-1.72,0-3.29.18-4.7.53-1.41.35-2.61.84-3.61,1.45-1,.62-1.78,1.35-2.35,2.18-.57.84-.85,1.72-.85,2.66,0,1.54.5,2.88,1.5,4.01,1,1.14,2.32,2.16,3.96,3.08,1.64.92,3.51,1.76,5.61,2.53,2.09.77,4.23,1.55,6.4,2.36,2.17.8,4.31,1.67,6.4,2.61,2.09.94,3.96,2.01,5.61,3.23,1.64,1.22,2.97,2.63,3.96,4.24,1,1.6,1.5,3.48,1.5,5.62s-.47,4.2-1.41,6.09c-.94,1.89-2.36,3.53-4.26,4.91-1.9,1.39-4.28,2.48-7.13,3.28-2.86.8-6.22,1.2-10.1,1.2-1.76,0-3.57-.12-5.43-.35-1.86-.23-3.73-.69-5.61-1.38-1.88-.68-3.76-1.65-5.64-2.88-1.88-1.24-3.72-2.86-5.52-4.86l4.87-3.76c1.45,1.74,2.84,3.22,4.17,4.44,1.33,1.22,2.69,2.22,4.08,3.01,1.39.79,2.82,1.35,4.29,1.7,1.47.35,3.06.53,4.79.53Z"/>
      <path class="cls-2" d="M42.27,64.06c.96-.39,1.93-.77,2.89-1.16.12-.05.16-.16.11-.25-.86-1.43-1.73-2.86-2.59-4.3l3.69-.36c.26-.03.35-.29.15-.42-3.42-2.25-6.85-4.51-10.27-6.76-.16-.1-.39-.01-.38.15.11,3.53.22,7.07.33,10.6,0,.16.25.24.4.13.9-.68,1.8-1.36,2.7-2.03.89,1.44,1.77,2.88,2.66,4.32.06.09.2.13.32.09Z"/>
    </g>
  </g>
</svg>