<?xml version="1.0" encoding="UTF-8"?>
<svg id="Layer_2" data-name="Layer 2" xmlns="http://www.w3.org/2000/svg" viewBox="0 0 193.05 257.41">
  <defs>
    <style>
      .cls-1, .cls-2, .cls-3, .cls-4, .cls-5 {
        fill: none;
      }

      .cls-6 {
        fill: #7db32d;
      }

      .cls-2 {
        stroke-miterlimit: 10;
        stroke-width: 2.14px;
      }

      .cls-2, .cls-3, .cls-4, .cls-5 {
        stroke: #000;
        stroke-linecap: round;
      }

      .cls-7 {
        fill: #71a129;
      }

      .cls-8 {
        fill: #d4d4d4;
      }

      .cls-9 {
        font-size: 12.14px;
      }

      .cls-9, .cls-10, .cls-11 {
        fill: #fffdd0;
      }

      .cls-9, .cls-11 {
        font-family: Roboto-Medium, Roboto;
        font-weight: 500;
      }

      .cls-12 {
        fill: #dedede;
      }

      .cls-10 {
        font-family: Borsok, Borsok;
        font-size: 35.52px;
      }

      .cls-13 {
        fill: #71b4d1;
      }

      .cls-14 {
        fill: #c9c9c9;
      }

      .cls-15 {
        fill: #7ac3e2;
      }

      .cls-16 {
        fill: #fff;
      }

      .cls-3 {
        stroke-width: 1.17px;
      }

      .cls-3, .cls-4, .cls-5 {
        stroke-linejoin: round;
      }

      .cls-4 {
        stroke-width: 1.68px;
      }

      .cls-5 {
        stroke-width: 1.33px;
      }

      .cls-17 {
        fill: #7fad38;
      }

      .cls-18 {
        letter-spacing: -.02em;
      }

      .cls-19 {
        letter-spacing: -.01em;
      }

      .cls-20 {
        fill: #9dc95a;
      }

      .cls-21 {
        letter-spacing: 0em;
      }

      .cls-22 {
        fill: #ededed;
      }

      .cls-23 {
        letter-spacing: 0em;
      }

      .cls-24 {
        letter-spacing: 0em;
      }

      .cls-11 {
        font-size: 10.85px;
      }

      .cls-25 {
        letter-spacing: .01em;
      }

      .cls-26 {
        letter-spacing: .04em;
      }

      .cls-27 {
        letter-spacing: .04em;
      }
    </style>
  </defs>
  <g id="Layer_1-2" data-name="Layer 1">
    <g>
      <g>
        <rect class="cls-20" x="2.01" y="2.01" width="189.03" height="253.38" rx="26.94" ry="26.94"/>
        <path class="cls-17" d="M164.11,4.02c13.74,0,24.92,11.18,24.92,24.92v199.51c0,13.74-11.18,24.92-24.92,24.92H28.95c-13.74,0-24.92-11.18-24.92-24.92V28.95C4.02,15.2,15.2,4.02,28.95,4.02h135.16M164.11,0H28.95C13.03,0,0,13.03,0,28.95v199.51c0,15.92,13.03,28.95,28.95,28.95h135.16c15.92,0,28.95-13.03,28.95-28.95V28.95c0-15.92-13.03-28.95-28.95-28.95h0Z"/>
      </g>
      <text class="cls-10" transform="translate(27.51 108.16) scale(.75 1)"><tspan class="cls-27" x="0" y="0">H</tspan><tspan class="cls-24" x="25.8" y="0">U</tspan><tspan class="cls-25" x="51.6" y="0">S</tspan><tspan class="cls-21" x="74.37" y="0">K</tspan><tspan class="cls-26" x="97.43" y="0">D.</tspan><tspan class="cls-23" x="133.92" y="0">C</tspan><tspan class="cls-26" x="157.35" y="0">O</tspan></text>
      <text class="cls-11" transform="translate(31.58 127.81) scale(1.06 1)"><tspan x="0" y="0">Stripped </tspan><tspan class="cls-19" x="43.61" y="0">t</tspan><tspan x="47.06" y="0">o the Goodness</tspan></text>
      <text class="cls-9" transform="translate(57.43 146.36) scale(.95 1)"><tspan x="0" y="0">P</tspan><tspan class="cls-18" x="7.76" y="0">r</tspan><tspan x="11.81" y="0">oduct Design</tspan></text>
      <g>
        <g>
          <path class="cls-2" d="M167.66,226.23c9.01-1.3,15.35-2.76,19.25-8.22,2.5-3.5-7.5-8.15-14.04-9.9"/>
          <path class="cls-4" d="M110.87,215.28c-2.8-2.86-4.63-5.14-4.37-8.18.32-3.65,5.51-5.71,9.81-4.77"/>
        </g>
        <g>
          <line class="cls-5" x1="111.15" y1="245.1" x2="124.8" y2="236.89"/>
          <line class="cls-5" x1="128.19" y1="256.31" x2="150.5" y2="243.17"/>
          <g>
            <rect x="107.5" y="242.19" width="4.32" height="4.9" rx="1.71" ry="1.71" transform="translate(-6.67 3.1) rotate(-1.57)"/>
            <path d="M109.82,244.79h-.44c-1.03.04-1.83,1.41-1.92-1.74l-.02-.65c-.03-.99.79-1.82,1.82-1.85h.44c1.03-.04,1.89.75,1.92,1.74l.02.65c.08,2.88-.79,1.82-1.82,1.85Z"/>
            <rect x="126.06" y="252.49" width="4.32" height="4.9" rx="1.71" ry="1.71" transform="translate(-6.95 3.62) rotate(-1.57)"/>
            <path d="M128.37,255.09h-.44c-1.03.04-1.83,1.41-1.92-1.74l-.02-.65c-.03-.99.79-1.82,1.82-1.85h.44c1.03-.04,1.89.75,1.92,1.74l.02.65c.08,2.88-.79,1.82-1.82,1.85Z"/>
          </g>
        </g>
        <g>
          <path class="cls-6" d="M115.36,199.36c-6.66,10.66-6.07,21.33-1.61,30.32,8.06,16.24,25.61,16.75,27.7,17,1.26.15,18.96.31,29.55-15.97,1.06-1.63,9.77-15.9,4.44-29.95-6.71-17.71-28.83-15.79-31.46-15.79-5.02.01-20.17.85-28.63,14.39Z"/>
          <path class="cls-7" d="M119.48,231.76c-2.42-1.96-3.99-4.7-5.02-7.59-.97-2.9-1.43-6.05-.69-9.08.67,1.42,1.17,2.8,1.68,4.17,1.34,3.9,3.08,8.46,4.02,12.5h0Z"/>
          <path class="cls-7" d="M153.85,241.46c6.88-6.8,12.71-14.85,17.73-23.09-2.02,9.74-8.68,18.81-17.73,23.09h0Z"/>
          <path class="cls-16" d="M132.06,188.02c-.19.29,2.36-.43,0,0-.79.14.21.02,0,0-2.12-.21-10.13,3.49-11.9,8.12-2.22,5.8,3.14,11.2,5.25,12.28,10.71,5.46,22.25,6.23,27.28,6.04,5.59-.21,14.65-1.24,19.49-5.56.51-.46,4.84-3.21,3.91-8.89-1.3-7.94-15.01-11.47-18.19-12.29-3.09-.8-1.16.09-15.62-1.6,0,0-9.17.26-10.21,1.9Z"/>
          <path class="cls-22" d="M133.25,191.23c-2.39.89-4.76,1.8-6.01,3.9-1.7,2.85-.47,6.45,1.51,8.55.19.2,1.58,1.19,4.35,3.16,2.8,1.99,3.36,2.32,4.14,2.65,1.95.81,3.62.86,6,.97,9.09.42,7.93.76,10.15.62,3.37-.21,10.71-.66,13.12-4.58,2.67-4.34-2.55-9.86-3.12-10.47-3.26-3.45-7.57-4.65-10.35-5.42-1.33-.37-10.55-2.82-19.8.63Z"/>
          <path class="cls-15" d="M138.01,191.45c-2.33.5-5.52,1.23-7.27,3.33-.93,1.12-1.04,2.13-1.22,3.88-.34,3.28.86,6.25,2.43,6.7.17.05.61.15,1.07.43.64.39.71.79,1.06,1.12.69.65,3.28,1.57,3.87,1.61,2.84.19,4.71.95,7.31,1.62,4.71,1.21,14.55-.15,18.63-4.13,2.42-2.36,1.55-4.97.21-7.71-1.76-3.62-6.46-5.03-10.19-6.14-1.63-.49-8.3-2.33-15.91-.69Z"/>
          <path class="cls-1" d="M119.99,192.75c-5.9,3.69-9.61,11.01-7.52,18.04,3.61,12.19,21.9,15.13,34.31,13.92,3.28-.32,19.97-3.01,27.09-14.6.85-1.38,3.63-5.79.18-13.64-4.47-10.19-26.98-11.61-29.95-11.5-6.23.24-15.53,2.43-24.11,7.79Z"/>
          <path class="cls-16" d="M139.76,200.52c-2.38-1.1-2.61-1.16-2.86-1.2-1.93-.34-4.29.37-4.21.6.06.17,1.45-.02,3.7.26,2.91.36,4.75,1.21,4.88,1.12.05-.04-.23-.18-1.51-.77Z"/>
          <path class="cls-13" d="M147.03,197.17c.05.68,1.33,1.26,1.74,1.44,1.28.58,3.29.75,3.8-.74.13-.39.27-1.19-.06-1.76-1-1.73-5.58-.26-5.48,1.07Z"/>
          <g>
            <path class="cls-8" d="M148.57,196.34c.36.03.73.06,1.09.09,4.87-8.81,9.75-17.6,14.62-26.41,1.44-3.92,4.53-6.48,7.93-6.5.16,0,.32,0,.5.02-.48-.11-1-.17-1.55-.17-3.39.02-6.49,2.56-7.93,6.48-4.88,8.82-9.77,17.66-14.66,26.49Z"/>
            <path class="cls-12" d="M149.66,196.44c.68.05,1.35.11,2.01.16,4.71-8.34,9.4-16.66,14.09-25,.08-.24,1.52-4.32,5.13-4.91.79-.14,1.54-.07,2.17.1,1.06.25,1.84.75,2.19.99,3.37,3.03,6.75,6.08,10.12,9.11.1-.17.2-.35.3-.54.2-.36.4-.73.6-1.09-3.03-3.02-6.06-6.06-9.09-9.1-.49-.5-2.11-2.09-4.44-2.6h-.03c-.17-.02-.33-.03-.5-.02-3.4.02-6.49,2.57-7.93,6.5-4.87,8.81-9.75,17.6-14.62,26.41Z"/>
            <path class="cls-14" d="M168.34,164c-.05.88-.24,2.44.5,3.02.1.01.18.1.17.21-.01.1-.1.18-.21.17-.44-.13-.53-.56-.6-.83-.16-.86-.04-1.73.14-2.56h0Z"/>
            <path class="cls-14" d="M169.83,163.81c-.07,1.01-.44,2.27-.04,3.21-.51-.87-.28-2.25-.31-3.25,0-.24.39-.21.35.03h0Z"/>
            <path class="cls-14" d="M171.17,163.37c-.08.83-.24,2.16-.24,2.98,0,.01,0,.11,0,.12.02.01-.06-.12-.12-.11.23.06.14.43-.1.36-.17-.06-.16-.24-.14-.38.1-.82.42-2.14.59-2.96h0Z"/>
            <path class="cls-14" d="M172.48,163.61l-.69,2.95.34-3.01c.03-.24.4-.17.35.06h0Z"/>
            <path class="cls-14" d="M167.38,165.25c-.25.95.04,2.22,1.06,2.62-1.15-.25-1.68-1.61-1.57-2.7.03-.36.6-.26.51.09h0Z"/>
            <path class="cls-14" d="M166.06,165.71c-.11,1.06.71,2.01,1.62,2.15.13.02.22.15.2.28-.02.15-.19.24-.33.19-1.11-.38-1.76-1.6-1.49-2.62h0Z"/>
          </g>
          <path class="cls-16" d="M143.87,194.35c.78-.65,1.79-1.21,2.86-.92.98.5,1.68.83,2.7,1.17-.96.08-2.06-.28-2.85-.7-.88-.25-1.84.17-2.72.45h0Z"/>
          <path class="cls-16" d="M158.3,202.82c-2.3-1.19-4-1.4-4.24-1.45-1.9-.41-2.84.34-2.77.58.05.17,2.14,0,4.36.37,2.88.48,3.98,1.42,4.11,1.33.05-.03-.22-.19-1.46-.83Z"/>
        </g>
        <g>
          <path class="cls-3" d="M125.76,215.49c.07,2.42,4.48,4.27,9.86,4.12"/>
          <path class="cls-3" d="M154.49,222.34c-1.28,2.06-6.03,1.46-10.61-1.36"/>
          <path class="cls-3" d="M129.57,226.86c.35.58,2.93,4.69,8.18,5.52,4.81.76,8.31-1.8,8.9-2.25"/>
        </g>
      </g>
    </g>
  </g>
</svg>