<?xml version="1.0" encoding="UTF-8"?>
<svg id="Layer_2" data-name="Layer 2" xmlns="http://www.w3.org/2000/svg" viewBox="0 0 193.05 257.41">
  <defs>
    <style>
      .cls-1, .cls-2, .cls-3 {
        fill: none;
      }

      .cls-2 {
        stroke-width: 1.09px;
      }

      .cls-2, .cls-4, .cls-5, .cls-6, .cls-7, .cls-8, .cls-9, .cls-3 {
        stroke-miterlimit: 10;
      }

      .cls-2, .cls-5, .cls-7, .cls-8, .cls-9, .cls-3 {
        stroke: #000;
      }

      .cls-2, .cls-3 {
        stroke-linecap: round;
      }

      .cls-10 {
        fill: #ffbff8;
      }

      .cls-11 {
        fill: #ebebeb;
      }

      .cls-12 {
        fill: #ff6a9c;
      }

      .cls-4 {
        fill: #fbb03b;
        stroke: #cf9131;
        stroke-width: 7.17px;
      }

      .cls-13 {
        fill: #ebcaa4;
      }

      .cls-14 {
        fill: #dedede;
      }

      .cls-15 {
        fill: #c7c7c7;
      }

      .cls-16 {
        font-family: Borsok, Borsok;
        font-size: 24.73px;
      }

      .cls-16, .cls-17 {
        fill: #fffdd0;
      }

      .cls-18 {
        fill: #6e9e28;
      }

      .cls-19, .cls-5 {
        fill: #fff;
      }

      .cls-20 {
        letter-spacing: 0em;
      }

      .cls-5 {
        stroke-width: .58px;
      }

      .cls-21 {
        fill: #7bb02d;
      }

      .cls-22 {
        fill: #f2f2f2;
      }

      .cls-23 {
        fill: #f5f5f5;
      }

      .cls-6 {
        fill: #693043;
        stroke: #7bb02d;
        stroke-width: 1.07px;
      }

      .cls-24 {
        fill: #7fad38;
      }

      .cls-7, .cls-3 {
        stroke-width: 3.44px;
      }

      .cls-8 {
        stroke-width: 2.47px;
      }

      .cls-9 {
        stroke-width: 2.53px;
      }

      .cls-25 {
        letter-spacing: 0em;
      }

      .cls-26 {
        fill: #9dc95a;
      }

      .cls-27 {
        letter-spacing: .03em;
      }

      .cls-28 {
        letter-spacing: .02em;
      }

      .cls-29 {
        letter-spacing: .05em;
      }
    </style>
  </defs>
  <g id="Layer_1-2" data-name="Layer 1">
    <g>
      <g>
        <path class="cls-26" d="M28.95,255.39c-14.85,0-26.94-12.08-26.94-26.94V28.94c0-6.39,2.31-12.6,6.49-17.48,1.07-1.26,2.25-2.4,3.5-3.41,4.79-3.9,10.8-6.04,16.95-6.04h135.16c14.85,0,26.94,12.08,26.94,26.93v199.52c0,14.85-12.08,26.94-26.94,26.94H28.95Z"/>
        <path class="cls-24" d="M164.11,4.02c13.74,0,24.93,11.18,24.93,24.92v199.52c0,13.74-11.18,24.93-24.93,24.93H28.95c-13.74,0-24.93-11.18-24.93-24.93V28.94c0-5.91,2.13-11.65,6.02-16.18.99-1.16,2.07-2.21,3.24-3.16,4.42-3.6,9.98-5.58,15.67-5.58h135.16M164.11,0H28.95c-6.88,0-13.23,2.43-18.21,6.49-1.37,1.1-2.63,2.33-3.76,3.66C2.63,15.22,0,21.78,0,28.94v199.52c0,15.92,13.03,28.95,28.95,28.95h135.16c15.93,0,28.95-13.03,28.95-28.95V28.94c0-15.92-13.02-28.94-28.95-28.94h0Z"/>
      </g>
      <path class="cls-4" d="M169.16,115.97l-40.11,14.75c-2.63.97-4.35,3.52-4.24,6.33l1.6,42.85c.38,10.06-12.36,14.69-18.53,6.74l-26.18-33.69c-1.73-2.23-4.71-3.08-7.36-2.11l-39.94,14.69c-9.41,3.46-17.75-7.12-12.2-15.46l23.83-35.81c1.54-2.32,1.43-5.37-.28-7.57l-26.41-33.99c-6.16-7.92,1.42-19.1,11.06-16.31l40.85,11.81c2.72.79,5.63-.28,7.2-2.64l23.59-35.44c5.57-8.37,18.6-4.7,18.98,5.35l1.61,42.94c.1,2.8,1.99,5.21,4.68,5.99l41.17,11.9c9.61,2.78,10.09,16.22.7,19.68Z"/>
      <g>
        <path d="M119.76,163.24c1.5-3.94,4.83-4.07,6.69-.3.03.09.19.27.05.33-.56.11-1.13.16-1.7.2-.83.09-2.51.17-3.34.15-.56.02-1.12,0-1.68-.04-.06,0-.11-.06-.1-.12,0-.01,0-.02,0-.03l.08-.19h0Z"/>
        <line class="cls-3" x1="52.21" y1="150.76" x2="67.38" y2="127.96"/>
        <line class="cls-3" x1="107.81" y1="141.98" x2="120.35" y2="161.85"/>
        <line class="cls-3" x1="40.16" y1="94.05" x2="58.73" y2="110.33"/>
        <line class="cls-3" x1="125.62" y1="119.58" x2="149.98" y2="115.37"/>
        <g>
          <path class="cls-21" d="M104.61,71.72c.16.06.31.09.49.15.14.04.29.07.47.13.16.06.35.11.55.17.14.06.28.09.43.13.22.07.43.15.69.22,5.13,1.76,11.55,4.83,16.58,10.22,3,3.17,5.51,7.14,7.02,12.13.21.71.43,1.45.59,2.22.06.26.12.5.18.76,3.76,18.46-8.37,33.4-9.82,35.08-6.25,7.25-13.49,10.47-19.85,11.72h-.02c-8.44,1.69-15.3-.05-16.1-.35-2.32-.85-22.07-6.22-28.59-28.05-2.79-9.36-2.79-19.32,1.65-28.51.39-.84.85-1.68,1.34-2.52,1.03-1.79,2.25-3.55,3.67-5.25,2.54-3.06,5.36-5.32,8.25-6.97,2.66-1.5,5.37-2.47,8.05-3.09,1.95-.45,3.84-.7,5.66-.81.06,0,.14-.02.22-.02h.02s.06.06.06.06h.02c1,.17,1.93.31,2.81.44,8.92,1.35,11.56,1.48,13.15,1.64l2.5.48Z"/>
          <path class="cls-18" d="M63.32,80.74c1.15,19.57,4.88,39.19,14.21,56.6-11.81-16.03-15.87-37.01-14.21-56.6h0Z"/>
          <path class="cls-13" d="M128.85,90.36c-.01.18-.04.35-.07.51-.48,2.59-2.49,3.84-2.81,4.12-4.27,3.96-13.81,4.37-19.8,4.21-5.39-.16-18.02-1.72-30.82-7.87-1.16-.55-3.25-2.05-5.07-4.05-1.45-1.6-2.73-3.52-3.22-5.52-.08-.27-.14-.55-.16-.81-.11-.71-.12-1.44.03-2.16.86-4.48,8.68-7.6,11.03-7.25.35-.73,2.7-1.03,5.09-1.16,2.71-.13,5.5-.03,5.5-.03.14.02.26.05.4.07.09.02.17.03.26.04h.02c.88.15,1.68.29,2.46.41,7.8,1.25,10.1,1.42,11.49,1.58.86.1,1.37.19,2.62.55.24.06.55.16.9.25.12.05.24.08.38.11.19.06.38.12.6.19,5.46,1.65,17.73,5.93,20.52,12.89.61,1.54.78,2.85.66,3.93Z"/>
          <path class="cls-22" d="M82.13,72.59c-3.31.29-7.82.73-9.93,3.06-1.13,1.24-1.06,2.46-.94,4.59.22,3.98,2.62,7.79,5,8.55.25.08.93.27,1.67.68,1.02.57,1.21,1.06,1.8,1.52,1.16.9,5.14,2.38,6.01,2.52,4.19.63,7.1,1.83,11.05,3.01,7.16,2.14,21.26,1.85,26.37-2.46,3.03-2.55,1.19-5.88-1.36-9.43-3.36-4.69-10.54-7.07-16.24-8.97-2.49-.83-12.66-4.03-23.44-3.08Z"/>
          <path class="cls-11" d="M86.04,75.17c-3.25.55-5.44,1.41-6.81,2.08-1.93.94-6.19,3.02-5.02,5.73.48,1.11,1.9,2.4,3.1,2.51,1.57.14,2.68-1.74,2.54-1.81-.21-.1-4.98,2.7-3.36,4.9.82,1.11,3.08,1.79,3.49,1.91,2.86.86,4.35.03,6.31.88,1.6.69,1.06,1.44,2.64,2.56,3.09,2.21,9.14,2.16,10.3,2.15,2.72-.02,2.36-.44,6.91-1,6.17-.76,8.43-.19,9.68-1.38,1.27-1.21.44-3.23.39-3.36-.57-1.32-1.73-2.04-1.56-3.23.11-.8.71-.98.92-1.49.36-.87-.48-2.49-6.14-5.79l-23.38-4.66Z"/>
          <path class="cls-23" d="M85.76,75.46c1.32-1.69,5.64-1.47,6.27-1.44,2.39.14,2.56.7,6.83,1.49,3.94.73,5.15.5,6.16,1.25,1.33.98,3.15,1.52,4.41,3.06,1.51,1.85,1.75,2.64,1.68,3.32-.06.62-2.98.12-7.47.83-2.86.45-2.99.87-4.5.68-2.47-.3-2.93-1.5-6.41-2.35-2.37-.57-3.18-.26-4.48-.96-1.19-.64-1.58-1.48-2.07-2.53-.63-1.35-1.14-2.44-.41-3.37Z"/>
          <path class="cls-14" d="M84.19,80.06c-1.97-.74-8.46.61-8.09,4.11.08.8.35,1.04.59,1.16,1.18.54,3.17-1.45,5.28-2.6.44-.3,2.4-1.04,2.23-2.67-.09-.81.8.3,0,0Z"/>
          <path class="cls-14" d="M92.22,84.14c-1.97-.74-7.64,3.36-7.27,6.87.08.8,1.73.75,1.98.86,1.18.54,1.25-2.38,3.36-3.54.44-.3.9-1.21,2.47-2.43.74-.57.26-1.47-.54-1.77Z"/>
          <path class="cls-14" d="M105.91,89.02c-1.56.08-2.4,3.58-2.24,5.1.17,1.59.72,2.02,1.04,2.2.78.46,1.55.3,4.01.47,3.08.21,3.74.59,4.08.32,1.22-.95-4.35-8.22-6.89-8.1Z"/>
          <path class="cls-14" d="M116.09,93.82c-1.43-1.26-2.62-2.08-3.13-1.84-.93.44.44,4.42,1.54,4.53.52.05,1.05-.75,1.59-2.69Z"/>
          <path class="cls-1" d="M128.82,103.9c-.58.65-1.17,1.25-1.83,1.81-2.43,2.14-5.3,3.69-8.29,4.78h-.02c-8.12,2.95-17.15,2.64-20.86,2.29-.44-.04-.81-.09-1.1-.13-5.18-.7-11.17-2.18-16.83-4.5-4.31-1.77-8.4-4-11.76-6.75-4.21-3.36-7.25-7.52-8.16-12.41-.4-2.2-.33-4.32.16-6.27.24-1.03.59-2.03,1.06-2.96,1.84-3.82,5.26-6.77,9.37-8.2.7-.24,1.43-.47,2.13-.7,2.95-.87,5.92-1.48,8.79-1.85,1.9-.25,3.76-.4,5.55-.46.71-.03,1.38-.04,2.06-.03,8.78,1.39,11.36,1.58,12.93,1.76,5.28,1.58,14.88,5.09,21.59,10.22,3.35,2.53,6.01,5.5,7.04,8.81.11.31.19.63.26.92.26.86.44,1.67.56,2.43,1.21,6.95-1.69,10.13-2.65,11.22Z"/>
          <path class="cls-15" d="M98.97,78.12l3.25,2.45c.24-.13.55-.34.86-.62.11-.12.25-.24.36-.39.85-1.06.8-2.2.83-2.67.02-.29.08-.59.22-.92.31-.84,1.06-1.83,2.6-3,.37-.29.8-.59,1.29-.89,1.14-.49,2.21-.98,3.27-1.45,2.13-.96,4.08-1.87,5.89-2.77h.02c.34-.15.68-.32.99-.49.38-.17.75-.37,1.13-.56,9.33-4.67,13.63-8.04,12.9-10.11-.26-.74-1.15-1.31-2.68-1.71-7.61,4.79-13.67,8.88-17.56,11.64h-.02s-.06.05-.06.05h-.02c-.23.19-.47.34-.68.51h-.02c-1.02.74-1.86,1.35-2.5,1.85-.99.77-1.85,1.42-2.57,2-1.15.91-1.96,1.65-2.56,2.39-.3.37-.54.74-.72,1.13-.14.29-.48,1.06-1.26,1.83-.11.12-.23.22-.37.34-.72.61-1.49.98-2.13,1.21-.16.07-.32.12-.46.17Z"/>
          <path class="cls-14" d="M98.93,76.74c.68.09.38,1.54,1.86,2.76.94.77,2.09,1.04,2.01,1.44-.04.19-.34.34-.64.36-1.58.1-4.23-3.46-3.22-4.55.03-.03-.3-.04,0,0Z"/>
          <path class="cls-18" d="M93.1,144.87c13.43-5.46,23.67-12.29,29.55-26.08.81-1.77,1.46-3.6,2.11-5.45-.36,1.92-.91,3.81-1.52,5.68-4.82,14.16-16.13,22.09-30.14,25.85h0Z"/>
        </g>
        <g>
          <ellipse class="cls-5" cx="78.69" cy="101.79" rx="11.14" ry="11.37" transform="translate(-43.54 141.95) rotate(-70.48)"/>
          <ellipse class="cls-8" cx="79.26" cy="102.38" rx="5.27" ry="5.38" transform="translate(-43.72 142.89) rotate(-70.48)"/>
          <ellipse class="cls-19" cx="82.43" cy="98.06" rx="3.01" ry="3.07" transform="translate(-37.53 143) rotate(-70.48)"/>
          <ellipse class="cls-19" cx="73.73" cy="106.32" rx="1.99" ry="2.03" transform="translate(-51.11 140.29) rotate(-70.48)"/>
        </g>
        <g>
          <ellipse class="cls-5" cx="108.52" cy="107.66" rx="11.14" ry="11.37" transform="translate(-29.22 173.98) rotate(-70.48)"/>
          <ellipse class="cls-9" cx="107.36" cy="107.2" rx="5.4" ry="5.51" transform="translate(-29.55 172.57) rotate(-70.48)"/>
          <ellipse class="cls-19" cx="110.61" cy="102.77" rx="3.08" ry="3.15" transform="translate(-23.21 172.69) rotate(-70.48)"/>
          <ellipse class="cls-19" cx="101.69" cy="111.22" rx="2.04" ry="2.08" transform="translate(-37.12 169.92) rotate(-70.48)"/>
        </g>
        <g>
          <path class="cls-6" d="M101.27,125.24c-.45,1.68-1.17,3.2-2.09,4.52-2.69,3.84-7.1,5.96-11.54,5.08-2.78-.55-5.11-2.17-6.72-4.43-1.97-2.74-2.89-6.42-2.29-10.23.09.02.19.05.27.07,9.96,2.45,17.34,4.1,22.15,4.96l.23.04Z"/>
          <path class="cls-12" d="M97.56,130.86c-2.1,2.56-6.2,4.14-9.85,3.42-2.28-.45-4.22-1.62-5.6-3.22,1.64-1.86,4.05-3.12,6.79-3.31,3.26-.22,6.81.87,8.66,3.1Z"/>
          <path class="cls-19" d="M99.75,125.63c-.12.61-.43,1.13-.83,1.47-.41.35-.91.51-1.41.41l-16.34-3.22c-1.01-.2-1.63-1.38-1.39-2.63.03-.17.08-.32.13-.48,8.92,2.19,15.53,3.67,19.84,4.44Z"/>
        </g>
        <path class="cls-10" d="M74.32,114.52l-4.9-.96c-.56-.11-.93-.66-.82-1.23l.13-.66c.11-.57.66-.94,1.22-.83l4.9.96c.56.11.93.66.82,1.23l-.13.66c-.11.57-.66.94-1.22.83Z"/>
        <path class="cls-10" d="M109.61,122.25l-5.24-1.03c-.58-.11-.96-.68-.85-1.27l.11-.6c.11-.58.67-.97,1.25-.85l5.24,1.03c.58.11.96.68.85,1.27l-.11.6c-.11.58-.67.97-1.25.85Z"/>
        <path class="cls-2" d="M67.1,88.41c1.91-1.07,4.77-2.34,8.4-2.77,1.36-.16,2.61-.18,3.72-.13"/>
        <path class="cls-2" d="M124.21,97.81c-1.47-1.64-3.77-3.78-7.08-5.38-1.24-.6-2.41-1.03-3.48-1.34"/>
        <path d="M48.07,147.45c3.81-1.63,5.91.54,4.22,4.31-.05.08-.1.35-.25.24-1.09-.87-2.32-2.1-3.24-3.15-.35-.36-.67-.75-.97-1.16-.03-.05-.03-.11.02-.15,0,0,.01,0,.02-.01l.2-.08h0Z"/>
        <path class="cls-7" d="M38.1,92.46c-.04.07.29-.49.2-.55-.47-.23-.83-1-1.3-1.23-.39-.18-.72-.14-.81.07-.09.18-.06.59.21.79.25.19.45.43.63.68s.36.47.57.69c.18.19.24.41.22.47-.01.05-.07.12-.22.11-.33-.04-.66-.08-.99-.12-.09,0-.43.02-.51.27-.17.56.7.56,1.28.6,1.32.08,1.31.61,1.85.6.24,0,.91-.06,1.4-.58.39-.42.59-1.06.48-1.62-.13-.62-.57-.8-.48-1.3.06-.32.29-.45.25-.73-.04-.26-.24-.54-.45-.55-.32-.01-.56.58-.64.88-.16.6.11,1.07.05,1.1-.06.03-.69-.19-1.6-1.99-.24-.44-.68-.58-.87-.46-.18.12-.25.56.03.97.28.38.68.94.77,1.19.02.04-.05.69-.08.72-.03.02.33-.84.3-.87"/>
        <path class="cls-7" d="M152.06,114.69c.03.07-.25-.51-.16-.56.49-.18.91-.92,1.4-1.11.41-.14.72-.08.81.14.07.19.01.59-.27.77-.26.16-.48.39-.68.62s-.4.43-.62.64c-.19.18-.27.39-.26.45,0,.05.06.12.21.13.33-.01.66-.02.99-.03.09.02.43.06.49.31.13.58-.74.5-1.32.48-1.32-.04-1.35.49-1.89.43-.24-.02-.9-.14-1.34-.7-.36-.45-.5-1.11-.35-1.65.18-.61.63-.75.58-1.25-.04-.33-.25-.47-.19-.75.06-.25.28-.52.49-.51.32.01.51.63.56.93.11.61-.2,1.06-.14,1.09.06.03.71-.13,1.75-1.85.28-.42.72-.51.9-.38.17.13.21.58-.1.96-.31.35-.75.88-.87,1.12-.02.04,0,.7.02.72.03.02-.26-.87-.23-.89"/>
      </g>
      <polygon class="cls-17" points="176.48 236.97 151.91 246.12 157.98 236.39 152.54 226.3 176.48 236.97"/>
      <text class="cls-16" transform="translate(87.04 244.01) scale(.81 1)"><tspan class="cls-20" x="0" y="0">V</tspan><tspan class="cls-28" x="17.4" y="0">i</tspan><tspan class="cls-27" x="25.72" y="0">s</tspan><tspan class="cls-25" x="41.88" y="0">i</tspan><tspan class="cls-29" x="49.62" y="0">t!</tspan></text>
    </g>
  </g>
</svg>