<?xml version="1.0" encoding="UTF-8"?>
<svg id="Layer_2" data-name="Layer 2" xmlns="http://www.w3.org/2000/svg" viewBox="0 0 195.33 257.41">
  <defs>
    <style>
      .cls-1, .cls-2, .cls-3, .cls-4 {
        fill: #e3aa70;
      }

      .cls-5 {
        stroke-width: 3.72px;
      }

      .cls-5, .cls-6, .cls-7, .cls-8, .cls-9, .cls-10, .cls-11, .cls-2, .cls-3, .cls-12, .cls-13, .cls-14, .cls-15, .cls-16, .cls-4 {
        stroke-miterlimit: 10;
      }

      .cls-5, .cls-6, .cls-8, .cls-11, .cls-2, .cls-3, .cls-14, .cls-15, .cls-4 {
        stroke: #000;
      }

      .cls-5, .cls-6, .cls-9, .cls-12, .cls-16 {
        stroke-linecap: round;
      }

      .cls-6 {
        stroke-width: 4.66px;
      }

      .cls-17 {
        font-family: FuturaBT-ExtraBlack, 'Futura XBlk BT';
        font-size: 18.91px;
        font-weight: 800;
        letter-spacing: .05em;
      }

      .cls-18 {
        fill: #737577;
      }

      .cls-7 {
        stroke-width: 1.17px;
      }

      .cls-7, .cls-10 {
        fill: #19126b;
      }

      .cls-7, .cls-10, .cls-13 {
        stroke: #0d0938;
      }

      .cls-8 {
        fill: #262626;
      }

      .cls-8, .cls-12 {
        stroke-width: .93px;
      }

      .cls-9 {
        stroke: #9c6b34;
        stroke-width: 1.24px;
      }

      .cls-9, .cls-12, .cls-13, .cls-16 {
        fill: none;
      }

      .cls-19 {
        fill: #2b0035;
      }

      .cls-20 {
        fill: #b0fdff;
        opacity: .8;
      }

      .cls-21, .cls-22 {
        fill: #c48e57;
      }

      .cls-23 {
        fill: #d09c67;
      }

      .cls-22 {
        opacity: .75;
      }

      .cls-11 {
        stroke-width: .53px;
      }

      .cls-24, .cls-25 {
        fill: #fff;
      }

      .cls-25 {
        font-family: MalayalamMN, 'Malayalam MN';
        font-size: 25.54px;
      }

      .cls-26 {
        fill: #9c6b34;
      }

      .cls-2 {
        stroke-width: 3.36px;
      }

      .cls-3 {
        stroke-width: 3.51px;
      }

      .cls-12, .cls-16 {
        stroke: #212121;
      }

      .cls-13 {
        stroke-width: 4.02px;
      }

      .cls-14 {
        stroke-width: 2.79px;
      }

      .cls-15 {
        fill: #3d004d;
        stroke-width: 1.05px;
      }

      .cls-16 {
        stroke-width: 1.86px;
      }

      .cls-4 {
        stroke-width: 1.12px;
      }
    </style>
  </defs>
  <g id="Layer_1-2" data-name="Layer 1">
    <g>
      <g>
        <path class="cls-24" d="M29.9,255.39c-14.85,0-26.94-12.08-26.94-26.94V28.94c0-6.39,2.31-12.6,6.49-17.48,1.07-1.26,2.25-2.4,3.5-3.41,4.79-3.9,10.8-6.05,16.95-6.05h135.16c14.85,0,26.94,12.08,26.94,26.93v199.52c0,14.85-12.08,26.94-26.94,26.94H29.9Z"/>
        <path d="M165.06,4.02c13.74,0,24.93,11.18,24.93,24.92v199.52c0,13.74-11.18,24.93-24.93,24.93H29.9c-13.74,0-24.93-11.18-24.93-24.93V28.94c0-5.91,2.13-11.65,6.02-16.18.99-1.16,2.07-2.21,3.24-3.16,4.42-3.6,9.98-5.58,15.67-5.58h135.16M165.06,0H29.9c-6.88,0-13.23,2.43-18.21,6.49-1.37,1.1-2.63,2.33-3.76,3.66C3.58,15.22.95,21.78.95,28.94v199.52c0,15.92,13.03,28.95,28.95,28.95h135.16c15.93,0,28.95-13.03,28.95-28.95V28.94c0-15.92-13.02-28.94-28.95-28.94h0Z"/>
      </g>
      <rect class="cls-18" x="20.86" y="23.74" width="153.24" height="147.9"/>
      <path class="cls-10" d="M104.49,140.41c-.32-.02-9.11-.67-20.03,1.41-5.32,1.02-9.06,2.27-12.48,4.94-1.02.8,5.93-5.94,5.35-5.66-8.29,4.09-15.4,10.28-20.12,18.24-1.12,1.88-9.43,10.85-10.22,13.06,35.68,0,89.32,1.5,124.99,1.5-.84-6.77-6.43-20.73-6.43-20.73-.09-.82-2.69-3.61-5.58-6.19-3.05-2.73-6.66-2.83-7.46-2.83-19.37-1.68-35.56-2.82-48.03-3.74Z"/>
      <g>
        <path d="M77.63,82.32c-1.9,2.19-2.79,3.81-2.97,5.71-.38,3.84,2.44,5.69,1.49,8.46-.89,2.59-3.71,2.07-4.65,4.92-.82,2.48,1,3.84,0,5.94-1.11,2.34-3.99,1.99-4.28,3.7-.31,1.85,2.92,3.09,2.6,5.12-.2,1.31-1.63,1.33-2.69,2.75-1.9,2.54.04,5.88,0,9.84-.04,3.78-1.84,4.33-5.86,12-3.63,6.93-7.1,13.56-4.83,16.92,1.15,1.7,3.49,2.16,6.51,2.75,2.64.52,4.54.89,6.51,0,3.84-1.74,4.78-6.89,6.51-6.49.74.17.69,1.14,1.67,1.57,1.42.63,3.07-.72,4.65-1.77,5.03-3.35,5.95-1.41,10.04-4.53,2.53-1.93,3.17-3.43,5.39-3.74,1.88-.26,3.39.53,3.9.79,8.4,4.11,27.74-1.76,31.41,5.51.98,1.93-.2,2.74,1.12,5.51,1.72,3.63,5.51,6.01,9.11,6.58,4.22.67,4.77-1.7,10.04-2.06,7.34-.5,9.14,3.9,13.01,2.06,3.54-1.69,2.41-5.54,8.37-11.11,2.03-1.9,2.84-2.08,3.35-3.54,1.16-3.35-2.07-5.34-2.04-11.02.01-3.1.99-4.01.19-6.1-.81-2.11-2.17-2.14-4.09-4.21-3.27-3.51-1.43-5.7-4.83-11.14-2.09-3.34-3.76-4.09-3.72-6.49.04-2.31,1.63-2.91,1.3-4.72-.44-2.47-3.52-2.14-5.58-5.51-1.42-2.33-.35-3.14-1.86-5.92-1.39-2.56-2.74-2.67-4.83-5.29-1.98-2.48-2.35-4.35-3.35-6.49-2.03-4.36-5.22-6.73-9.67-10.04-8.48-6.3-18.61-13.82-31.98-12.2,0,0-11.94,1.45-29.93,22.24Z"/>
        <path class="cls-8" d="M86.23,122.19c-1.33-.43-3.46,1.22-3.91,3.23-.31,1.38.21,2.82,1.03,3.75.38.43.75.67.93.78,1.11.68,3.18,1.17,4.45,0,.93-.85,1.48-2.62.63-3.57-.98-1.1-3.3-.56-3.45.07-.15.61,1.69,1.54,1.73,1.48.07-.09-3.56-2.47-3.15-3.42.31-.7,2.53-.04,2.83-.8.18-.46-.39-1.28-1.09-1.51Z"/>
        <path class="cls-3" d="M108.36,102.29c-3.31,1.28-6.53,2.57-9.68,3.87-.7,5.18-1.04,11.88,0,19.57,1.76,13.03,1.63,19.8,7.07,23.08,1.32.79,6.69,3.66,17.77,0,3.47-6.34,6.95-12.67,10.42-19.01-2.96-11.2-5.92-22.4-8.89-33.6-5.44,1.86-11.01,3.89-16.7,6.09Z"/>
        <path class="cls-12" d="M144.82,92.16c3.24-.84,4.52.05,5.11.95,1.06,1.64-.04,3.57,1.05,6.5,1.07,2.89,2.82,2.85,3.25,5.11.23,1.23.08,3.11-1.74,5.96"/>
        <ellipse class="cls-23" cx="115.45" cy="125.81" rx="15.16" ry="10.67"/>
        <path class="cls-16" d="M142.2,115.14c-.62.87-2.1,3.2-1.96,6.34.03.72.25,5.68,3.81,7.04,2.3.88,5.59.11,6.69-2.14.94-1.92.23-4.82-1.17-5.24-1.13-.34-3.08.84-2.98,2.19.05.77.76,1.49,1.73,1.85"/>
        <path class="cls-8" d="M140.98,147.13c-1.33-.43-3.46,1.22-3.91,3.23-.31,1.38.21,2.82,1.03,3.75.38.43.75.67.93.78,1.11.68,3.18,1.17,4.45,0,.93-.85,1.48-2.62.63-3.57-.98-1.1-3.3-.56-3.45.07-.15.61,1.69,1.54,1.73,1.48.07-.09-3.56-2.47-3.15-3.42.31-.7,2.53-.04,2.83-.8.18-.46-.39-1.28-1.09-1.51Z"/>
        <path class="cls-2" d="M104.27,66.88c-15.8,3.47-20.26,8.24-21.47,11.91-.97,2.95.42,4.41,1.98,15.31,1.32,9.26.4,8.78,1.39,12.48,1.08,4.04,4.56,12.06,15.5,16.63,9.72,4.06,19.12,3.52,21.17,2.65,11.11-4.69,14.78-12.52,15.96-14.74,1.96-3.66,3.15-11.14,0-19.28-3.53-9.14-2.91-14.94-7.97-19.28-9.06-7.77-23.64-6.06-26.56-5.67Z"/>
        <path class="cls-22" d="M133.43,77.9c1.49,8.07,9.78,25.39-2.77,24.05s-43.35-11.66-43.35-19.44,10.17-14.07,22.72-14.07,21.99,1.83,23.4,9.46Z"/>
        <g>
          <path class="cls-15" d="M147.18,88.42c-10.61-11.12-25.78-19.18-37.5-18.39-13.26.87-24.56,13.38-31.86,22.61-.06.07-.13.16-.2.24-.07.09-.14.17-.21.26.14-.74.29-1.67.4-2.84.36-3.65.03-5.98-.46-11.73-.12-1.39-.23-2.63-.32-3.74-.01-.07-.01-.15-.02-.21-.33-3.91-.48-5.98-.4-6.45.02-.15.04-.26.04-.34.37-.45,1.46-2.23,4.3-7.91,3.4-6.8,7.82-6.7,10.86-8.55,2.59-1.56,7.54-4.56,13.17-5.59,13.47-2.45,26.99,7.14,31.88,16.88,3.26,6.49,3.86,13.18,3.86,13.18.03.4.06.78.09,1.15v.19c.03.57.05,1.11.05,1.6.01.94-.02,1.75-.05,2.39,2.12,2.42,4.25,4.83,6.37,7.26Z"/>
          <path class="cls-19" d="M79.52,90.01c-.37-.22,4.04-12.27,13.5-18.82,10.68-7.4,22.91-6.06,24.92-5.81,15.22,1.89,24.24,18.89,24,19.22-.2.28-9.01-8.25-20.12-13.12-3.52-1.54-15-3.11-26.36,3.56-9.95,5.84-15.57,15.2-15.94,14.98Z"/>
          <g>
            <g>
              <polygon points="102.29 49.38 116.11 48.64 116.7 61.16 102.88 61.9 102.29 49.38"/>
              <path d="M115.61,49.19l.55,11.47-12.77.69-.55-11.47,12.77-.69M116.61,48.09l-14.87.8.65,13.57,14.87-.8-.65-13.57h0Z"/>
            </g>
            <text class="cls-25" transform="translate(103.02 61.87) rotate(-3.08) scale(1.09 1) skewX(-.32)"><tspan x="0" y="0">s</tspan></text>
            <path class="cls-11" d="M112.3,64.28c.22-.11.44-.22.66-.32.03-.01.04-.04.02-.06-.22-.34-.43-.69-.65-1.03l.85-.14c.06,0,.08-.08.03-.11-.82-.52-1.64-1.04-2.46-1.55-.04-.02-.09,0-.09.04.07.88.14,1.75.2,2.63,0,.04.06.06.09.03.2-.18.4-.36.6-.54.22.35.45.69.67,1.04.01.02.05.03.07.02Z"/>
          </g>
        </g>
        <ellipse cx="98.02" cy="91.99" rx="4.71" ry="4.22"/>
        <ellipse cx="119.82" cy="89.19" rx="4.42" ry="4.28"/>
        <ellipse class="cls-24" cx="99.14" cy="90.17" rx="1.48" ry="1.37"/>
        <ellipse class="cls-24" cx="98.5" cy="91.45" rx=".26" ry=".22"/>
        <path class="cls-23" d="M92.23,91.79c.45.29,1.27-1.3,3.34-2.23,3.21-1.44,5.94-.57,6.09-1.12.15-.55-2.44-2.11-5.11-1.74-.47.07-2.28.34-3.47,1.87-.93,1.2-1.3,2.93-.85,3.22Z"/>
        <circle class="cls-24" cx="120.63" cy="87.12" r="1.39"/>
        <path class="cls-23" d="M115.19,88.19c.2.22,1.23-1.02,3.46-1.61,3.21-.85,5.59.52,5.81,0,.23-.53-1.89-2.77-4.42-2.67-3.2.13-5.17,3.93-4.85,4.28Z"/>
        <path d="M112.73,81.95c2.83-5.9,12.44-6.47,15.83-.82.06.1-.05.23-.16.18-5-2.11-10.77-1.68-15.53.88-.15.06-.24-.11-.14-.24h0Z"/>
        <path class="cls-1" d="M90.09,89.43c.37-.69.74-1.39,1.11-2.08"/>
        <ellipse class="cls-26" cx="111.85" cy="103.63" rx="3.31" ry="2.1" transform="translate(-12.59 15.52) rotate(-7.52)"/>
        <ellipse class="cls-1" cx="110.13" cy="102.33" rx="2.85" ry="1.65"/>
        <path class="cls-21" d="M86.12,78.07c3.23-7.67,14.21-8.42,18.07-1.07.07.13-.06.3-.18.24-5.7-2.74-12.3-2.18-17.73,1.15-.17.08-.28-.14-.16-.32h0Z"/>
        <path d="M87.24,77.05c2.83-5.9,12.45-6.47,15.83-.82.06.1-.05.23-.16.18-5-2.11-10.77-1.68-15.53.88-.15.06-.24-.11-.14-.24h0Z"/>
        <path class="cls-9" d="M115.98,113.08c.5.15,1.16.31,1.97.36.39.02.75.02,1.06,0"/>
        <g>
          <g>
            <path class="cls-14" d="M88.99,85.01l14.33-1.91c1.66-.22,3.16.96,3.39,2.62,1.17,8.53-.14,15.42-7.59,15.44-8.6.02-11.36-4.19-12.71-12.68-.27-1.67.9-3.25,2.58-3.47Z"/>
            <path class="cls-14" d="M113.91,83.34l15.12-2.01c1.41-.19,2.73.79,2.94,2.2,1.29,8.75-.43,15.3-7.52,15.9-8.71.75-11.44-4.32-12.77-13.08-.22-1.46.78-2.82,2.24-3.01Z"/>
            <line class="cls-5" x1="85.71" y1="87.47" x2="78.43" y2="90.87"/>
            <line class="cls-5" x1="132.36" y1="83.29" x2="138.67" y2="87.04"/>
            <line class="cls-6" x1="107.22" y1="90.6" x2="112.64" y2="90.21"/>
          </g>
          <rect class="cls-20" x="97.48" y="86.41" width="5.62" height="2.12" rx="1.06" ry="1.06" transform="translate(-21.86 34.66) rotate(-17.72)"/>
          <rect class="cls-20" x="95.69" y="88.37" width="5.62" height="2.12" rx="1.06" ry="1.06" transform="translate(-22.54 34.21) rotate(-17.72)"/>
          <rect class="cls-20" x="123.71" y="83.69" width="5.62" height="2.12" rx="1.06" ry="1.06" transform="translate(-19.79 42.52) rotate(-17.72)"/>
          <rect class="cls-20" x="121.92" y="85.65" width="5.62" height="2.12" rx="1.06" ry="1.06" transform="translate(-20.47 42.06) rotate(-17.72)"/>
        </g>
      </g>
      <line class="cls-13" x1="87.68" y1="167.02" x2="87.39" y2="171.64"/>
      <line class="cls-13" x1="146.78" y1="165.94" x2="148.33" y2="170.79"/>
      <g>
        <path class="cls-24" d="M30.68,253.38c-14.73,0-26.71-11.89-26.71-26.5V30.52c0-6.29,2.28-12.39,6.43-17.18,1.06-1.24,2.23-2.37,3.47-3.36,4.74-3.84,10.7-5.95,16.8-5.95h133.97c14.73,0,26.71,11.89,26.71,26.49v196.35c0,14.61-11.98,26.5-26.71,26.5H30.68ZM19.73,173.09h155.43V23.42H19.73v149.68Z"/>
        <path d="M164.65,6.01c13.63,0,24.72,10.99,24.72,24.51v196.36c0,13.52-11.09,24.52-24.72,24.52H30.68c-13.63,0-24.72-11-24.72-24.52V30.52c0-5.81,2.11-11.45,5.96-15.9.97-1.13,2.05-2.17,3.22-3.11,4.37-3.55,9.89-5.5,15.54-5.5h133.97M17.75,175.08h159.4V21.43H17.75v153.65M164.65,2.04H30.68c-6.82,0-13.11,2.39-18.04,6.39-1.36,1.08-2.61,2.29-3.74,3.61C4.59,17.02,1.99,23.47,1.99,30.52v196.36c0,15.67,12.92,28.49,28.69,28.49h133.97c15.79,0,28.69-12.82,28.69-28.49V30.52c0-15.67-12.91-28.48-28.69-28.48h0ZM21.72,171.11V25.4h151.46v145.7H21.72Z"/>
      </g>
      <g>
        <path class="cls-4" d="M33.32,76.75l-2.86,4.8c-.49.83-.47,1.83-.02,2.61.21.36.51.68.89.91l1.79,1.07c.8.47,1.76.45,2.53.03-.18-.65-.15-1.36.14-2.02l.86-1.97,1.48-3.4c.25-.57.65-1.02,1.13-1.33-.18-.21-.39-.4-.64-.54l-1.79-1.07c-1.2-.72-2.78-.3-3.51.92Z"/>
        <path class="cls-4" d="M38.13,78.77l-1.48,3.4-.86,1.97c-.29.66-.32,1.38-.14,2.02.23.83.82,1.55,1.67,1.91l1.13.49c1.5.65,3.27-.07,3.93-1.59l1.71-3.94.62-1.43c.66-1.52-.03-3.29-1.53-3.94l-1.13-.49c-.94-.41-1.99-.27-2.8.26-.48.31-.88.77-1.13,1.33Z"/>
        <path class="cls-4" d="M28.58,94.37l-5.68,9.55c-.14.23-.06.53.18.65l14.7,7.73c.22.11.49.04.62-.18l5.2-8.75c.1-.17.3-.26.49-.22.59.11,1.19.19,1.81.23,4.06.3,7.74-.85,9.86-2.83,1.1-1.02,1.78-2.26,1.9-3.62.12-1.46-.41-2.86-1.44-4.08-.03-.03-.05-.07-.07-.11-.17-.39-.36-.78-.57-1.17-.11-.2-.06-.45.12-.59,3.14-2.54,6.28-5.09,9.43-7.63,1.18-.96,2.22-2.08,3.09-3.33.26-.38.51-.75.68-1.03.36-.59.6-1.25.67-1.94s-.02-1.46-.59-2.1c-.09-.1-.19-.2-.31-.29-1.18-.94-2.87-.91-4.09.02-1.43,1.09-3.3,2.81-4.69,4.14-1.8,1.72-4.15,3.6-7.03,6.03-.34.29-.84-.02-.74-.45,1.49-6.63,2.98-13.25,4.47-19.88.04-.18.07-.36.08-.54.08-1.54-1.1-1.84-2.04-2.06-1.34-.31-2.95.68-3.4,2.39-.03.13-.07.26-.11.38-2.01,6.05-4.02,12.11-6.03,18.16-.08.25-.34.38-.59.3h0c-.23-.07-.47.04-.57.26l-1.54,3.56c-.66,1.52-2.43,2.23-3.93,1.59l-1.13-.49c-.7-.3-1.22-.84-1.51-1.49-.1-.22-.34-.32-.57-.24-.68.23-1.45.18-2.11-.21l-1.79-1.07c-.25-.15-.46-.33-.63-.53-.17-.2-.46-.23-.65-.06-.27.23-.51.47-.72.73-2.88,3.44-2.63,6.21-.78,8.66.11.15.12.35.02.52Z"/>
        <path class="cls-4" d="M55.88,92.17l-5.82-3.46c-1.95-1.33-4.42-1.07-5.72.33-1.66,1.79-.78,4.73.67,6.21,1.69,1.71,4.65,1.95,7.06.4"/>
        <path class="cls-4" d="M37.57,98.69c-.81-1.15-1.2-2.31-.8-4.12.54-2.47,3.95-3.49,6.66-2.82"/>
      </g>
      <polygon class="cls-7" points="44.08 114.9 19.48 168.36 19.48 103.16 44.08 114.9"/>
      <g>
        <line x1="169.49" y1="237.72" x2="179.74" y2="238.04"/>
        <polygon points="179.74 238.04 160.96 245.03 165.6 237.59 161.44 229.88 179.74 238.04"/>
      </g>
      <text class="cls-17" transform="translate(111.35 243.42) scale(.81 1)"><tspan x="0" y="0">Visit!</tspan></text>
    </g>
  </g>
</svg>