<?xml version="1.0" encoding="UTF-8"?>
<svg id="Layer_2" data-name="Layer 2" xmlns="http://www.w3.org/2000/svg" viewBox="0 0 193.05 257.41">
  <defs>
    <style>
      .cls-1 {
        fill: #fff300;
      }

      .cls-2 {
        fill: #f0e400;
      }

      .cls-3 {
        fill: #ffb315;
      }

      .cls-4 {
        fill: #2e2e2e;
        stroke: #2e2e2e;
        stroke-width: 3.85px;
      }

      .cls-4, .cls-5 {
        stroke-miterlimit: 10;
      }

      .cls-6 {
        fill: #828282;
      }

      .cls-7 {
        fill: #454545;
      }

      .cls-8 {
        fill: lime;
      }

      .cls-9 {
        fill: #bd001a;
      }

      .cls-10 {
        fill: #ccc;
      }

      .cls-11 {
        fill: #696969;
      }

      .cls-5 {
        font-family: FuturaBT-ExtraBlack, 'Futura XBlk BT';
        font-size: 30.94px;
        font-weight: 800;
        stroke: #212121;
      }

      .cls-5, .cls-12 {
        fill: #fff;
      }

      .cls-13 {
        fill: #00eb00;
      }

      .cls-14 {
        fill: #3726e8;
      }

      .cls-15 {
        fill: #d4001d;
      }

      .cls-16 {
        fill: #e6891c;
      }

      .cls-17 {
        fill: #3c2aff;
      }

      .cls-18 {
        letter-spacing: .02em;
      }

      .cls-19 {
        letter-spacing: .04em;
      }

      .cls-20 {
        fill: #e8e8e8;
      }
    </style>
  </defs>
  <g id="Layer_1-2" data-name="Layer 1">
    <g>
      <g>
        <rect class="cls-12" x="2.01" y="2.01" width="189.03" height="253.38" rx="26.94" ry="26.94"/>
        <path d="M164.11,4.02c13.74,0,24.92,11.18,24.92,24.92v199.51c0,13.74-11.18,24.92-24.92,24.92H28.95c-13.74,0-24.92-11.18-24.92-24.92V28.95C4.02,15.2,15.2,4.02,28.95,4.02h135.16M164.11,0H28.95C13.03,0,0,13.03,0,28.95v199.51c0,15.92,13.03,28.95,28.95,28.95h135.16c15.92,0,28.95-13.03,28.95-28.95V28.95c0-15.92-13.03-28.95-28.95-28.95h0Z"/>
      </g>
      <g>
        <path class="cls-15" d="M74.96,25.67v227.63h-15.69V38.15c4.34-5.12,9.67-9.38,15.69-12.48Z"/>
        <path class="cls-3" d="M90.66,20.56v232.74h-15.7V25.67c4.83-2.5,10.12-4.25,15.7-5.11Z"/>
        <path class="cls-1" d="M106.36,20.56v232.74h-15.7V20.56c2.56-.39,5.18-.59,7.85-.59s5.29.2,7.85.59Z"/>
        <path class="cls-8" d="M122.06,25.66v227.53h-15.7V20.56c5.57.86,10.86,2.61,15.7,5.1Z"/>
        <path class="cls-17" d="M137.76,38.15v215.04h-15.7V25.66c6.02,3.11,11.35,7.37,15.7,12.49Z"/>
      </g>
      <path class="cls-7" d="M1.86,163.85h189.34v63.13c0,15.75-12.79,28.55-28.55,28.55H27.58c-14.2,0-25.72-11.53-25.72-25.72v-65.96h0Z"/>
      <g>
        <g>
          <path class="cls-6" d="M98.51,122.6c-2.62,0-5.25-.2-7.81-.59-5.48-.84-10.73-2.55-15.61-5.08-5.99-3.08-11.24-7.26-15.6-12.41-7.83-9.23-12.14-20.98-12.14-33.09s4.31-23.87,12.14-33.09c4.37-5.15,9.62-9.33,15.6-12.41,4.88-2.53,10.14-4.24,15.61-5.08,2.55-.39,5.18-.59,7.81-.59s5.25.2,7.81.59c5.46.84,10.71,2.55,15.61,5.07,5.98,3.09,11.24,7.27,15.61,12.42,7.83,9.23,12.14,20.98,12.14,33.09s-4.31,23.87-12.14,33.09c-4.38,5.15-9.63,9.33-15.61,12.42-4.9,2.52-10.16,4.23-15.61,5.07-2.56.39-5.18.59-7.81.59Z"/>
          <path d="M98.51,20.54c2.61,0,5.22.2,7.76.58,5.43.84,10.65,2.53,15.52,5.04,5.95,3.07,11.17,7.23,15.53,12.35,7.79,9.18,12.07,20.86,12.07,32.91s-4.29,23.73-12.07,32.91c-4.35,5.12-9.58,9.28-15.53,12.35-4.88,2.51-10.1,4.21-15.52,5.04-2.54.39-5.15.58-7.76.58s-5.22-.2-7.76-.58c-5.44-.84-10.67-2.54-15.52-5.05-5.95-3.06-11.17-7.22-15.52-12.34-7.79-9.18-12.07-20.86-12.07-32.91s4.29-23.73,12.07-32.91c4.34-5.12,9.56-9.28,15.52-12.34,4.86-2.51,10.08-4.21,15.52-5.05,2.54-.39,5.15-.58,7.76-.58M98.51,19.97c-2.67,0-5.29.2-7.85.59-5.58.86-10.87,2.61-15.7,5.11-6.02,3.1-11.35,7.36-15.69,12.48-7.62,8.98-12.21,20.59-12.21,33.28s4.59,24.3,12.21,33.28c4.34,5.12,9.67,9.38,15.69,12.48,4.83,2.5,10.12,4.25,15.7,5.11,2.56.39,5.18.59,7.85.59s5.29-.2,7.85-.59c5.57-.86,10.86-2.61,15.7-5.1,6.02-3.11,11.35-7.37,15.7-12.49,7.62-8.98,12.21-20.59,12.21-33.28s-4.59-24.3-12.21-33.28c-4.35-5.12-9.68-9.38-15.7-12.49-4.84-2.49-10.13-4.24-15.7-5.1-2.56-.39-5.18-.59-7.85-.59h0Z"/>
        </g>
        <circle class="cls-11" cx="98.51" cy="71.43" r="42.14"/>
        <g>
          <path d="M98.51,104.17c-17.73,0-32.16-14.43-32.16-32.16s14.43-32.16,32.16-32.16,32.16,14.43,32.16,32.16-14.43,32.16-32.16,32.16Z"/>
          <path d="M98.51,41.85c16.63,0,30.15,13.53,30.15,30.15s-13.53,30.15-30.15,30.15-30.15-13.53-30.15-30.15,13.53-30.15,30.15-30.15M98.51,37.83c-18.87,0-34.17,15.3-34.17,34.17s15.3,34.17,34.17,34.17,34.17-15.3,34.17-34.17-15.3-34.17-34.17-34.17h0Z"/>
        </g>
        <path class="cls-10" d="M119.97,74.44c0,5.13-4.16,5.37-9.29,5.37s-9.29-.24-9.29-5.37,4.16-4.42,9.29-4.42,9.29-.71,9.29,4.42Z"/>
      </g>
      <rect class="cls-4" x="13.47" y="205.91" width="170.09" height="29.27"/>
      <text class="cls-5" transform="translate(40.12 197.64) scale(.79 1)"><tspan class="cls-18" x="0" y="0">P</tspan><tspan class="cls-19" x="22.47" y="0">olaroid</tspan><tspan class="cls-19"><tspan x="-8.86" y="33.52">3D Model</tspan></tspan></text>
      <g>
        <rect class="cls-20" x="2.57" y="154.58" width="187.91" height="9.97"/>
        <g>
          <rect class="cls-9" x="59.27" y="154.19" width="15.69" height="10.74"/>
          <rect class="cls-16" x="74.96" y="154.19" width="15.7" height="10.74"/>
          <rect class="cls-2" x="90.66" y="154.19" width="15.7" height="10.74"/>
          <rect class="cls-13" x="106.36" y="154.19" width="15.7" height="10.74"/>
          <rect class="cls-14" x="122.06" y="154.19" width="15.7" height="10.74"/>
        </g>
      </g>
      <path d="M164.11,4.02c13.74,0,24.92,11.18,24.92,24.92v199.51c0,13.74-11.18,24.92-24.92,24.92H28.95c-13.74,0-24.92-11.18-24.92-24.92V28.95C4.02,15.2,15.2,4.02,28.95,4.02h135.16M164.11,0H28.95C13.03,0,0,13.03,0,28.95v199.51c0,15.92,13.03,28.95,28.95,28.95h135.16c15.92,0,28.95-13.03,28.95-28.95V28.95c0-15.92-13.03-28.95-28.95-28.95h0Z"/>
    </g>
  </g>
</svg>