<?xml version="1.0" encoding="UTF-8"?>
<svg id="Layer_2" data-name="Layer 2" xmlns="http://www.w3.org/2000/svg" viewBox="0 0 193.24 257.84">
  <defs>
    <style>
      .cls-1 {
        fill: #1f0528;
      }

      .cls-2 {
        fill: #8d1ac5;
      }

      .cls-2, .cls-3, .cls-4, .cls-5, .cls-6, .cls-7, .cls-8, .cls-9, .cls-10, .cls-11, .cls-12, .cls-13, .cls-14, .cls-15 {
        stroke-miterlimit: 10;
      }

      .cls-2, .cls-3, .cls-4, .cls-5, .cls-6, .cls-7, .cls-8, .cls-9, .cls-12, .cls-13, .cls-14 {
        stroke: #201d1d;
      }

      .cls-2, .cls-6, .cls-8, .cls-11, .cls-15 {
        stroke-width: 2.23px;
      }

      .cls-16 {
        stroke: #37004a;
        stroke-linejoin: bevel;
        stroke-width: 2.25px;
      }

      .cls-16, .cls-7, .cls-11 {
        fill: none;
      }

      .cls-16, .cls-11 {
        stroke-linecap: round;
      }

      .cls-17 {
        fill: #1a0421;
      }

      .cls-18 {
        fill: #0a4c15;
      }

      .cls-3 {
        stroke-width: 1.21px;
      }

      .cls-3, .cls-4 {
        fill: #30083f;
      }

      .cls-4 {
        stroke-width: 1.23px;
      }

      .cls-5, .cls-7, .cls-9, .cls-10, .cls-12, .cls-13, .cls-14 {
        stroke-width: 1.33px;
      }

      .cls-19 {
        fill: #6c5275;
      }

      .cls-6 {
        fill: #915aa6;
      }

      .cls-8, .cls-15 {
        fill: #561077;
      }

      .cls-20 {
        fill: #21f337;
      }

      .cls-9 {
        fill: #169e27;
      }

      .cls-10 {
        stroke: #fff;
      }

      .cls-10, .cls-21 {
        fill: #fff;
      }

      .cls-11 {
        stroke: #fff6bd;
      }

      .cls-22 {
        fill: #3d0b51;
      }

      .cls-23 {
        fill: #583763;
      }

      .cls-24, .cls-25 {
        fill: #37004a;
      }

      .cls-26 {
        fill: #cef;
      }

      .cls-12 {
        fill: #19b42a;
      }

      .cls-27 {
        fill: #1bc42e;
      }

      .cls-13 {
        fill: #f5f5f5;
      }

      .cls-28 {
        fill: #794b88;
      }

      .cls-29 {
        fill: #cccfff;
      }

      .cls-25 {
        font-family: ChocMN-Regular, 'Choc MN';
        font-size: 33px;
      }

      .cls-30 {
        fill: #730c5e;
      }

      .cls-31 {
        fill: #fff6bd;
      }

      .cls-14 {
        fill: #1b7627;
      }

      .cls-32 {
        letter-spacing: .03em;
      }

      .cls-33 {
        fill: #fff6d1;
      }

      .cls-15 {
        stroke: #060606;
      }

      .cls-34 {
        letter-spacing: 0em;
      }
    </style>
  </defs>
  <g id="Layer_1-2" data-name="Layer 1">
    <g>
      <g>
        <path class="cls-26" d="M28.95,255.83c-14.85,0-26.94-12.08-26.94-26.94V29.37c0-6.39,2.31-12.6,6.49-17.48,1.07-1.26,2.25-2.4,3.5-3.41,4.79-3.9,10.8-6.05,16.95-6.05h135.16c14.85,0,26.94,12.08,26.94,26.93v199.52c0,14.85-12.08,26.94-26.94,26.94H28.95Z"/>
        <path class="cls-24" d="M164.11,4.46c13.74,0,24.93,11.18,24.93,24.92v199.52c0,13.74-11.18,24.93-24.93,24.93H28.95c-13.74,0-24.93-11.18-24.93-24.93V29.37c0-5.91,2.13-11.65,6.02-16.18.99-1.16,2.07-2.21,3.24-3.16,4.42-3.6,9.98-5.58,15.67-5.58h135.16M164.11.43H28.95c-6.88,0-13.23,2.43-18.21,6.49-1.37,1.1-2.63,2.33-3.76,3.66C2.63,15.65,0,22.21,0,29.37v199.52c0,15.92,13.03,28.95,28.95,28.95h135.16c15.93,0,28.95-13.03,28.95-28.95V29.37c0-15.92-13.02-28.94-28.95-28.94h0Z"/>
      </g>
      <path class="cls-24" d="M164.29,4.02c13.75,0,24.93,11.18,24.93,24.92v199.51c0,13.75-11.18,24.93-24.93,24.93H29.14c-13.75,0-24.93-11.18-24.93-24.93V28.94c0-5.91,2.13-11.65,6.02-16.19.97-1.14,2.05-2.2,3.24-3.15,4.42-3.6,9.98-5.59,15.67-5.59h135.15M164.29,0H29.14c-6.88,0-13.23,2.43-18.21,6.49-1.37,1.1-2.63,2.33-3.76,3.66C2.82,15.22.19,21.78.19,28.94v199.51c0,15.92,13.03,28.95,28.95,28.95h135.15c15.93,0,28.95-13.03,28.95-28.95V28.94c0-15.92-13.02-28.94-28.95-28.94h0Z"/>
      <g>
        <path class="cls-29" d="M28.95,255.39c-14.85,0-26.94-12.08-26.94-26.94V28.94c0-6.39,2.31-12.6,6.5-17.48,1.06-1.25,2.23-2.39,3.49-3.4,4.79-3.9,10.8-6.05,16.95-6.05h135.15c14.85,0,26.94,12.08,26.94,26.93v199.51c0,14.85-12.08,26.94-26.94,26.94H28.95Z"/>
        <path class="cls-24" d="M164.1,4.02c13.75,0,24.93,11.18,24.93,24.92v199.51c0,13.75-11.18,24.93-24.93,24.93H28.95c-13.75,0-24.93-11.18-24.93-24.93V28.94c0-5.91,2.13-11.65,6.02-16.19.97-1.14,2.05-2.2,3.24-3.15,4.42-3.6,9.98-5.59,15.67-5.59h135.15M164.1,0H28.95c-6.88,0-13.23,2.43-18.21,6.49-1.37,1.1-2.63,2.33-3.76,3.66C2.63,15.22,0,21.78,0,28.94v199.51c0,15.92,13.03,28.95,28.95,28.95h135.15c15.93,0,28.95-13.03,28.95-28.95V28.94c0-15.92-13.02-28.94-28.95-28.94h0Z"/>
      </g>
      <g>
        <path class="cls-21" d="M43.11,74.73c-5.15-18.01-7.35-38.43-7.37-38.66-.47-5.98.94-10.65,4.29-14.27,9.31-10.06,33.12-10.91,56.72-10.91,32.8,0,58.71,0,60.67,22.71.08.97,1.66,20.24-3.45,40.17-.65-3.51-2.03-6.42-4.12-8.71-2.19-2.38-11.68-5.23-44.5-5.23-.53,0-52.71.07-58.07,5.92-2.15,2.33-3.54,5.33-4.17,8.97Z"/>
        <path class="cls-24" d="M96.74,12.9c35.26,0,56.95,1.01,58.67,20.88.07.85,1.29,15.83-1.92,32.86-.62-1.06-1.34-2.03-2.16-2.93-1.33-1.45-5.39-5.88-45.98-5.88-13,0-26.54.53-37.15,1.45-19.23,1.67-21.29,3.91-22.4,5.12-.94,1.02-1.75,2.16-2.43,3.4-3.49-14.25-5.34-28.64-5.62-31.88-.42-5.39.81-9.57,3.76-12.76,8.76-9.47,32.09-10.26,55.24-10.26M96.74,8.88c-34.8,0-64.99,1.93-63.01,27.35.07.86,3.32,30.51,11.13,50.02.04.1.12.14.21.14.12,0,.25-.1.22-.26-1.03-6.34-1.09-14.05,3.47-19.01,2.93-3.2,30.95-5.26,56.59-5.26,20.82,0,40.06,1.36,43.01,4.57,4.86,5.3,4.47,13.68,3.26,20.22-.01.06.04.1.09.1.03,0,.06-.02.08-.05,10.01-23.87,7.73-52.03,7.63-53.27-2.12-24.55-30.05-24.55-62.67-24.55h0Z"/>
      </g>
      <text class="cls-25" transform="translate(63.13 44.6) scale(.81 1)"><tspan class="cls-34" x="0" y="0">V</tspan><tspan class="cls-32" x="20.63" y="0">isit!</tspan></text>
      <g>
        <line class="cls-16" x1="122.84" y1="237.96" x2="128.16" y2="237.96"/>
        <line class="cls-16" x1="134" y1="237.96" x2="139.31" y2="237.96"/>
        <line class="cls-16" x1="145.95" y1="237.96" x2="151.27" y2="237.96"/>
        <line class="cls-16" x1="157.91" y1="237.96" x2="163.23" y2="237.96"/>
        <path class="cls-16" d="M168.68,240.37l3.97-2.41c.18-.12.15-.69-.06-.77l-4.51-1.64"/>
        <line class="cls-16" x1="76.34" y1="237.96" x2="81.65" y2="237.96"/>
        <line class="cls-16" x1="87.49" y1="237.96" x2="92.81" y2="237.96"/>
        <line class="cls-16" x1="99.44" y1="237.96" x2="104.76" y2="237.96"/>
        <line class="cls-16" x1="111.4" y1="237.96" x2="116.72" y2="237.96"/>
        <line class="cls-16" x1="28.99" y1="237.96" x2="34.31" y2="237.96"/>
        <line class="cls-16" x1="40.14" y1="237.96" x2="45.46" y2="237.96"/>
        <line class="cls-16" x1="52.1" y1="237.96" x2="57.42" y2="237.96"/>
        <line class="cls-16" x1="64.06" y1="237.96" x2="69.38" y2="237.96"/>
      </g>
      <g>
        <g>
          <rect class="cls-6" x="12.49" y="140.44" width="20.12" height="22.09" rx="2.88" ry="2.88"/>
          <rect class="cls-6" x="74.89" y="140.44" width="20.12" height="22.09" rx="2.92" ry="2.92"/>
        </g>
        <rect class="cls-15" x="34.43" y="144.19" width="38.64" height="39.19" rx="8.9" ry="8.9"/>
        <rect class="cls-2" x="20.92" y="105.52" width="65.66" height="66.59" rx="11.11" ry="11.11"/>
        <rect class="cls-28" x="29.37" y="112.84" width="48.76" height="51.96" rx="6.46" ry="6.46"/>
        <rect class="cls-17" x="31.72" y="113.92" width="43.52" height="47.76" rx="5.07" ry="5.07"/>
        <path class="cls-8" d="M14.61,187.22l-10.79,3.93c-.91.32-1.89,0-2.47-.71v-15.52l7.89-2.87c1.14-.41,2.42.2,2.83,1.36l3.88,10.94c.41,1.16-.19,2.45-1.34,2.87Z"/>
        <rect class="cls-31" x="42.43" y="118.75" width="6.75" height="18.51" rx="3.03" ry="3.03"/>
        <rect class="cls-31" x="58.77" y="118.75" width="6.75" height="18.51" rx="3.03" ry="3.03"/>
        <path class="cls-11" d="M47.23,146.96c1.26,2.52,3.53,8.26,6.25,8.29,3.68.03,6.05-8,6.25-8.29"/>
        <rect class="cls-33" x="14.72" y="155.25" width="2.18" height="3.76" rx=".95" ry=".95"/>
        <rect class="cls-33" x="90.06" y="155.25" width="2.18" height="3.76" rx=".95" ry=".95"/>
        <path class="cls-33" d="M7.82,174.99l.33-.14c.59-.24,1.27.05,1.51.65l.86,2.14c.24.6-.05,1.29-.64,1.53l-.33.14c-.59.24-1.27-.05-1.51-.65l-.86-2.14c-.24-.6.05-1.29.64-1.53Z"/>
        <g>
          <path class="cls-8" d="M102.84,198.29l-11.25-2.22c-1.2-.24-1.98-1.42-1.75-2.63l2.19-11.41c.23-1.21,1.4-2.01,2.6-1.78l11.25,2.22c1.2.24,1.98,1.42,1.75,2.63l-2.19,11.41c-.23,1.21-1.4,2.01-2.6,1.78Z"/>
          <path class="cls-33" d="M95.63,183.49l.38.07c.65.13,1.08.77.95,1.43l-.45,2.33c-.13.66-.76,1.09-1.41.96l-.38-.07c-.65-.13-1.08-.77-.95-1.43l.45-2.33c.13-.66.76-1.09,1.41-.96Z"/>
        </g>
        <rect class="cls-33" x="69.55" y="103.69" width="3.15" height="11.55" rx="1.5" ry="1.5" transform="translate(-38.34 180.58) rotate(-90)"/>
        <path class="cls-17" d="M55.07,119.47c.51,3.02,1.87,3.97,2.34,4.24,4.26,2.5,12.54-5.19,11.78-6.86-.41-.91-3.78-.68-14.12,2.62Z"/>
        <path class="cls-17" d="M51.56,119.47c-.51,3.02-1.87,3.97-2.34,4.24-4.26,2.5-12.54-5.19-11.78-6.86.41-.91,3.78-.68,14.12,2.62Z"/>
        <rect class="cls-30" x="65.45" y="166.89" width="3.66" height="1.16" rx=".57" ry=".57"/>
        <rect class="cls-30" x="70.37" y="166.89" width="3.66" height="1.16" rx=".57" ry=".57"/>
        <rect class="cls-30" x="67.64" y="168.86" width="3.66" height="1.16" rx=".57" ry=".57"/>
        <ellipse class="cls-17" cx="33.39" cy="106.18" rx="32.98" ry="9.91" transform="translate(-46.74 28.92) rotate(-28.59)"/>
        <ellipse class="cls-22" cx="29.46" cy="100.64" rx="16.42" ry="6.55" transform="translate(-44.64 26.45) rotate(-28.65)"/>
      </g>
      <g>
        <path class="cls-4" d="M191.65,183.42v7.61c-2.97-.06-5.92-.12-8.89-.18-3.59-.08-7.17-.15-10.76-.23-.31,0-.61-.01-.92-.01-2.69-.06-5.37-.12-8.06-.17-.71-.02-1.41-.03-2.12-.05-1.44-.03-2.87-.05-4.3-.08-3.94-.09-7.88-.17-11.82-.25-1.85-.04-3.71-.07-5.57-.11-.39-.01-.79-.02-1.18-.03-2.17-.04-4.34-.09-6.51-.13-.84-.02-1.67-.04-2.51-.05-4.22-.09-8.42-.18-12.64-.27-3.78-.07-7.58-.15-11.36-.23,2.14-3.74,4.27-7.49,6.4-11.23,1.8-3.16,3.6-6.31,5.4-9.47.44-.78.9-1.57,1.34-2.35.44.26.94.54,1.48.84.04.02.09.05.14.07.18.11.36.21.56.31.84.45,1.77.93,2.81,1.41,3.25,1.54,7.43,3.18,12.36,4.37,4.42,1.06,9.46,1.77,15,1.72.83,0,1.65-.03,2.45-.07,4.81-.23,9.18-1,13.04-2.03,6.54-1.74,11.62-4.22,14.89-6.06.08-.05.16-.09.24-.14.26-.14.5-.28.74-.42.23.41.46.81.69,1.22,2.44,4.3,4.88,8.61,7.32,12.91.58,1.03,1.17,2.07,1.76,3.1Z"/>
        <g>
          <g>
            <rect class="cls-1" x="127.83" y="89.82" width="44.11" height="40.87" rx="9.81" ry="9.81"/>
            <ellipse class="cls-23" cx="151.07" cy="128.42" rx="35.74" ry="20.94"/>
          </g>
          <path class="cls-17" d="M118.52,136.3c0-13.44,14.55-24.33,32.49-24.33s33.56,11.67,29.13,24.33h-61.62Z"/>
          <rect class="cls-19" x="154.17" y="94.36" width="10.99" height="2.81" rx="1.39" ry="1.39"/>
        </g>
        <g>
          <ellipse class="cls-14" cx="124.16" cy="179.17" rx="12.79" ry="12.98"/>
          <ellipse class="cls-14" cx="177.16" cy="179.17" rx="12.79" ry="12.98"/>
        </g>
        <ellipse class="cls-9" cx="150.66" cy="160.65" rx="31.04" ry="31.51"/>
        <g>
          <path class="cls-3" d="M119.77,167.11c1.45-1.61,12.98,13.13,31.01,13.03,17.9-.1,29.13-14.75,30.73-13.03,1.87,2.02-10.15,25.75-29.73,26.33-20.4.61-33.75-24.39-32.01-26.33Z"/>
          <path class="cls-21" d="M134.48,175.55c-2.38-1.21,6.13,8.62,14.28,12.06,6.86,2.89,17.18-9.98,18.76-12.47.63-1-6.19,3.76-15.95,4.09-10.06.34-15.78-3.02-17.09-3.68Z"/>
          <ellipse class="cls-12" cx="107.67" cy="187.62" rx="8.19" ry="8.32"/>
          <ellipse class="cls-12" cx="164.37" cy="187.62" rx="8.19" ry="8.32"/>
        </g>
        <g>
          <g>
            <ellipse class="cls-13" cx="134.48" cy="135.6" rx="15.77" ry="16.01"/>
            <ellipse class="cls-5" cx="134.68" cy="136.97" rx="8.42" ry="8.55"/>
            <ellipse class="cls-10" cx="139.79" cy="132.21" rx="4.69" ry="4.76"/>
          </g>
          <g>
            <ellipse class="cls-13" cx="166.84" cy="135.6" rx="15.77" ry="16.01"/>
            <ellipse class="cls-5" cx="167.04" cy="136.97" rx="8.42" ry="8.55"/>
            <ellipse class="cls-10" cx="172.16" cy="132.21" rx="4.69" ry="4.76"/>
          </g>
        </g>
        <path class="cls-20" d="M169.57,184.66c-.26.65-2.54.18-3.8-.33s-3.15-1.81-2.89-2.46,2.56-.41,3.82.1,3.13,2.04,2.88,2.69Z"/>
        <path class="cls-20" d="M113.07,184.66c-.26.65-2.54.18-3.8-.33s-3.15-1.81-2.89-2.46,2.56-.41,3.82.1,3.13,2.04,2.88,2.69Z"/>
        <path class="cls-18" d="M109.72,118.01c9.61,4.9,18.11,7.11,23.82,8.2,4.52.87,14.32,2.74,16.7,0,.83-.95.47-2.12.41-2.29-1.52-4.91-25.07-5.82-40.94-5.91Z"/>
        <path class="cls-18" d="M191.7,120.81c-10.53,5.05-19.62,6.74-25.56,7.38-3.38.36-11.92,1.28-13.32-.98-1.1-1.79,2.77-4.71,3.27-5.09,9.16-6.91,29.81-2.63,35.61-1.31Z"/>
        <path class="cls-7" d="M138.33,163.55c.84,4.85,7.73,9.03,10.76,10.65.89.48,1.94.55,2.89.18,3.36-1.33,11.41-5.03,12.55-10.33"/>
        <path class="cls-27" d="M141.29,161.43c.33.7-1.73,2.23-3.07,2.89s-3.78,1.24-4.11.54,1.56-2.42,2.91-3.08,3.95-1.05,4.28-.35Z"/>
        <path class="cls-27" d="M168.84,164.69c-.28.72-2.79.21-4.18-.35s-3.45-1.99-3.17-2.72,2.81-.47,4.2.1,3.43,2.25,3.15,2.97Z"/>
      </g>
    </g>
  </g>
</svg>