<?xml version="1.0" encoding="UTF-8"?>
<svg id="Layer_2" data-name="Layer 2" xmlns="http://www.w3.org/2000/svg" viewBox="0 0 193.14 257.41">
  <defs>
    <style>
      .cls-1 {
        fill: #3c9ba2;
      }

      .cls-1, .cls-2, .cls-3, .cls-4, .cls-5, .cls-6, .cls-7, .cls-8, .cls-9, .cls-10, .cls-11, .cls-12, .cls-13, .cls-14, .cls-15 {
        stroke-miterlimit: 10;
      }

      .cls-1, .cls-2, .cls-3, .cls-4, .cls-6, .cls-10, .cls-11, .cls-12, .cls-15 {
        stroke: #201d1d;
      }

      .cls-1, .cls-5, .cls-9, .cls-10 {
        stroke-width: 2.28px;
      }

      .cls-2 {
        fill: #fffb3b;
      }

      .cls-2, .cls-13 {
        stroke-width: .5px;
      }

      .cls-16 {
        fill: #b6000e;
      }

      .cls-3, .cls-4, .cls-6, .cls-7, .cls-8, .cls-11, .cls-12, .cls-15 {
        stroke-width: 1.33px;
      }

      .cls-17 {
        fill: #3ebda3;
      }

      .cls-4, .cls-7, .cls-9, .cls-13 {
        fill: none;
      }

      .cls-5 {
        fill: #357ba3;
        stroke: #060606;
      }

      .cls-18 {
        fill: #21f337;
      }

      .cls-6 {
        fill: #169e27;
      }

      .cls-19 {
        fill: #fc2915;
      }

      .cls-7, .cls-14 {
        stroke: #000;
      }

      .cls-20 {
        fill: #3468a0;
      }

      .cls-8, .cls-21 {
        fill: #fff;
      }

      .cls-8, .cls-13 {
        stroke: #fff;
      }

      .cls-9 {
        stroke: #fff6bd;
      }

      .cls-9, .cls-13 {
        stroke-linecap: round;
      }

      .cls-22 {
        fill: #c6c6c6;
        opacity: .49;
      }

      .cls-23 {
        fill: #ffffe8;
      }

      .cls-24 {
        fill: #37004a;
      }

      .cls-25 {
        fill: #858484;
      }

      .cls-10 {
        fill: #40e1a5;
      }

      .cls-11 {
        fill: #19b42a;
      }

      .cls-26 {
        fill: #fc4218;
      }

      .cls-27 {
        fill: #1bc42e;
      }

      .cls-28 {
        fill: #510006;
      }

      .cls-12 {
        fill: #f5f5f5;
      }

      .cls-29 {
        fill: #262826;
      }

      .cls-30 {
        fill: #99a0ff;
      }

      .cls-31 {
        fill: #2a2a2a;
      }

      .cls-14 {
        fill: #cefffd;
        stroke-width: 1.25px;
      }

      .cls-32 {
        fill: #cccfff;
      }

      .cls-33 {
        fill: #353535;
      }

      .cls-34 {
        fill: #201d1d;
      }

      .cls-35 {
        fill: #fff6bd;
      }

      .cls-15 {
        fill: #1b7627;
      }

      .cls-36 {
        fill: #fff6d1;
      }

      .cls-37 {
        fill: #ed0012;
      }
    </style>
  </defs>
  <g id="Layer_1-2" data-name="Layer 1">
    <g>
      <g>
        <rect class="cls-21" x="2.1" y="2.01" width="189.03" height="253.38" rx="26.94" ry="26.94"/>
        <path class="cls-30" d="M164.2,4.02c13.74,0,24.92,11.18,24.92,24.93v199.51c0,13.74-11.18,24.92-24.92,24.92H29.04c-13.74,0-24.92-11.18-24.92-24.92V28.95C4.11,15.2,15.29,4.02,29.04,4.02h135.16M164.2,0H29.04C13.12,0,.09,13.03.09,28.95v199.51c0,15.92,13.03,28.95,28.95,28.95h135.16c15.92,0,28.95-13.03,28.95-28.95V28.95c0-15.92-13.03-28.95-28.95-28.95h0Z"/>
      </g>
      <g>
        <rect class="cls-32" x="2.1" y="2.01" width="189.03" height="253.38" rx="26.94" ry="26.94"/>
        <path class="cls-24" d="M164.2,4.02c13.74,0,24.92,11.18,24.92,24.93v199.51c0,13.74-11.18,24.92-24.92,24.92H29.04c-13.74,0-24.92-11.18-24.92-24.92V28.95C4.11,15.2,15.29,4.02,29.04,4.02h135.16M164.2,0H29.04C13.12,0,.09,13.03.09,28.95v199.51c0,15.92,13.03,28.95,28.95,28.95h135.16c15.92,0,28.95-13.03,28.95-28.95V28.95c0-15.92-13.03-28.95-28.95-28.95h0Z"/>
      </g>
      <g>
        <g>
          <g>
            <g>
              <rect x="114.87" y="2.18" width="44.63" height="40.73" rx="9.85" ry="9.85" transform="translate(-1.78 26.54) rotate(-10.98)"/>
              <ellipse class="cls-29" cx="142.29" cy="40" rx="39.3" ry="20.87" transform="translate(-5.01 27.83) rotate(-10.98)"/>
            </g>
            <ellipse cx="142.62" cy="38.77" rx="33.68" ry="13.07" transform="translate(-4.77 27.87) rotate(-10.98)"/>
            <g>
              <circle class="cls-15" cx="124.98" cy="89.37" r="12.94" transform="translate(-14.73 25.44) rotate(-10.98)"/>
              <circle class="cls-15" cx="177.63" cy="79.16" r="12.94" transform="translate(-11.82 35.28) rotate(-10.98)"/>
            </g>
            <circle class="cls-6" cx="147.79" cy="66.14" r="31.41"/>
            <path class="cls-34" d="M177.57,76.45c-2.47,7.34-9.47,16.99-23.8,20.52-14.27,3.51-25.3-4.97-30.01-10.6"/>
            <polygon class="cls-31" points="154.92 93.87 159.59 80.47 164.46 79.4 154.92 93.87"/>
            <polyline class="cls-31" points="151.66 94.74 142.93 83.57 138.63 84.41"/>
            <g>
              <circle class="cls-11" cx="139.29" cy="95.17" r="8.29"/>
              <circle class="cls-11" cx="166.53" cy="89.88" r="8.29"/>
            </g>
            <g>
              <g>
                <circle class="cls-12" cx="126.96" cy="44.75" r="15.96"/>
                <circle class="cls-3" cx="127.42" cy="46.05" r="8.52"/>
                <circle class="cls-8" cx="131.6" cy="40.41" r="4.75"/>
              </g>
              <g>
                <circle class="cls-12" cx="159.11" cy="38.51" r="15.96"/>
                <circle class="cls-3" cx="159.57" cy="39.81" r="8.52"/>
                <circle class="cls-8" cx="163.75" cy="34.17" r="4.75"/>
              </g>
            </g>
            <g>
              <path class="cls-4" d="M141.3,75.76c.34,1.42,4.2,1.71,8.62.65"/>
              <path class="cls-4" d="M160.08,67.76c.78,3.24-3.77,7.11-10.16,8.65"/>
            </g>
            <path class="cls-4" d="M165.68,66.44c-1.52-2.41-4.9-3.01-7.55-1.33"/>
            <polygon class="cls-21" points="153.23 94.2 143.81 82.72 157.68 80.03 153.23 94.2"/>
            <circle cx="151.33" cy="83.68" r=".74"/>
            <circle cx="151.92" cy="86.75" r=".74"/>
            <circle cx="152.56" cy="90.05" r=".74"/>
            <path class="cls-27" d="M163.91,66.6c-.06.31-1.1.3-1.69.19s-1.53-.52-1.47-.82,1.08-.4,1.68-.29,1.54.62,1.48.92Z"/>
            <path class="cls-18" d="M171.13,85.99c-.13.69-2.48.67-3.84.41s-3.47-1.17-3.34-1.85,2.46-.89,3.82-.63,3.5,1.39,3.37,2.08Z"/>
            <path class="cls-18" d="M143.6,92.21c-.13.69-2.48.67-3.84.41s-3.47-1.17-3.34-1.85,2.46-.89,3.82-.63,3.5,1.39,3.37,2.08Z"/>
          </g>
          <g>
            <circle class="cls-22" cx="158.79" cy="49.86" r="4.91"/>
            <circle class="cls-7" cx="158.75" cy="49.98" r="4.96"/>
          </g>
        </g>
        <rect class="cls-25" x="137.61" y="3.84" width="11.12" height="2.8" rx="1.4" ry="1.4" transform="translate(1.62 27.36) rotate(-10.98)"/>
      </g>
      <g>
        <g>
          <path class="cls-21" d="M24.68,114.91l2.37,8.95,15.04-1.28-4.91-12.21c2.29-2.64,3.25-5.11,3.25-8.46,0-6.79-1.76-9.87-10.24-9.79l-19.63.22-.04,31.17,13.87.75.28-9.35ZM26.76,103.05c0,2.69-.92,3.26-2.08,3.57l-.07-6.08c1.24.22,2.15.75,2.15,2.51Z"/>
          <polygon class="cls-21" points="56.1 123.81 57.02 92.47 42.12 91.37 42.51 123.24 56.1 123.81"/>
          <path class="cls-21" d="M85.93,115.43c0-4.01-.74-5.6-2.89-7.14,1.91-1.41,2.82-3.44,2.82-8.51,0-6.3-3.07-8.33-10.66-8.16l-16.77.48-.39,31.08,18.43.66c5.68.22,9.46-1.28,9.46-8.42ZM73.29,102.17c0,1.9-.71,2.56-2.01,2.82l-.21-5.55c1.52-.66,2.22-.22,2.22,2.73ZM70.82,116.58l.49-4.94c1.84-.09,2.08.44,2.08,2.2,0,2.38-.64,3.13-2.58,2.73Z"/>
          <path class="cls-21" d="M91.37,122.69c0-3.32,2.16-6.02,4.82-6.02,1.34,0,2.55.68,3.42,1.78.31-.05.62-.08.94-.08,2.16,0,4.09,1.17,5.42,3.03.39-.13.79-.19,1.21-.19,1.38,0,2.63.73,3.51,1.89,2.4-1.04,3.82-3.3,3.82-7.67,0-4.01-.74-5.6-2.89-7.14,1.91-1.41,2.82-3.44,2.82-8.51,0-6.3-3.07-8.33-10.66-8.16l-16.77.48-.39,31.08,4.77.17c-.02-.22-.03-.45-.03-.67ZM101.89,102.17c0,1.9-.71,2.56-2.01,2.82l-.21-5.55c1.52-.66,2.22-.22,2.22,2.73ZM99.91,111.64c1.84-.09,2.08.44,2.08,2.2,0,2.38-.64,3.13-2.58,2.73l.49-4.94Z"/>
          <polygon class="cls-21" points="115.58 123.24 129.17 123.81 130.09 92.47 115.19 91.37 115.58 123.24"/>
          <polygon class="cls-21" points="130.76 103.22 137.4 104.02 136.45 122.97 151.41 123.9 151.31 103.8 157.59 104.24 157.73 92.2 131.05 91.59 130.76 103.22"/>
          <path class="cls-21" d="M174.85,104.19c-3.28-.66-3.49-.79-3.49-1.32s.35-.66,2.19-.66c3.11,0,7.38.79,10.84,1.98l1.62-10.76c-3.53-1.15-7.1-1.81-13.24-1.81-11.26,0-14.23,1.59-14.23,10.18,0,7.54,1.59,9.21,11.79,11.15,1.73.31,2.08.44,2.08,1.06,0,.48-.21.71-.99.71-3.67,0-8.97-1.32-12.53-2.87l-.67,9.83c3.28,1.41,9.07,2.2,13.52,2.2,11.16,0,13.66-2.12,13.66-10.01,0-6.44-1.09-7.71-10.55-9.7Z"/>
        </g>
        <path class="cls-21" d="M37.91,147.42c.66-.96,1-2.15,1-3.57v-10.43c0-1.44-.33-2.64-1-3.59-.66-.95-1.52-1.42-2.57-1.42H11.08v28.73h11.06v-8.27h2.83l2.86,8.27h11.6l-3.25-8.38c.68-.19,1.26-.63,1.74-1.33ZM27.34,141.24c-.24.64-.64.96-1.22.96h-3.99v-7.14h3.99c.58,0,.99.33,1.22.98.24.66.35,1.52.35,2.59s-.12,1.97-.35,2.61Z"/>
        <path class="cls-21" d="M65.59,128.39h-21.21c-1.03,0-1.88.48-2.56,1.42-.67.95-1.01,2.15-1.01,3.59v18.7c0,1.42.34,2.61,1.01,3.57s1.53,1.44,2.56,1.44h21.21c1.03,0,1.88-.48,2.56-1.44.67-.96,1.01-2.15,1.01-3.57v-18.7c0-1.44-.34-2.64-1.01-3.59-.68-.95-1.53-1.42-2.56-1.42ZM57.91,147.86c0,.94-.26,1.6-.77,1.99-.51.39-1.22.58-2.12.58s-1.65-.2-2.19-.6c-.54-.4-.8-1.07-.8-2.01v-10.15c0-.94.26-1.6.79-1.99.52-.39,1.24-.58,2.14-.58s1.64.2,2.17.6c.52.4.79,1.07.79,2.01v10.15Z"/>
        <path class="cls-21" d="M96.09,142.44v-.4c1.01-.08,1.79-.49,2.36-1.24.57-.75.85-1.81.85-3.17v-1.09c-.27.08-.55.12-.83.12-1.76,0-3.24-1.53-3.63-3.59-.83-1.31-1.37-2.92-1.51-4.67h-21.85v28.73h24.88c.94,0,1.71-.43,2.31-1.28.6-.86.9-1.94.9-3.25v-5.58c0-1.42-.31-2.51-.93-3.29-.62-.78-1.47-1.2-2.54-1.28ZM82.52,134.49h4.44c.47,0,.81.21,1.01.62.2.42.31,1.01.31,1.79,0,.72-.1,1.3-.31,1.75-.2.44-.54.66-1.01.66h-4.44v-4.82ZM88.13,150.31c-.18.48-.54.72-1.08.72h-4.53v-5.26h4.53c.54,0,.89.23,1.08.68.18.46.27,1.1.27,1.93s-.09,1.44-.27,1.93Z"/>
        <path class="cls-21" d="M126.07,128.39h-14.15c-.43,2.77-2.39,4.85-4.73,4.85-.33,0-.65-.04-.96-.12-1.19,1.85-2.95,3.11-4.94,3.36v15.62c0,1.42.34,2.61,1.01,3.57s1.53,1.44,2.56,1.44h21.21c1.03,0,1.88-.48,2.55-1.44.68-.96,1.01-2.15,1.01-3.57v-18.7c0-1.44-.34-2.64-1.01-3.59-.67-.95-1.53-1.42-2.55-1.42ZM118.39,147.86c0,.94-.26,1.6-.77,1.99-.51.39-1.22.58-2.12.58s-1.65-.2-2.19-.6c-.54-.4-.8-1.07-.8-2.01v-10.15c0-.94.26-1.6.79-1.99.52-.39,1.24-.58,2.14-.58s1.64.2,2.17.6c.52.4.79,1.07.79,2.01v10.15Z"/>
        <polygon class="cls-21" points="130.86 136.86 138.19 136.86 138.19 157.13 149.44 157.13 149.44 136.86 156.76 136.86 156.76 128.39 130.86 128.39 130.86 136.86"/>
        <path class="cls-21" d="M181.74,128.39h-20.31c-1.03,0-1.88.48-2.55,1.42-.68.95-1.01,2.15-1.01,3.59v7.5c0,1.44.34,2.62,1.01,3.53.67.91,1.56,1.43,2.65,1.57l10.67,1.16c.79.08,1.33.29,1.61.64.28.35.42.86.42,1.52,0,.62-.18,1.13-.55,1.55-.36.42-1.06.62-2.09.62s-1.71-.2-2.12-.6c-.41-.4-.61-.95-.61-1.65v-1h-11.02v3.85c0,1.42.34,2.61,1.01,3.57.67.96,1.53,1.44,2.56,1.44h20.31c1.05,0,1.91-.48,2.57-1.44.66-.96,1-2.15,1-3.57v-7.54c0-1.5-.33-2.72-1-3.67-.66-.95-1.54-1.48-2.64-1.59l-11.02-1.16c-.66-.08-1.11-.29-1.33-.64-.23-.35-.34-.82-.34-1.4s.18-1.12.55-1.5c.36-.39,1.06-.58,2.09-.58s1.71.2,2.11.6c.4.4.59.95.59,1.65v1h11.02v-3.85c0-1.44-.34-2.64-1.01-3.59-.67-.95-1.53-1.42-2.56-1.42Z"/>
        <path class="cls-21" d="M102.55,131.54l.77.98,1.82-1.67-1.05-1.27c.22-.36.43-.76.64-1.18.17-.33.33-.69.5-1.06l-1.75-1.02c-.26.57-.5,1.12-.78,1.57l-.77-.93c.94-.61,1.54-1.56,1.54-2.77v-.03c0-.12,0-.24-.02-.36-.15-1.4-1.14-2.42-2.66-2.42-1.42,0-2.41.96-2.68,2.23-.05.24-.08.48-.08.74v.03c0,.66.15,1.3.53,1.99-.96.52-1.5,1.25-1.71,2.14-.07.28-.1.58-.1.89v.03c0,1.73,1.05,2.79,2.55,3.03.22.04.45.05.68.05.5,0,.97-.09,1.41-.26.41-.16.8-.39,1.17-.71ZM100.38,130.07c-.49,0-.81-.34-.81-.86v-.03c0-.34.12-.66.43-.93l1.19,1.51c-.27.18-.55.31-.81.31ZM101.35,124.34c0,.46-.2.9-.67,1.21-.24-.41-.38-.75-.38-1.12v-.03c0-.33.1-.58.27-.71.08-.06.17-.1.27-.1.12,0,.22.04.3.12.13.12.21.33.21.6v.03Z"/>
      </g>
      <g>
        <g>
          <path d="M23.82,117.12l2.34,8.78,14.88-1.25-4.85-11.98c2.27-2.59,3.21-5.02,3.21-8.3,0-6.66-1.75-9.69-10.13-9.6l-19.42.22-.04,30.57,13.72.74.28-9.17ZM25.88,105.49c0,2.64-.91,3.2-2.06,3.5l-.07-5.97c1.22.22,2.13.74,2.13,2.46Z"/>
          <polygon points="54.9 125.86 55.81 95.11 41.07 94.03 41.45 125.3 54.9 125.86"/>
          <path d="M84.41,117.64c0-3.94-.73-5.49-2.86-7.01,1.89-1.38,2.79-3.37,2.79-8.35,0-6.18-3.04-8.17-10.55-8l-16.59.48-.38,30.49,18.23.65c5.62.22,9.36-1.25,9.36-8.26ZM71.91,104.63c0,1.86-.7,2.51-1.99,2.77l-.21-5.45c1.5-.65,2.2-.22,2.2,2.68ZM69.46,118.77l.49-4.84c1.82-.09,2.06.43,2.06,2.16,0,2.34-.63,3.07-2.55,2.68Z"/>
          <path d="M89.8,124.76c0-3.26,2.13-5.9,4.77-5.9,1.32,0,2.52.67,3.39,1.75.31-.05.62-.08.93-.08,2.13,0,4.05,1.15,5.36,2.97.38-.12.79-.19,1.2-.19,1.37,0,2.6.71,3.47,1.86,2.38-1.02,3.78-3.23,3.78-7.53,0-3.94-.73-5.49-2.86-7.01,1.89-1.38,2.79-3.37,2.79-8.35,0-6.18-3.04-8.17-10.55-8l-16.59.48-.38,30.49,4.72.17c-.02-.22-.03-.44-.03-.66ZM100.2,104.63c0,1.86-.7,2.51-1.99,2.77l-.21-5.45c1.5-.65,2.2-.22,2.2,2.68ZM98.24,113.92c1.82-.09,2.06.43,2.06,2.16,0,2.34-.63,3.07-2.55,2.68l.49-4.84Z"/>
          <polygon points="113.75 125.3 127.19 125.86 128.1 95.11 113.36 94.03 113.75 125.3"/>
          <polygon points="128.76 105.66 135.33 106.44 134.39 125.04 149.19 125.95 149.09 106.23 155.31 106.66 155.45 94.85 129.04 94.25 128.76 105.66"/>
          <path d="M172.38,106.61c-3.25-.65-3.46-.78-3.46-1.3s.35-.65,2.17-.65c3.07,0,7.3.78,10.72,1.95l1.61-10.55c-3.49-1.12-7.02-1.77-13.1-1.77-11.14,0-14.07,1.56-14.07,9.99,0,7.39,1.57,9.04,11.66,10.94,1.71.3,2.06.43,2.06,1.04,0,.48-.21.69-.98.69-3.63,0-8.87-1.3-12.4-2.81l-.66,9.64c3.25,1.38,8.98,2.16,13.38,2.16,11.04,0,13.52-2.08,13.52-9.82,0-6.31-1.08-7.57-10.44-9.51Z"/>
        </g>
        <path d="M36.91,149.02c.66-.94.99-2.11.99-3.5v-10.24c0-1.42-.33-2.59-.99-3.52-.66-.93-1.51-1.4-2.54-1.4H10.36v28.19h10.94v-8.11h2.8l2.83,8.11h11.48l-3.21-8.22c.67-.19,1.25-.62,1.72-1.3ZM26.45,142.95c-.23.63-.64.94-1.21.94h-3.94v-7.01h3.94c.57,0,.97.32,1.21.96.23.64.35,1.49.35,2.54s-.12,1.93-.35,2.56Z"/>
        <path d="M64.29,130.36h-20.98c-1.02,0-1.86.47-2.53,1.4-.67.93-1,2.11-1,3.52v18.35c0,1.39.33,2.56,1,3.5s1.51,1.42,2.53,1.42h20.98c1.02,0,1.86-.47,2.53-1.42.67-.94,1-2.11,1-3.5v-18.35c0-1.42-.33-2.59-1-3.52-.67-.93-1.51-1.4-2.53-1.4ZM56.69,149.45c0,.92-.25,1.57-.76,1.95-.51.38-1.21.57-2.1.57s-1.63-.2-2.16-.59c-.53-.39-.79-1.05-.79-1.97v-9.96c0-.92.26-1.57.78-1.95.52-.38,1.22-.57,2.11-.57s1.63.2,2.15.59c.52.39.78,1.05.78,1.97v9.96Z"/>
        <path d="M94.46,144.14v-.39c1-.08,1.77-.49,2.34-1.22.56-.73.84-1.77.84-3.11v-1.07c-.27.08-.54.12-.83.12-1.75,0-3.21-1.5-3.59-3.52-.82-1.29-1.36-2.86-1.5-4.58h-21.62v28.19h24.61c.93,0,1.7-.42,2.29-1.26.59-.84.89-1.9.89-3.19v-5.47c0-1.39-.31-2.47-.92-3.23-.62-.76-1.45-1.18-2.51-1.26ZM81.04,136.34h4.39c.47,0,.8.2,1,.61.2.41.3.99.3,1.75,0,.71-.1,1.28-.3,1.71-.2.43-.54.65-1,.65h-4.39v-4.72ZM86.59,151.85c-.18.47-.54.71-1.07.71h-4.48v-5.16h4.48c.53,0,.88.22,1.07.67.18.45.27,1.08.27,1.89s-.09,1.42-.27,1.89Z"/>
        <path d="M124.12,130.36h-14c-.43,2.71-2.36,4.76-4.68,4.76-.32,0-.64-.04-.95-.12-1.18,1.82-2.92,3.05-4.89,3.3v15.32c0,1.39.33,2.56,1,3.5s1.51,1.42,2.53,1.42h20.98c1.02,0,1.86-.47,2.53-1.42.67-.94,1-2.11,1-3.5v-18.35c0-1.42-.33-2.59-1-3.52-.67-.93-1.51-1.4-2.53-1.4ZM116.52,149.45c0,.92-.25,1.57-.76,1.95-.51.38-1.21.57-2.1.57s-1.63-.2-2.16-.59c-.53-.39-.79-1.05-.79-1.97v-9.96c0-.92.26-1.57.78-1.95.52-.38,1.22-.57,2.11-.57s1.63.2,2.15.59c.52.39.78,1.05.78,1.97v9.96Z"/>
        <polygon points="128.86 138.66 136.11 138.66 136.11 158.55 147.24 158.55 147.24 138.66 154.49 138.66 154.49 130.36 128.86 130.36 128.86 138.66"/>
        <path d="M179.19,130.36h-20.09c-1.02,0-1.86.47-2.53,1.4-.67.93-1,2.11-1,3.52v7.36c0,1.42.33,2.57,1,3.46.67.89,1.54,1.4,2.62,1.54l10.56,1.14c.78.08,1.31.29,1.59.63.28.34.41.84.41,1.5,0,.6-.18,1.11-.54,1.52-.36.41-1.05.61-2.07.61s-1.7-.2-2.1-.59c-.4-.39-.6-.93-.6-1.61v-.98h-10.91v3.78c0,1.39.33,2.56,1,3.5.67.94,1.51,1.42,2.53,1.42h20.09c1.04,0,1.89-.47,2.54-1.42.66-.94.99-2.11.99-3.5v-7.4c0-1.47-.33-2.67-.99-3.6-.66-.93-1.53-1.45-2.61-1.56l-10.91-1.14c-.66-.08-1.1-.29-1.32-.63-.22-.34-.33-.8-.33-1.38s.18-1.1.54-1.48c.36-.38,1.05-.57,2.07-.57s1.69.2,2.08.59c.39.39.59.93.59,1.61v.98h10.91v-3.78c0-1.42-.33-2.59-1-3.52-.67-.93-1.51-1.4-2.53-1.4Z"/>
        <path d="M100.85,133.44l.76.96,1.8-1.63-1.04-1.24c.22-.35.43-.74.64-1.16.16-.33.33-.67.49-1.04l-1.73-1c-.25.55-.5,1.09-.77,1.54l-.76-.91c.93-.6,1.53-1.53,1.53-2.71v-.03c0-.12,0-.24-.02-.36-.14-1.38-1.12-2.37-2.63-2.37-1.41,0-2.38.94-2.66,2.18-.05.23-.08.47-.08.72v.03c0,.64.15,1.27.52,1.95-.95.51-1.49,1.23-1.69,2.1-.07.28-.1.57-.1.87v.03c0,1.7,1.04,2.74,2.52,2.98.22.03.44.05.67.05.5,0,.96-.08,1.39-.25.41-.16.8-.39,1.16-.69ZM98.71,132c-.48,0-.8-.33-.8-.84v-.03c0-.33.12-.64.42-.91l1.17,1.48c-.27.18-.54.3-.8.3ZM99.67,126.38c0,.45-.19.88-.67,1.18-.24-.4-.38-.73-.38-1.09v-.03c0-.32.1-.57.26-.7.08-.06.17-.1.27-.1.12,0,.22.04.3.12.13.12.21.32.21.59v.03Z"/>
      </g>
      <g>
        <path class="cls-14" d="M43.9,156.37h37.87c13.25,0,24,10.75,24,24v52.77H19.9v-52.77c0-13.25,10.75-24,24-24Z" transform="translate(18.03 -4.92) rotate(5.24)"/>
        <path class="cls-26" d="M105.09,226.34l-1.68,2.02c-.06.07-.1.16-.11.26l-.37,4.45c-.02.24.15.46.39.5l1.25.2c.22.03.44-.09.51-.31l1.52-4.32c.03-.09.04-.2,0-.29l-.72-2.34c-.11-.35-.57-.45-.8-.16Z"/>
        <path class="cls-19" d="M107.92,229.46l-1.87.34c-.1.02-.19.08-.25.16l-2.18,3.01c-.1.14-.1.33,0,.47l.73,1.03c.13.18.39.22.57.09l2.71-2.05c.07-.05.12-.13.15-.22l.61-2.33c.07-.28-.17-.55-.46-.5Z"/>
        <path class="cls-19" d="M101.95,228.27l-.86,2.29c-.04.1-.04.21,0,.3l1.27,3.24c.08.21.32.32.53.25l1.36-.46c.18-.06.3-.23.29-.42l-.19-3.69c0-.11-.06-.22-.14-.3l-1.58-1.38c-.22-.19-.57-.11-.68.17Z"/>
        <path class="cls-37" d="M110.73,231.71l-2.34-.21c-.08,0-.17,0-.24.05l-3.75,2.02c-.19.1-.27.34-.19.54l.41,1.01c.08.2.3.3.5.25l4.15-1.09c.08-.02.16-.07.21-.13l1.52-1.73c.23-.26.07-.67-.28-.71Z"/>
        <path class="cls-37" d="M98.15,229.55l.9,2.34c.03.07.08.14.14.19l3.36,2.54c.19.14.46.1.6-.09l.64-.86c.12-.16.11-.37-.01-.52l-2.83-3.43c-.05-.07-.13-.11-.21-.14l-2.08-.59c-.34-.1-.64.23-.51.56Z"/>
        <path class="cls-16" d="M95.74,231.72l1.87,2.04c.06.06.13.11.21.13l4.7,1.48c.25.08.51-.06.59-.31l.34-1.05c.07-.21-.02-.45-.22-.56l-4.45-2.55c-.08-.04-.16-.07-.25-.06l-2.47.09c-.41.01-.61.5-.33.8Z"/>
        <path class="cls-16" d="M112.24,235.05l-2.41-1.22c-.08-.04-.16-.06-.25-.05l-4.93.32c-.25.02-.45.23-.44.48v1.11c.02.23.19.43.42.46l5,.78c.09.01.18,0,.26-.03l2.33-.99c.37-.16.39-.68.03-.86Z"/>
        <rect class="cls-28" x="95.06" y="234.44" width="13.76" height="9.73" rx="2.99" ry="2.99" transform="translate(70.99 -18.96) rotate(16.24)"/>
        <g>
          <rect class="cls-10" x="21.11" y="174.33" width="20.69" height="22.4" rx="2.94" ry="2.94" transform="translate(17.06 -2.1) rotate(5.24)"/>
          <rect class="cls-10" x="85.02" y="180.18" width="20.69" height="22.4" rx="2.98" ry="2.98" transform="translate(17.86 -7.9) rotate(5.24)"/>
        </g>
        <rect class="cls-5" x="40.73" y="196.71" width="39.74" height="39.74" rx="9.09" ry="9.09" transform="translate(20.01 -4.63) rotate(5.24)"/>
        <rect class="cls-1" x="29.15" y="157.6" width="67.53" height="67.53" rx="11.35" ry="11.35" transform="translate(17.72 -4.94) rotate(5.24)"/>
        <rect class="cls-17" x="37.84" y="165.02" width="50.15" height="52.69" rx="6.6" ry="6.6" transform="translate(17.72 -4.94) rotate(5.24)"/>
        <rect class="cls-33" x="40.36" y="166.09" width="44.76" height="48.43" rx="5.17" ry="5.17" transform="translate(17.63 -4.93) rotate(5.24)"/>
        <circle class="cls-20" cx="73.38" cy="222.09" r="1.47"/>
        <circle class="cls-20" cx="78.53" cy="222.56" r="1.47"/>
        <circle class="cls-20" cx="83.68" cy="223.03" r="1.47"/>
        <rect class="cls-1" x="2.43" y="221.97" width="16.34" height="16.34" rx="2.28" ry="2.28" transform="translate(-57.33 10) rotate(-14.51)"/>
        <rect class="cls-1" x="92" y="237.24" width="16.34" height="16.34" rx="2.28" ry="2.28" transform="translate(72.62 -18.22) rotate(16.24)"/>
        <rect class="cls-35" x="52.31" y="170.31" width="6.95" height="18.77" rx="3.09" ry="3.09" transform="translate(16.63 -4.34) rotate(5.24)"/>
        <rect class="cls-35" x="69.04" y="171.84" width="6.95" height="18.77" rx="3.09" ry="3.09" transform="translate(16.84 -5.86) rotate(5.24)"/>
        <path class="cls-9" d="M55.02,199.99c2.83,4.31,9.32,5.04,14.52,1.63"/>
        <rect class="cls-36" x="24.51" y="176.21" width="2.24" height="3.81" rx=".97" ry=".97" transform="translate(16.36 -1.6) rotate(5.24)"/>
        <rect class="cls-36" x="101.67" y="183.28" width="2.24" height="3.81" rx=".97" ry=".97" transform="translate(17.33 -8.61) rotate(5.24)"/>
        <rect class="cls-36" x="12.01" y="223.43" width="2.75" height="4.73" rx="1.19" ry="1.19" transform="translate(91.72 437.99) rotate(163.13)"/>
        <rect class="cls-36" x="96.08" y="238.34" width="2.87" height="4.88" rx="1.24" ry="1.24" transform="translate(123.82 499.23) rotate(-163.76)"/>
        <rect class="cls-36" x="81.82" y="157.41" width="3.2" height="11.87" rx="1.53" ry="1.53" transform="translate(-86.85 231.51) rotate(-84.76)"/>
        <path class="cls-28" d="M103.73,236.69l-.17-.02c-.94-.13-1.62-.97-1.51-1.87l.06-.46c.11-.9.98-1.53,1.92-1.39l.17.02c.94.13,1.62.97,1.51,1.87l-.06.46c-.11.9-.98,1.53-1.92,1.39Z"/>
        <g>
          <path class="cls-2" d="M24.17,179.97l.46-3.1c.02-.14.09-.27.2-.36l3.57-2.98c.23-.19.58-.18.79.04l1.27,1.31c.18.19.22.48.07.71l-2.58,4.13c-.08.13-.21.22-.36.26l-2.71.64c-.4.09-.76-.24-.71-.65Z"/>
          <path class="cls-2" d="M22.58,172.32l2.83-1.17c.12-.05.25-.06.37-.02l4.62,1.34c.29.08.46.38.39.67l-.36,1.6c-.06.26-.29.44-.55.44l-5.02.03c-.14,0-.27-.05-.37-.14l-2.08-1.8c-.32-.28-.24-.79.15-.95Z"/>
          <path class="cls-2" d="M30.63,182l-1.71-2.55c-.07-.11-.11-.23-.09-.36l.4-4.8c.02-.3.28-.53.58-.52l1.64.04c.26,0,.49.19.54.45l1.02,4.91c.03.13,0,.27-.06.39l-1.35,2.39c-.21.37-.73.39-.96.04Z"/>
          <path class="cls-2" d="M37.46,178.36l-3.13.17c-.14,0-.28-.04-.39-.13l-3.62-2.91c-.24-.19-.29-.53-.11-.78l1.04-1.5c.15-.22.43-.31.68-.21l4.56,1.71c.14.05.26.16.32.3l1.16,2.53c.17.37-.09.8-.5.82Z"/>
          <path class="cls-2" d="M37.03,169.68l-1.08,2.87c-.05.12-.13.22-.24.29l-4.14,2.46c-.26.15-.59.08-.76-.17l-.92-1.35c-.15-.22-.13-.51.05-.7l3.41-3.68c.09-.1.22-.16.36-.18l2.73-.29c.42-.04.74.37.59.76Z"/>
          <path class="cls-2" d="M30.02,166.33l1.95,2.45c.09.11.13.25.12.39l-.27,4.64c-.02.3-.27.54-.57.55l-1.82.03c-.27,0-.5-.17-.57-.43l-1.25-4.71c-.04-.15-.02-.3.06-.44l1.39-2.42c.2-.35.7-.39.95-.07Z"/>
          <ellipse cx="30.62" cy="174.5" rx="1.69" ry="1.74" transform="translate(-145.95 189.07) rotate(-84.76)"/>
          <path class="cls-23" d="M31.06,169.28h0c-.13.12-.29.12-.37,0l-.94-1.43c-.08-.12-.03-.31.09-.42h0c.13-.12.29-.12.37,0l.94,1.43c.08.12.03.31-.09.42Z"/>
          <path class="cls-13" d="M31.65,174.03c-.14-.45-.53-.73-.86-.62"/>
          <path class="cls-23" d="M36.12,169.97h0c.17.04.26.17.21.3l-.63,1.59c-.05.13-.23.2-.4.17h0c-.17-.04-.26-.17-.21-.3l.63-1.59c.05-.13.23-.2.4-.17Z"/>
        </g>
        <path class="cls-23" d="M105.91,228.08h0c-.1.03-.2-.04-.22-.14l-.15-.7c-.02-.11.04-.21.14-.24h0c.1-.03.2.04.22.14l.15.7c.02.11-.04.21-.14.24Z"/>
        <path class="cls-23" d="M107.81,230.63l-.07-.03c-.07-.03-.11-.11-.08-.19l.15-.42c.03-.08.11-.11.18-.09l.07.03c.07.03.11.11.08.19l-.15.42c-.03.08-.11.11-.18.09Z"/>
      </g>
    </g>
  </g>
</svg>