<?xml version="1.0" encoding="UTF-8"?>
<svg id="Layer_2" data-name="Layer 2" xmlns="http://www.w3.org/2000/svg" viewBox="0 0 193.24 257.41">
  <defs>
    <style>
      .cls-1, .cls-2, .cls-3 {
        fill: #e3aa70;
      }

      .cls-4 {
        stroke-width: 2.96px;
      }

      .cls-4, .cls-5, .cls-6, .cls-7, .cls-2, .cls-3, .cls-8, .cls-9, .cls-10, .cls-11, .cls-12 {
        stroke-miterlimit: 10;
      }

      .cls-4, .cls-8 {
        stroke: #212121;
      }

      .cls-4, .cls-8, .cls-9, .cls-11, .cls-12 {
        fill: none;
      }

      .cls-4, .cls-8, .cls-11, .cls-12 {
        stroke-linecap: round;
      }

      .cls-5 {
        fill: #262626;
      }

      .cls-5, .cls-7, .cls-2, .cls-3, .cls-9, .cls-10, .cls-11, .cls-12 {
        stroke: #000;
      }

      .cls-5, .cls-8 {
        stroke-width: 1.48px;
      }

      .cls-13 {
        fill: #2b0035;
      }

      .cls-6 {
        stroke: #9c6b34;
        stroke-width: 3px;
      }

      .cls-14 {
        fill: #d09c67;
      }

      .cls-15 {
        fill: #c48e57;
        opacity: .75;
      }

      .cls-16 {
        font-family: MalayalamMN, 'Malayalam MN';
        font-size: 36.24px;
      }

      .cls-16, .cls-17 {
        fill: #fff;
      }

      .cls-7 {
        stroke-width: .76px;
      }

      .cls-18, .cls-19 {
        fill: #37004a;
      }

      .cls-20 {
        fill: #9c6b34;
      }

      .cls-2 {
        stroke-width: 5.34px;
      }

      .cls-3 {
        stroke-width: 5.57px;
      }

      .cls-19 {
        font-family: FuturaBT-ExtraBlack, 'Futura XBlk BT';
        font-size: 24.73px;
        font-weight: 800;
        letter-spacing: .05em;
      }

      .cls-9 {
        stroke-width: 4.44px;
      }

      .cls-10 {
        fill: #3d004d;
        stroke-width: 1.51px;
      }

      .cls-11 {
        stroke-width: 7.4px;
      }

      .cls-12 {
        stroke-width: 5.92px;
      }
    </style>
  </defs>
  <g id="Layer_1-2" data-name="Layer 1">
    <g>
      <g>
        <path class="cls-17" d="M28.95,255.4c-14.85,0-26.94-12.08-26.94-26.94V28.94c0-6.39,2.31-12.6,6.49-17.48,1.07-1.26,2.25-2.4,3.5-3.41,4.79-3.9,10.8-6.04,16.95-6.04h135.16c14.85,0,26.94,12.08,26.94,26.93v199.52c0,14.85-12.08,26.94-26.94,26.94H28.95Z"/>
        <path class="cls-18" d="M164.11,4.02c13.74,0,24.93,11.18,24.93,24.92v199.52c0,13.74-11.18,24.93-24.93,24.93H28.95c-13.74,0-24.93-11.18-24.93-24.93V28.94c0-5.91,2.13-11.65,6.02-16.18.99-1.16,2.07-2.21,3.24-3.16,4.42-3.6,9.98-5.58,15.67-5.58h135.16M164.11,0H28.95c-6.88,0-13.23,2.43-18.21,6.49-1.37,1.1-2.63,2.33-3.76,3.66C2.63,15.22,0,21.78,0,28.94v199.52c0,15.92,13.03,28.95,28.95,28.95h135.16c15.93,0,28.95-13.03,28.95-28.95V28.94c0-15.92-13.02-28.94-28.95-28.94h0Z"/>
      </g>
      <g>
        <line class="cls-17" x1="163.08" y1="236.55" x2="176.48" y2="236.97"/>
        <polygon class="cls-18" points="176.48 236.97 151.91 246.12 157.98 236.39 152.54 226.3 176.48 236.97"/>
      </g>
      <text class="cls-19" transform="translate(87.04 244.01) scale(.81 1)"><tspan x="0" y="0">Visit!</tspan></text>
      <g>
        <path d="M34.67,64.35c-2.98,3.46-4.39,6.02-4.68,9.02-.6,6.07,3.84,8.99,2.34,13.37-1.39,4.09-5.83,3.27-7.31,7.78-1.29,3.92,1.57,6.06,0,9.39-1.75,3.7-6.27,3.14-6.73,5.85-.49,2.93,4.59,4.88,4.1,8.09-.32,2.06-2.56,2.1-4.24,4.35-2.99,4.01.06,9.3,0,15.55-.06,5.97-2.9,6.85-9.22,18.97-5.71,10.95-11.17,21.43-7.61,26.75,1.81,2.69,5.5,3.42,10.24,4.35,4.15.82,7.15,1.41,10.24,0,6.04-2.75,7.52-10.89,10.24-10.26,1.16.27,1.09,1.8,2.63,2.49,2.24.99,4.83-1.14,7.31-2.8,7.92-5.3,9.37-2.23,15.8-7.15,3.98-3.05,4.99-5.42,8.48-5.91,2.95-.42,5.33.84,6.14,1.24,13.22,6.49,43.66-2.78,49.44,8.71,1.54,3.06-.31,4.33,1.76,8.71,2.71,5.73,8.67,9.5,14.34,10.41,6.65,1.06,7.5-2.69,15.8-3.25,11.55-.79,14.38,6.17,20.48,3.25,5.57-2.67,3.8-8.76,13.17-17.56,3.19-3,4.47-3.29,5.27-5.6,1.83-5.29-3.26-8.44-3.22-17.42.02-4.9,1.55-6.34.29-9.64-1.27-3.34-3.42-3.39-6.44-6.65-5.14-5.55-2.26-9.01-7.61-17.61-3.28-5.28-5.92-6.47-5.85-10.26.07-3.66,2.56-4.6,2.05-7.46-.7-3.9-5.54-3.37-8.78-8.71-2.24-3.69-.54-4.96-2.93-9.36-2.19-4.05-4.31-4.22-7.61-8.37-3.12-3.92-3.69-6.87-5.27-10.26-3.2-6.9-8.21-10.64-15.21-15.86-13.34-9.95-29.28-21.85-50.32-19.28,0,0-18.79,2.29-47.1,35.14Z"/>
        <path class="cls-5" d="M47.18,125.88c-2.12-.68-5.49,1.95-6.2,5.14-.49,2.2.33,4.5,1.63,5.98.6.68,1.19,1.07,1.47,1.24,1.77,1.08,5.05,1.86,7.07,0,1.47-1.35,2.35-4.17.99-5.69-1.55-1.75-5.23-.89-5.48.11-.24.97,2.68,2.45,2.75,2.35.1-.14-5.66-3.93-5-5.45.49-1.11,4.02-.06,4.5-1.28.29-.73-.62-2.05-1.74-2.4Z"/>
        <path class="cls-3" d="M82.32,94.19c-5.25,2.04-10.37,4.09-15.37,6.17-1.11,8.26-1.65,18.92,0,31.17,2.8,20.76,2.58,31.55,11.23,36.77,2.09,1.26,10.62,5.82,28.21,0,5.51-10.09,11.03-20.18,16.54-30.28-4.7-17.84-9.4-35.68-14.11-53.52-8.63,2.97-17.47,6.19-26.5,9.69Z"/>
        <path class="cls-8" d="M140.2,78.04c5.14-1.33,7.18.08,8.11,1.52,1.69,2.62-.06,5.69,1.66,10.36,1.7,4.61,4.47,4.54,5.16,8.14.37,1.95.13,4.96-2.77,9.5"/>
        <ellipse class="cls-14" cx="93.57" cy="131.66" rx="24.06" ry="17"/>
        <path class="cls-4" d="M136.04,114.66c-.98,1.38-3.34,5.1-3.11,10.11.05,1.14.4,9.04,6.04,11.21,3.65,1.4,8.88.17,10.62-3.41,1.49-3.06.36-7.69-1.85-8.35-1.79-.53-4.88,1.34-4.74,3.49.08,1.23,1.21,2.37,2.75,2.94"/>
        <path class="cls-5" d="M134.09,165.62c-2.12-.68-5.49,1.95-6.2,5.14-.49,2.2.33,4.5,1.63,5.98.6.68,1.19,1.07,1.47,1.24,1.77,1.08,5.05,1.86,7.07,0,1.47-1.35,2.35-4.17.99-5.69-1.55-1.75-5.23-.89-5.48.11-.24.97,2.68,2.45,2.75,2.35.1-.14-5.66-3.93-5-5.45.49-1.11,4.02-.06,4.5-1.28.29-.73-.62-2.05-1.74-2.4Z"/>
        <path class="cls-2" d="M75.3,41.22c-25.08,5.53-32.17,13.13-34.08,18.97-1.54,4.7.67,7.03,3.14,24.39,2.1,14.75.63,13.99,2.2,19.87,1.72,6.43,17.52,27.45,23.62,30.72,14.76,7.89,31.26,1.2,34.58,0,17.39-6.26,22.99-18.88,23.27-22.88.74-10.65,4.65-18.02,2.07-31.33-2.97-15.32-4.61-23.8-12.65-30.72-14.38-12.38-37.52-9.66-42.16-9.03Z"/>
        <path class="cls-15" d="M122.32,55.21c2.29,12.85,15,40.44-4.25,38.31-19.15-2.12-66.51-18.58-66.51-30.96s15.6-22.42,34.85-22.42,33.74,2.92,35.9,15.07Z"/>
        <g>
          <path class="cls-10" d="M139,68.9c-15.47-15.77-37.59-27.21-54.68-26.09-19.33,1.24-35.81,18.98-46.46,32.07-.09.09-.19.23-.3.34-.1.13-.21.24-.31.38.21-1.05.42-2.36.58-4.03.52-5.18.04-8.48-.67-16.63-.18-1.97-.34-3.73-.46-5.31-.01-.09-.01-.21-.03-.3-.48-5.55-.7-8.48-.58-9.15.03-.21.06-.38.06-.49.53-.64,2.12-3.17,6.27-11.21,4.96-9.64,11.4-9.51,15.84-12.13,3.77-2.21,11-6.47,19.2-7.93,19.64-3.47,39.36,10.13,46.49,23.95,4.75,9.21,5.63,18.7,5.63,18.7.04.56.09,1.11.13,1.63v.26c.04.81.07,1.58.07,2.27.01,1.33-.03,2.48-.07,3.39,3.09,3.43,6.2,6.85,9.29,10.3Z"/>
          <path class="cls-13" d="M40.35,71.15c-.54-.32,5.89-17.4,19.68-26.7,15.58-10.5,33.4-8.6,36.34-8.25,22.19,2.68,35.35,26.8,35,27.26-.29.39-13.13-11.7-29.34-18.62-5.13-2.19-21.87-4.41-38.44,5.05-14.51,8.29-22.71,21.56-23.24,21.25Z"/>
          <g>
            <g>
              <polygon points="73.53 13.53 93.7 12.48 94.57 30.22 74.4 31.27 73.53 13.53"/>
              <path d="M92.99,13.27l.8,16.23-18.66.98-.8-16.23,18.66-.98M94.42,11.68l-21.68,1.13.94,19.25,21.68-1.13-.94-19.25h0Z"/>
            </g>
            <text class="cls-16" transform="translate(74.68 31.19) rotate(-2.99) scale(1.12 1) skewX(-.17)"><tspan x="0" y="0">s</tspan></text>
            <path class="cls-7" d="M88.15,34.65c.32-.15.64-.31.96-.46.04-.02.05-.06.03-.09-.32-.49-.63-.98-.95-1.47l1.24-.19c.09-.01.11-.11.04-.15-1.2-.73-2.39-1.47-3.59-2.2-.05-.03-.13,0-.13.06.1,1.24.2,2.49.3,3.73,0,.06.09.08.14.04.29-.26.59-.51.88-.77.32.49.65.98.97,1.48.02.03.07.04.11.02Z"/>
          </g>
        </g>
        <ellipse cx="65.9" cy="75.98" rx="8.13" ry="7.31"/>
        <ellipse class="cls-17" cx="65.9" cy="74.24" rx="2.86" ry="2.66"/>
        <path class="cls-1" d="M53.31,73.69c.59-1.11,1.18-2.21,1.77-3.32"/>
        <path class="cls-20" d="M93.07,95.62c.24,1.84-1.89,3.62-4.77,4-2.88.39-5.42-.79-5.66-2.63-.03-.19-.03-.37.01-.56.71.27,1.57.43,2.47.43,2.5,0,4.52-1.17,4.52-2.63,0-.47-.21-.92-.59-1.29,2.14.15,3.83,1.2,4.02,2.67Z"/>
        <g>
          <path class="cls-9" d="M51.57,66.66l22.75-3.04c2.63-.35,5.02,1.53,5.38,4.17,1.86,13.59-.23,24.57-12.05,24.59-13.66.03-18.03-6.67-20.17-20.19-.42-2.67,1.43-5.17,4.09-5.53Z"/>
          <path class="cls-9" d="M91.13,64l24-3.2c2.24-.3,4.33,1.26,4.66,3.5,2.04,13.93-.69,24.37-11.94,25.34-13.82,1.19-18.16-6.89-20.27-20.84-.35-2.32,1.24-4.49,3.56-4.8Z"/>
          <line class="cls-12" x1="46.36" y1="70.58" x2="34.81" y2="75.98"/>
          <line class="cls-12" x1="120.41" y1="63.92" x2="130.43" y2="69.9"/>
          <line class="cls-11" x1="80.5" y1="75.57" x2="89.11" y2="74.94"/>
        </g>
        <ellipse class="cls-17" cx="100.38" cy="72.71" rx=".41" ry=".35"/>
        <path class="cls-12" d="M49.02,56.6c.81-1.01,4.23-5,10.23-5.98,6.64-1.09,11.52,2.31,12.43,2.98"/>
        <path class="cls-12" d="M89.69,52.17c.81-1.01,4.23-5,10.23-5.98,6.64-1.09,11.52,2.31,12.43,2.98"/>
        <path class="cls-6" d="M97.05,116.58c0,3.87-3.13,9.19-6.99,9.19s-6.99-5.32-6.99-9.19,3.13-9.01,6.99-9.01,6.99,5.14,6.99,9.01Z"/>
        <ellipse cx="105.09" cy="73.28" rx="8.13" ry="7.31"/>
        <ellipse class="cls-17" cx="105.09" cy="71.53" rx="2.86" ry="2.66"/>
      </g>
      <path class="cls-18" d="M164.29,4.02c13.74,0,24.93,11.18,24.93,24.92v199.52c0,13.74-11.18,24.93-24.93,24.93H29.13c-13.74,0-24.93-11.18-24.93-24.93V28.94c0-5.91,2.13-11.65,6.02-16.18.99-1.16,2.07-2.21,3.24-3.16,4.42-3.6,9.98-5.58,15.67-5.58h135.16M164.29,0H29.13c-6.88,0-13.23,2.43-18.21,6.49-1.37,1.1-2.63,2.33-3.76,3.66C2.81,15.22.19,21.78.19,28.94v199.52c0,15.92,13.03,28.95,28.95,28.95h135.16c15.93,0,28.95-13.03,28.95-28.95V28.94c0-15.92-13.02-28.94-28.95-28.94h0Z"/>
    </g>
  </g>
</svg>