<?xml version="1.0" encoding="UTF-8"?>
<svg id="Layer_2" data-name="Layer 2" xmlns="http://www.w3.org/2000/svg" viewBox="0 0 193.25 257.41">
  <defs>
    <style>
      .cls-1 {
        stroke: #37004a;
        stroke-miterlimit: 10;
        stroke-width: 1.38px;
      }

      .cls-1, .cls-2 {
        fill: #fff;
      }

      .cls-3 {
        fill: #37004a;
      }

      .cls-4 {
        fill: #99a0ff;
      }
    </style>
  </defs>
  <g id="Layer_1-2" data-name="Layer 1">
    <g>
      <g>
        <rect class="cls-2" x="2.2" y="2.01" width="189.03" height="253.38" rx="26.94" ry="26.94"/>
        <path class="cls-4" d="M164.3,4.02c13.74,0,24.92,11.18,24.92,24.92v199.51c0,13.74-11.18,24.92-24.92,24.92H29.14c-13.74,0-24.92-11.18-24.92-24.92V28.95C4.22,15.2,15.4,4.02,29.14,4.02h135.16M164.3,0H29.14C13.22,0,.19,13.03.19,28.95v199.51c0,15.92,13.03,28.95,28.95,28.95h135.16c15.92,0,28.95-13.03,28.95-28.95V28.95c0-15.92-13.03-28.95-28.95-28.95h0Z"/>
      </g>
      <path class="cls-3" d="M164.08,4.24c13.73,0,24.9,11.17,24.9,24.9v199.16c0,13.73-11.17,24.9-24.9,24.9H28.92c-13.73,0-24.9-11.17-24.9-24.9V29.14C4.02,15.41,15.19,4.24,28.92,4.24h135.16M164.08.22H28.92C13.01.22,0,13.23,0,29.14v199.16c0,15.91,13.01,28.92,28.92,28.92h135.16c15.91,0,28.92-13.01,28.92-28.92V29.14c0-15.91-13.01-28.92-28.92-28.92h0Z"/>
      <g>
        <g>
          <rect class="cls-3" x="29.36" y="17.99" width="134.72" height="136.05" rx="13.83" ry="13.83"/>
          <path class="cls-2" d="M96.16,142.52c3.37,0,6.5-.52,9.38-1.56,2.88-1.04,5.37-2.44,7.47-4.18s3.72-3.77,4.88-6.06c1.15-2.29,1.73-4.64,1.73-7.06,0-3.91-.97-7.33-2.9-10.24-1.94-2.91-4.49-5.51-7.65-7.81-3.17-2.29-6.77-4.39-10.8-6.31-4.03-1.91-8.15-3.89-12.34-5.93s-8.31-4.2-12.34-6.5c-4.03-2.29-7.63-4.97-10.8-8.06-3.17-3.08-5.72-6.64-7.65-10.68-1.94-4.04-2.9-8.76-2.9-14.18,0-5.08,1.07-9.8,3.21-14.18,2.14-4.37,5.12-8.14,8.95-11.3,3.83-3.16,8.37-5.64,13.64-7.43,5.27-1.79,11.03-2.68,17.28-2.68,4.2,0,8.11.29,11.73.87,3.62.58,7.18,1.71,10.68,3.37,3.5,1.67,6.97,4.06,10.43,7.18,3.46,3.12,7.12,7.18,10.99,12.18l-9.26,8.37c-4.77-7.91-10.1-13.8-15.99-17.67-5.88-3.87-12.16-5.81-18.83-5.81-3.62,0-6.91.44-9.88,1.31s-5.49,2.08-7.59,3.62c-2.1,1.54-3.75,3.35-4.94,5.43-1.19,2.08-1.79,4.29-1.79,6.62,0,3.83,1.05,7.16,3.15,9.99,2.1,2.83,4.88,5.39,8.33,7.68,3.46,2.29,7.39,4.39,11.79,6.31,4.4,1.92,8.89,3.87,13.46,5.87s9.05,4.16,13.46,6.49c4.4,2.33,8.33,5.02,11.79,8.06,3.46,3.04,6.23,6.56,8.33,10.55s3.15,8.66,3.15,13.99-.99,10.47-2.96,15.18c-1.97,4.71-4.96,8.79-8.95,12.24-3.99,3.46-8.99,6.18-15,8.18-6.01,2-13.09,3-21.23,3-3.7,0-7.51-.29-11.42-.87-3.91-.58-7.84-1.73-11.79-3.44s-7.9-4.1-11.85-7.18-7.82-7.12-11.6-12.12l10.25-9.37c3.04,4.33,5.97,8.01,8.76,11.05,2.8,3.04,5.66,5.54,8.58,7.49,2.92,1.96,5.93,3.37,9.01,4.25s6.44,1.31,10.06,1.31Z"/>
          <path class="cls-1" d="M118.22,177.56c2.03-.96,4.05-1.93,6.08-2.89.24-.12.34-.39.22-.63-1.81-3.57-3.63-7.13-5.44-10.7l7.75-.91c.54-.06.74-.72.32-1.05-7.2-5.62-14.4-11.23-21.6-16.85-.33-.26-.82-.03-.81.37.23,8.8.47,17.6.7,26.41.01.4.52.61.83.33,1.9-1.69,3.79-3.38,5.69-5.07,1.86,3.59,3.73,7.17,5.59,10.76.12.23.42.33.66.21Z"/>
        </g>
        <g>
          <path class="cls-3" d="M29.43,202.73l2.76-6.45c1.24.83,2.34,1.43,3.31,1.82.97.38,1.87.57,2.71.57.59,0,1.06-.11,1.39-.32.34-.21.51-.51.51-.87,0-.64-.85-1.13-2.54-1.46-.55-.11-.97-.2-1.28-.27-1.79-.42-3.17-1.17-4.12-2.24-.95-1.07-1.43-2.4-1.43-4,0-2.48.92-4.49,2.77-6.04s4.27-2.33,7.27-2.33c1.38,0,2.73.17,4.07.52,1.33.35,2.68.87,4.04,1.57l-2.62,6.03c-.83-.59-1.67-1.04-2.5-1.35-.84-.31-1.65-.46-2.44-.46-.6,0-1.07.1-1.39.29-.33.19-.49.46-.49.81,0,.65,1.2,1.22,3.59,1.72.38.08.68.15.89.19,1.65.36,2.95,1.09,3.9,2.19.95,1.1,1.43,2.43,1.43,4,0,2.55-.96,4.63-2.88,6.25-1.92,1.61-4.42,2.42-7.49,2.42-1.57,0-3.15-.22-4.72-.65-1.58-.43-3.15-1.08-4.72-1.94Z"/>
          <path class="cls-3" d="M60.4,183.36c0,1.17-.4,2.09-1.2,2.78-.8.69-1.88,1.03-3.23,1.03s-2.46-.35-3.26-1.04-1.21-1.62-1.21-2.77.4-2.06,1.2-2.73c.8-.66,1.89-1,3.28-1s2.46.33,3.25,1c.79.67,1.18,1.58,1.18,2.73ZM51.84,204.69v-16.27h8.23v16.27h-8.23Z"/>
          <path class="cls-3" d="M76.62,195.38c-.44-.37-.89-.64-1.35-.83-.46-.18-.94-.28-1.44-.28-.83,0-1.49.21-1.98.64-.49.42-.74.99-.74,1.69s.24,1.22.72,1.64c.48.42,1.1.64,1.87.64.48,0,.97-.1,1.45-.31.49-.21.98-.51,1.47-.91v6.47c-.85.4-1.68.69-2.47.88-.79.19-1.57.28-2.34.28-1.26,0-2.42-.2-3.49-.61-1.07-.4-2.02-1-2.85-1.78-.88-.84-1.54-1.79-2-2.86s-.69-2.19-.69-3.39c0-.83.11-1.63.34-2.42.22-.78.56-1.52,1.01-2.23.85-1.33,1.94-2.35,3.26-3.06,1.32-.71,2.8-1.06,4.44-1.06.72,0,1.48.07,2.27.22s1.64.37,2.53.68v6.58Z"/>
          <path class="cls-3" d="M91.09,204.69v-2.45c-.82,1.05-1.68,1.82-2.58,2.32-.9.5-1.89.75-2.97.75-1.97,0-3.6-.8-4.9-2.41-1.3-1.61-1.94-3.67-1.94-6.2s.63-4.77,1.9-6.38c1.26-1.61,2.91-2.42,4.95-2.42,1.05,0,2,.22,2.86.65.86.44,1.65,1.11,2.39,2.02v-2.16h7.89v16.27h-7.6ZM86.6,196.51c0,.69.19,1.25.58,1.68.39.43.9.64,1.53.64s1.16-.21,1.54-.63c.38-.42.57-.98.57-1.68s-.19-1.28-.58-1.71-.9-.65-1.53-.65-1.15.22-1.53.65-.58,1.01-.58,1.71Z"/>
        </g>
        <g>
          <path class="cls-3" d="M29.43,236.41l2.76-6.45c1.24.83,2.34,1.43,3.31,1.82.97.38,1.87.57,2.71.57.59,0,1.06-.11,1.39-.32.34-.21.51-.51.51-.87,0-.64-.85-1.13-2.54-1.46-.55-.11-.97-.2-1.28-.27-1.79-.42-3.17-1.17-4.12-2.24-.95-1.07-1.43-2.4-1.43-4,0-2.48.92-4.49,2.77-6.04s4.27-2.33,7.27-2.33c1.38,0,2.73.17,4.07.52,1.33.35,2.68.87,4.04,1.57l-2.62,6.03c-.83-.59-1.67-1.04-2.5-1.35-.84-.31-1.65-.46-2.44-.46-.6,0-1.07.1-1.39.29-.33.19-.49.46-.49.81,0,.65,1.2,1.22,3.59,1.72.38.08.68.15.89.19,1.65.36,2.95,1.09,3.9,2.19.95,1.1,1.43,2.43,1.43,4,0,2.55-.96,4.63-2.88,6.25-1.92,1.61-4.42,2.42-7.49,2.42-1.57,0-3.15-.22-4.72-.65-1.58-.43-3.15-1.08-4.72-1.94Z"/>
          <path class="cls-3" d="M52.77,238.38v-10.28h-2.35v-6h2.35v-5.38h8.24v5.38h2.35v6h-2.35v10.28h-8.24Z"/>
          <path class="cls-3" d="M65.47,222.11h8.1v7.96c0,1.14.1,1.88.29,2.21.19.33.54.49,1.06.49s.83-.16,1.02-.47.29-1.06.29-2.23v-7.96h8.09v8.77c0,2.81-.75,4.87-2.26,6.17-1.5,1.3-3.89,1.95-7.14,1.95s-5.66-.65-7.18-1.95c-1.51-1.3-2.27-3.36-2.27-6.17v-8.77Z"/>
          <path class="cls-3" d="M106.99,213.99v24.39h-7.66v-2.39c-.71,1.01-1.52,1.76-2.43,2.26-.91.5-1.92.75-3.05.75-2.05,0-3.7-.8-4.95-2.41-1.26-1.61-1.89-3.74-1.89-6.39s.65-4.59,1.94-6.18c1.29-1.59,2.93-2.39,4.91-2.39,1.07,0,2.04.23,2.9.7.86.47,1.63,1.17,2.31,2.1-.05-.33-.1-.72-.12-1.17-.03-.46-.04-1.02-.04-1.69v-7.57h8.09ZM97.01,227.93c-.63,0-1.15.21-1.53.64-.39.43-.58,1-.58,1.72s.2,1.3.59,1.75.9.68,1.53.68,1.13-.22,1.53-.68.59-1.03.59-1.75-.19-1.28-.58-1.72c-.39-.43-.9-.64-1.53-.64Z"/>
          <path class="cls-3" d="M119.19,217.04c0,1.17-.4,2.09-1.2,2.78-.8.69-1.88,1.03-3.23,1.03s-2.46-.35-3.26-1.04-1.21-1.62-1.21-2.77.4-2.06,1.2-2.73c.8-.66,1.89-1,3.28-1s2.46.33,3.25,1c.79.67,1.18,1.58,1.18,2.73ZM110.63,238.38v-16.27h8.23v16.27h-8.23Z"/>
          <path class="cls-3" d="M141.63,230.29c0,1.23-.27,2.4-.82,3.51-.55,1.11-1.33,2.09-2.35,2.94-.89.74-1.9,1.29-3.04,1.68-1.14.38-2.38.58-3.7.58s-2.55-.19-3.69-.57c-1.14-.38-2.16-.94-3.07-1.68-1.01-.82-1.79-1.79-2.34-2.92-.55-1.13-.83-2.31-.83-3.53s.28-2.42.83-3.53c.55-1.12,1.33-2.09,2.34-2.92.91-.75,1.93-1.31,3.07-1.68,1.14-.38,2.37-.57,3.69-.57s2.56.19,3.7.58,2.17.94,3.08,1.68c.99.82,1.77,1.79,2.31,2.91.55,1.12.82,2.3.82,3.54ZM131.73,232.51c.59,0,1.07-.21,1.44-.61s.56-.94.56-1.61-.18-1.21-.55-1.61c-.37-.4-.85-.61-1.45-.61s-1.1.2-1.47.61c-.37.4-.55.94-.55,1.61s.18,1.21.55,1.61c.37.41.86.61,1.47.61Z"/>
          <path class="cls-3" d="M142.63,237.21l2.18-5.02c.91.59,1.74,1.03,2.49,1.34.75.3,1.4.46,1.94.46.44,0,.77-.08,1-.24.23-.16.34-.39.34-.68,0-.41-.49-.71-1.46-.9-.33-.06-.58-.11-.77-.16-1.6-.38-2.76-.94-3.49-1.68-.73-.74-1.09-1.72-1.09-2.94,0-1.71.74-3.11,2.22-4.19s3.41-1.62,5.8-1.62c1.19,0,2.33.11,3.42.32,1.09.22,2.11.54,3.06.97l-2.02,4.89c-.77-.49-1.45-.86-2.07-1.11-.61-.25-1.14-.37-1.59-.37-.37,0-.67.08-.9.23-.23.15-.34.35-.34.61,0,.41.65.75,1.94,1.01.31.06.55.12.72.16,1.65.38,2.86.93,3.64,1.66.78.73,1.16,1.68,1.16,2.86,0,1.82-.77,3.31-2.3,4.46-1.53,1.15-3.55,1.72-6.07,1.72-1.37,0-2.71-.15-4.02-.45-1.31-.3-2.58-.74-3.81-1.33Z"/>
        </g>
      </g>
    </g>
  </g>
</svg>