<?xml version="1.0" encoding="UTF-8"?>
<!DOCTYPE svg PUBLIC "-//W3C//DTD SVG 1.1//EN" "http://www.w3.org/Graphics/SVG/1.1/DTD/svg11.dtd">
<svg xmlns="http://www.w3.org/2000/svg" version="1.1" width="1536px" height="1536px" style="shape-rendering:geometricPrecision; text-rendering:geometricPrecision; image-rendering:optimizeQuality; fill-rule:evenodd; clip-rule:evenodd" xmlns:xlink="http://www.w3.org/1999/xlink">
<g><path style="opacity:0.998" fill="#0074be" d="M 175.5,92.5 C 570.167,92.7881 964.834,93.4547 1359.5,94.5C 1324.95,492.154 1290.45,889.82 1256,1287.5C 1255.85,1292.96 1255.02,1298.29 1253.5,1303.5C 1093.08,1350.14 932.583,1396.47 772,1442.5C 606.092,1396.4 440.258,1350.06 274.5,1303.5C 241.755,899.81 208.755,496.143 175.5,92.5 Z"/></g>
<g><path style="opacity:1" fill="#0088ca" d="M 771.5,1186.5 C 773.199,1186.66 774.866,1186.49 776.5,1186C 874.712,1154.37 973.045,1123.2 1071.5,1092.5C 1084.61,940.542 1097.27,788.542 1109.5,636.5C 1005.17,636.667 900.833,636.5 796.5,636C 910.022,588.408 1023.69,541.075 1137.5,494C 1138.5,446.239 1138.83,398.405 1138.5,350.5C 1016.17,350.5 893.833,350.5 771.5,350.5C 771.51,302.777 771.51,255.277 771.5,208C 884.575,207.692 1008.08,208.192 1142,209.5C 1166.33,209.167 1190.67,208.833 1215,208.5C 1229.77,209.159 1244.6,209.826 1259.5,210.5C 1256.89,233.29 1254.56,256.123 1252.5,279C 1252.83,280 1253.17,281 1253.5,282C 1252.83,285 1252.17,288 1251.5,291C 1251.83,291.333 1252.17,291.667 1252.5,292C 1251.05,299.403 1250.05,306.736 1249.5,314C 1249.5,318.333 1249.5,322.667 1249.5,327C 1248.83,330.333 1248.17,333.667 1247.5,337C 1247.5,341.333 1247.5,345.667 1247.5,350C 1246.83,353.333 1246.17,356.667 1245.5,360C 1245.5,364.333 1245.5,368.667 1245.5,373C 1244.83,376.333 1244.17,379.667 1243.5,383C 1243.83,384 1244.17,385 1244.5,386C 1243.95,392.599 1242.95,399.266 1241.5,406C 1241.83,407 1242.17,408 1242.5,409C 1241.95,415.599 1240.95,422.266 1239.5,429C 1239.83,430 1240.17,431 1240.5,432C 1239.95,438.599 1238.95,445.266 1237.5,452C 1237.83,453 1238.17,454 1238.5,455C 1237.95,461.599 1236.95,468.266 1235.5,475C 1235.83,476 1236.17,477 1236.5,478C 1235.95,484.599 1234.95,491.266 1233.5,498C 1233.83,499 1234.17,500 1234.5,501C 1233.95,507.599 1232.95,514.266 1231.5,521C 1231.83,522 1232.17,523 1232.5,524C 1231.95,530.599 1230.95,537.266 1229.5,544C 1229.83,545 1230.17,546 1230.5,547C 1229.95,553.599 1228.95,560.266 1227.5,567C 1227.83,568 1228.17,569 1228.5,570C 1227.95,576.599 1226.95,583.266 1225.5,590C 1225.83,591 1226.17,592 1226.5,593C 1225.95,599.599 1224.95,606.266 1223.5,613C 1223.83,614 1224.17,615 1224.5,616C 1223.95,622.599 1222.95,629.266 1221.5,636C 1221.83,637 1222.17,638 1222.5,639C 1221.83,642 1221.17,645 1220.5,648C 1220.83,648.333 1221.17,648.667 1221.5,649C 1218.71,671.743 1216.38,694.409 1214.5,717C 1214.5,721.333 1214.5,725.667 1214.5,730C 1213.83,733.333 1213.17,736.667 1212.5,740C 1212.5,744.333 1212.5,748.667 1212.5,753C 1211.83,756.333 1211.17,759.667 1210.5,763C 1210.83,764 1211.17,765 1211.5,766C 1210.95,772.599 1209.95,779.266 1208.5,786C 1208.83,787 1209.17,788 1209.5,789C 1208.95,795.599 1207.95,802.266 1206.5,809C 1206.83,810 1207.17,811 1207.5,812C 1206.95,818.599 1205.95,825.266 1204.5,832C 1204.83,833 1205.17,834 1205.5,835C 1204.95,841.599 1203.95,848.266 1202.5,855C 1202.83,856 1203.17,857 1203.5,858C 1202.95,864.599 1201.95,871.266 1200.5,878C 1200.83,879 1201.17,880 1201.5,881C 1200.95,887.599 1199.95,894.266 1198.5,901C 1198.83,902 1199.17,903 1199.5,904C 1198.95,910.599 1197.95,917.266 1196.5,924C 1196.83,925 1197.17,926 1197.5,927C 1196.95,933.599 1195.95,940.266 1194.5,947C 1194.83,948 1195.17,949 1195.5,950C 1194.95,956.599 1193.95,963.266 1192.5,970C 1192.83,971 1193.17,972 1193.5,973C 1192.95,979.599 1191.95,986.266 1190.5,993C 1190.83,994 1191.17,995 1191.5,996C 1190.95,1002.6 1189.95,1009.27 1188.5,1016C 1188.83,1017 1189.17,1018 1189.5,1019C 1188.83,1022 1188.17,1025 1187.5,1028C 1187.83,1028.33 1188.17,1028.67 1188.5,1029C 1187.05,1036.4 1186.05,1043.74 1185.5,1051C 1185.5,1055.33 1185.5,1059.67 1185.5,1064C 1183.5,1082.67 1181.5,1101.33 1179.5,1120C 1179.83,1121 1180.17,1122 1180.5,1123C 1179.95,1129.6 1178.95,1136.27 1177.5,1143C 1177.83,1144 1178.17,1145 1178.5,1146C 1177.95,1152.6 1176.95,1159.27 1175.5,1166C 1175.83,1167 1176.17,1168 1176.5,1169C 1175.95,1175.6 1174.95,1182.27 1173.5,1189C 1173.83,1190 1174.17,1191 1174.5,1192C 1172.95,1197.91 1171.95,1203.75 1171.5,1209.5C 1038.89,1248.37 906.226,1287.04 773.5,1325.5C 772.914,1325.29 772.414,1324.96 772,1324.5C 771.833,1322.17 771.667,1319.83 771.5,1317.5C 771.983,1273.84 771.983,1230.18 771.5,1186.5 Z"/></g>
<g><path style="opacity:1" fill="#fefefe" d="M 771.5,350.5 C 893.833,350.5 1016.17,350.5 1138.5,350.5C 1138.83,398.405 1138.5,446.239 1137.5,494C 1023.69,541.075 910.022,588.408 796.5,636C 900.833,636.5 1005.17,636.667 1109.5,636.5C 1097.27,788.542 1084.61,940.542 1071.5,1092.5C 973.045,1123.2 874.712,1154.37 776.5,1186C 774.866,1186.49 773.199,1186.66 771.5,1186.5C 668.085,1157.98 564.752,1129.15 461.5,1100C 454.258,1022.27 447.592,944.433 441.5,866.5C 489.834,866.333 538.168,866.5 586.5,867C 591.157,903.392 595.323,939.892 599,976.5C 599.374,977.416 599.874,978.25 600.5,979C 652.882,992.345 705.215,1005.85 757.5,1019.5C 762.172,1018.5 766.839,1017.5 771.5,1016.5C 824.832,1006.17 878.166,995.833 931.5,985.5C 937.774,919.823 944.107,854.156 950.5,788.5C 778.598,787.832 606.598,787.165 434.5,786.5C 427.584,739.759 421.25,693.092 415.5,646.5C 530.634,596.597 645.967,547.264 761.5,498.5C 762.289,498.217 762.956,497.717 763.5,497C 645.5,496.5 527.5,496.333 409.5,496.5C 402.145,448.016 395.145,399.349 388.5,350.5C 516.167,350.5 643.833,350.5 771.5,350.5 Z"/></g>
<g><path style="opacity:1" fill="#a0d2ea" d="M 409.5,496.5 C 527.5,496.333 645.5,496.5 763.5,497C 762.956,497.717 762.289,498.217 761.5,498.5C 644.167,497.833 526.833,497.167 409.5,496.5 Z"/></g>
<g><path style="opacity:1" fill="#a0d2ea" d="M 434.5,786.5 C 606.598,787.165 778.598,787.832 950.5,788.5C 890.833,788.5 831.167,788.5 771.5,788.5C 658.828,789.165 546.495,788.498 434.5,786.5 Z"/></g>
<g><path style="opacity:1" fill="#0088ca" d="M 771.5,788.5 C 831.167,788.5 890.833,788.5 950.5,788.5C 944.107,854.156 937.774,919.823 931.5,985.5C 878.166,995.833 824.832,1006.17 771.5,1016.5C 771.68,940.49 771.68,864.49 771.5,788.5 Z"/></g>
</svg>
