<?xml version="1.0" encoding="UTF-8"?>
<svg id="Layer_2" data-name="Layer 2" xmlns="http://www.w3.org/2000/svg" viewBox="0 0 283.31 283.31">
  <defs>
    <style>
      .cls-1 {
        fill-rule: evenodd;
      }

      .cls-2 {
        fill: none;
        stroke: #000;
        stroke-miterlimit: 10;
        stroke-width: 10.87px;
      }
    </style>
  </defs>
  <g id="Layer_1-2" data-name="Layer 1">
    <g>
      <path class="cls-1" d="M160.79,145.92c-.75,9.21-3.57,19.95-11.86,24.56-8.3,4.61-20.85,3.46-27.65-2.96-1.21-1.15-2.83-3.41-3.38-5.81-.62-2.67-.15-5.35.85-7.57,1.89-4.15,5.2-6.41,10.12-8.11,8.56-2.96,23.5-3.26,31.92-.11h0ZM104.68,110.41c2.4,1.49,6.53,4.64,9.26,6.46,1.09.73,1.99,1.46,3.09,2.11,3.33-2.97,4.48-5.54,10.17-7.69,4.55-1.72,10.46-2.27,15.57-1.28,5.76,1.12,8.89,2.83,11.94,5.93,2.59,2.64,4.76,7.98,5.28,12.92-8.98-.41-18.63-1.22-27.5.1-15.1,2.24-28.42,11.85-30.2,27.35-.8,6.95,1.18,14.16,5.25,19.61.49.66,1.15,1.62,1.62,2.1,5.14,5.25,11,8.32,18.74,9.92,15.33,3.18,32.84-1.6,40.83-14.87,4.71-7.83,6.36-19.74,7.5-21.33,7.23,2.28,12.13,11.31,13.43,18.57,2.05,11.46-1.57,20.01-7.31,27.49-1.02,1.33-4.74,4.76-6.09,5.94-2.81,2.44-6.15,4.3-9.92,6.19-7.31,3.66-17.17,5.6-26.41,5.81-41.9.94-62.38-23.01-65.86-62.4-3.65-41.34,9.69-75.13,43.68-83.49,19.64-4.84,41.81-2.69,58.45,8.74,1.23.85,3.49,2.52,4.48,3.49.81.79,1.28,1.21,1.98,1.91,5.86,5.92,11.14,14.82,13.67,22.6.8,2.47,1.37,3.65,2.44,5.69,3.45-.36,7.93-1.4,11.16-2.57,1.1-.4,2.39-1.14,3.28-1.37-.53-7.11-7.62-19.73-11.4-25.96-1.76-2.89-3.5-4.83-5.43-7.14-1.25-1.5-4.68-4.62-6.35-6.04-6.66-5.65-15.46-10.3-24.21-13.14-22.76-7.38-50.54-6.04-71.57,6.43-1.42.84-2.45,1.56-3.76,2.43-.31.2-.65.41-.96.64-4.49,3.26-8.52,7.1-11.97,11.38-4.32,5.37-8.82,13.03-11.48,19.66-10.39,25.85-10.98,58.56-2.09,84.97,3.28,9.75,7.1,16.72,12.96,24.38.46.6.94,1.04,1.39,1.61l4.62,4.93c9.89,8.9,19.06,13.74,32.92,16.83,14.2,3.17,30.8,3.39,44.79-.29,6.19-1.63,12.79-4.26,17.59-7.2,5.63-3.46,6.22-4.12,10.64-7.94,5.27-4.55,10.33-11.96,13.08-18.24,5.49-12.54,6.02-28.32-.89-40.41-1.57-2.74-3.18-5.2-4.96-7.43-4.16-5.21-12.24-10.47-17.77-13.38-2.87-1.51-1.65-.93-1.91-4.44-.46-6.21-3.27-14.54-5.98-18.97-3.02-4.92-7.21-9.53-12.24-12.53-10.71-6.4-29.16-6.13-40.71-.25-4.55,2.32-8.98,5.74-11.69,10.08-.4.65-.91,1.33-1.12,2.09h0Z"/>
      <circle class="cls-2" cx="141.65" cy="141.65" r="136.22"/>
    </g>
  </g>
</svg>