<?xml version="1.0" encoding="UTF-8"?>
<svg id="Layer_2" data-name="Layer 2" xmlns="http://www.w3.org/2000/svg" viewBox="0 0 283.37 276.65">
  <defs>
    <style>
      .cls-1 {
        fill: none;
        stroke: #000;
        stroke-linejoin: round;
        stroke-width: 10.88px;
      }
    </style>
  </defs>
  <g id="Layer_1-2" data-name="Layer 1">
    <path class="cls-1" d="M141.69,5.44C66.41,5.44,5.44,66.41,5.44,141.69c0,60.29,39,111.21,93.16,129.27,6.81,1.19,9.37-2.9,9.37-6.47,0-3.24-.17-13.97-.17-25.38-34.23,6.3-43.09-8.35-45.81-16.01-1.53-3.92-8.17-16.01-13.97-19.25-4.77-2.55-11.58-8.86-.17-9.03,10.73-.17,18.39,9.88,20.95,13.97,12.26,20.61,31.85,14.82,39.68,11.24,1.19-8.86,4.77-14.82,8.69-18.22-30.32-3.41-61.99-15.16-61.99-67.27,0-14.82,5.28-27.08,13.97-36.62-1.36-3.41-6.13-17.37,1.36-36.11,0,0,11.41-3.58,37.47,13.97,10.9-3.07,22.48-4.6,34.06-4.6s23.16,1.53,34.06,4.6c26.06-17.71,37.47-13.97,37.47-13.97,7.49,18.73,2.72,32.7,1.36,36.11,8.69,9.54,13.97,21.63,13.97,36.62,0,52.29-31.85,63.87-62.16,67.27,4.94,4.26,9.2,12.43,9.2,25.21,0,18.22-.17,32.87-.17,37.47,0,3.58,2.55,7.83,9.37,6.47,27.05-9.13,50.55-26.51,67.2-49.7,16.65-23.19,25.61-51.01,25.62-79.56,0-75.28-60.97-136.25-136.25-136.25Z"/>
  </g>
</svg>