<?xml version="1.0" encoding="UTF-8"?>
<svg id="Layer_2" data-name="Layer 2" xmlns="http://www.w3.org/2000/svg" viewBox="0 0 354.74 117.18">
  <defs>
    <style>
      .cls-1, .cls-2, .cls-3, .cls-4, .cls-5, .cls-6 {
        fill: none;
      }

      .cls-7 {
        fill: #679426;
      }

      .cls-2 {
        stroke-width: .71px;
      }

      .cls-2, .cls-3, .cls-8, .cls-9, .cls-10, .cls-11, .cls-12, .cls-4, .cls-5, .cls-13, .cls-6 {
        stroke: #000;
        stroke-miterlimit: 10;
      }

      .cls-2, .cls-3, .cls-4, .cls-5, .cls-6 {
        stroke-linecap: round;
      }

      .cls-3 {
        stroke-width: 2.17px;
      }

      .cls-8 {
        stroke-width: 2.15px;
      }

      .cls-14 {
        fill: #ffbff8;
      }

      .cls-15 {
        fill: #ff6a9c;
      }

      .cls-16 {
        fill: #ebcaa4;
      }

      .cls-17 {
        font-family: Borsok, Borsok;
        font-size: 109.72px;
      }

      .cls-17, .cls-18 {
        fill: #7bb02d;
      }

      .cls-9 {
        stroke-width: 1.37px;
      }

      .cls-10 {
        stroke-width: 1.65px;
      }

      .cls-11 {
        stroke-width: 1.62px;
      }

      .cls-19 {
        fill: #6e9e28;
      }

      .cls-20, .cls-12 {
        fill: #fff;
      }

      .cls-12 {
        stroke-width: .38px;
      }

      .cls-21 {
        fill: #f2f2f2;
      }

      .cls-22 {
        fill: #693043;
      }

      .cls-23 {
        letter-spacing: -.02em;
      }

      .cls-4 {
        stroke-width: 3.29px;
      }

      .cls-5 {
        stroke-width: 2.95px;
      }

      .cls-13 {
        stroke-width: 2.75px;
      }

      .cls-24 {
        letter-spacing: -.05em;
      }

      .cls-25 {
        letter-spacing: -.03em;
      }

      .cls-6 {
        stroke-width: 3.55px;
      }
    </style>
  </defs>
  <g id="Layer_1-2" data-name="Layer 1">
    <text class="cls-17" transform="translate(73.96 92.24) scale(.52 1)"><tspan x="0" y="0">H</tspan><tspan class="cls-25" x="75.64" y="0">u</tspan><tspan class="cls-23" x="152.15" y="0">s</tspan><tspan x="218.49" y="0">kd.</tspan><tspan class="cls-24" x="394.49" y="0">c</tspan><tspan x="462" y="0">o</tspan></text>
    <path class="cls-7" d="M75.92,54.82c.81-.97,1.59.86,2.2,2.73.86,2.64-.76,21.61-1.78,21.67-.77.04-.25-18-.42-18.6-.45-1.59-.91-4.72,0-5.8Z"/>
    <g>
      <g>
        <path class="cls-5" d="M17.07,49.79c-7.63,9.54-12.46,13.84-14.49,12.89-1.47-.69-1.47-4.15,0-10.37"/>
        <line class="cls-4" x1="16.22" y1="90.32" x2="30.2" y2="67.66"/>
        <g>
          <path d="M30.2,92.06c1.98-4,5.93-3.98,7.91,0,.03.09.19.27.04.34-.67.1-1.35.12-2.02.13-.99.06-2.97.06-3.96,0-.66,0-1.32-.05-1.98-.12-.07,0-.11-.07-.11-.13,0-.02,0-.03.01-.04l.09-.18h0Z"/>
          <line class="cls-6" x1="37.17" y1="68.73" x2="37.63" y2="90.58"/>
        </g>
        <path d="M11.25,87.82c3.49-1.92,5.74-.03,4.53,3.75-.04.08-.06.34-.21.25-1.14-.74-2.46-1.8-3.46-2.72-.37-.32-.73-.66-1.06-1.02-.04-.04-.04-.1,0-.14,0,0,.01-.01.02-.02l.18-.1h0Z"/>
        <g>
          <path class="cls-18" d="M43.54,24.23c.1.04.21.06.32.1.09.03.19.05.31.09.1.04.23.08.36.11.09.04.18.06.28.09.14.05.28.1.45.15,3.37,1.21,7.59,3.31,10.89,7,1.97,2.17,3.62,4.89,4.61,8.31.14.49.28,1,.38,1.52.04.18.08.34.12.52,2.47,12.64-5.49,22.88-6.45,24.03-4.1,4.96-8.86,7.17-13.03,8.03h-.01c-5.54,1.16-10.05-.04-10.58-.24-1.52-.59-14.49-4.26-18.78-19.21-1.83-6.41-1.83-13.23,1.08-19.52.26-.58.56-1.15.88-1.73.67-1.23,1.48-2.43,2.41-3.59,1.67-2.1,3.52-3.65,5.42-4.77,1.75-1.02,3.53-1.69,5.29-2.12,1.28-.31,2.52-.48,3.72-.55.04,0,.09-.01.14-.01h.01s.04.04.04.04h.01c.66.11,1.27.22,1.85.3,5.86.92,7.59,1.01,8.64,1.12l1.64.33Z"/>
          <path class="cls-19" d="M16.43,30.41c.79,13.42,3.17,26.7,9.33,38.76-7.82-11.08-10.44-25.42-9.33-38.76h0Z"/>
          <path class="cls-16" d="M58.09,35.92c0,.13-.02.24-.04.36-.3,1.79-1.53,2.66-1.73,2.85-2.63,2.74-8.5,3.03-12.19,2.91-3.32-.11-11.1-1.19-18.98-5.45-.72-.38-2-1.42-3.12-2.8-.89-1.11-1.68-2.44-1.98-3.82-.05-.18-.08-.38-.1-.56-.07-.49-.07-.99.02-1.49.53-3.1,5.34-5.26,6.79-5.02.22-.5,1.66-.71,3.13-.8,1.67-.09,3.39-.02,3.39-.02.08.01.16.03.24.05.05.01.11.02.16.02h.01c.54.11,1.04.2,1.51.28,4.8.87,6.22.98,7.07,1.1.53.07.85.13,1.61.38.15.04.34.11.55.17.07.03.15.05.23.08.12.04.23.08.37.13,3.36,1.14,10.92,4.11,12.63,8.92.38,1.06.48,1.97.4,2.72Z"/>
          <path class="cls-21" d="M31.61,25.91c-1.58.14-3.74.36-4.75,1.53-.54.62-.51,1.23-.45,2.29.1,1.99,1.25,3.89,2.39,4.27.12.04.45.13.8.34.49.29.58.53.86.76.55.45,2.46,1.19,2.88,1.26,2.01.31,3.4.91,5.29,1.5,3.43,1.07,10.18.93,12.63-1.23,1.45-1.28.57-2.94-.65-4.71-1.61-2.34-5.05-3.53-7.78-4.48-1.19-.41-6.06-2.01-11.22-1.54Z"/>
          <path class="cls-1" d="M59.45,46.27c-.38.44-.77.86-1.2,1.24-1.6,1.47-3.48,2.52-5.44,3.27h-.01c-5.33,2.02-11.26,1.81-13.7,1.57-.29-.03-.53-.06-.72-.09-3.4-.48-7.34-1.49-11.05-3.08-2.83-1.21-5.52-2.74-7.73-4.62-2.76-2.3-4.76-5.15-5.36-8.5-.26-1.51-.22-2.96.11-4.3.15-.71.39-1.39.69-2.03,1.21-2.62,3.46-4.64,6.15-5.62.46-.17.94-.32,1.4-.48,1.94-.6,3.88-1.02,5.77-1.26,1.25-.17,2.47-.27,3.64-.31.47-.02.91-.02,1.35-.02,5.77.95,7.46,1.08,8.49,1.21,3.47,1.08,9.78,3.49,14.18,7,2.2,1.74,3.95,3.76,4.62,6.04.07.21.13.43.17.63.17.59.29,1.14.37,1.67.79,4.76-1.11,6.94-1.74,7.69Z"/>
          <path class="cls-19" d="M35.99,74.33c10.62-4.35,17.34-10.43,20.79-21.59-.23,1.29-.58,2.57-.97,3.83-2.95,9.41-10.56,15.24-19.83,17.77h0Z"/>
        </g>
        <path class="cls-3" d="M56.98,62.98c2.75-.58,18.84-4.07,18.41-7.11-.33-2.33-10.23-3.38-14.6-3.75"/>
        <g>
          <path class="cls-18" d="M60.93,54.36l-10.48-1.48-25.62-3.58c-1.97-1.06-3.82-2.31-5.41-3.75-.97-.87-1.86-1.8-2.61-2.81-1.38-1.85-2.36-3.92-2.74-6.22-.12-.72-.18-1.42-.18-2.11.1-.2.2-.41.32-.62.68-1.31,1.47-2.58,2.41-3.82,1.28-1.72,2.67-3.07,4.1-4.16-.46.62-.79,1.32-.92,2.06-.09.53-.09,1.06-.03,1.59.03.18.06.4.1.6.31,1.48,1.09,2.88,1.99,4.06,1.13,1.48,2.41,2.57,3.13,2.98,7.87,4.51,15.65,5.66,18.97,5.78,3.69.13,9.56-.17,12.19-3.09.19-.2,1.44-1.12,1.73-3.02.01-.13.04-.24.04-.38.05-.58.01-1.25-.15-2.02,1.18,1.83,2.17,3.96,2.85,6.44.14.51.28,1.06.38,1.62.04.18.08.37.12.55,0,.01,0,.03.01.04.74,4.09.51,7.93-.18,11.34Z"/>
          <path class="cls-1" d="M61.1,43.02c-.32,2.48-1.38,3.79-1.85,4.36-.37.47-.77.91-1.19,1.31-1.6,1.56-3.49,2.68-5.45,3.48h-.01c-.72.28-1.44.54-2.17.72l-25.62-3.58c-1.97-1.06-3.82-2.31-5.41-3.75-.97-.87-1.86-1.8-2.61-2.81-1.38-1.85-2.36-3.92-2.74-6.22-.12-.72-.18-1.42-.18-2.11.1-.2.2-.41.32-.62.68-1.31,1.47-2.58,2.41-3.82,1.28-1.72,2.67-3.07,4.1-4.16-.46.62-.79,1.32-.92,2.06-.09.53-.09,1.06-.03,1.59.03.18.06.4.1.6.31,1.48,1.09,2.88,1.99,4.06,1.13,1.48,2.41,2.57,3.13,2.98,7.87,4.51,15.65,5.66,18.97,5.78,3.69.13,9.56-.17,12.19-3.09.19-.2,1.44-1.12,1.73-3.02.01-.13.04-.24.04-.38.05-.58.01-1.25-.15-2.02,1.18,1.83,2.17,3.96,2.85,6.44.14.51.28,1.06.38,1.62.04.18.08.37.12.55,0,.01,0,.03.01.04Z"/>
        </g>
        <ellipse class="cls-9" cx="56.02" cy="63.14" rx="1.43" ry="1.49"/>
        <rect class="cls-8" x="3.13" y="46.76" width=".82" height="2.84" rx=".35" ry=".35"/>
        <rect class="cls-13" x="2.76" y="49.6" width="3.84" height="2.42" rx="1.19" ry="1.19"/>
      </g>
      <g>
        <g>
          <path class="cls-12" d="M30.05,49c-1.62,3.85-5.78,5.48-9.28,3.63-3.5-1.85-5.02-6.47-3.4-10.32,1.62-3.85,5.78-5.48,9.28-3.63s5.02,6.47,3.4,10.32Z"/>
          <path class="cls-11" d="M27.31,46.78c-.34,1.98-2.06,3.27-3.86,2.87s-2.98-2.33-2.64-4.31,2.06-3.27,3.86-2.87,2.98,2.33,2.64,4.31Z"/>
          <ellipse class="cls-20" cx="26.02" cy="43.07" rx="1.89" ry="2.09" transform="translate(-2.62 1.7) rotate(-3.56)"/>
          <ellipse class="cls-20" cx="20.65" cy="48.79" rx="1.25" ry="1.38" transform="translate(-2.99 1.37) rotate(-3.56)"/>
        </g>
        <g>
          <path class="cls-12" d="M48.42,53.07c-1.62,3.85-5.78,5.48-9.28,3.63s-5.02-6.47-3.4-10.32c1.62-3.85,5.78-5.48,9.28-3.63,3.5,1.85,5.02,6.47,3.4,10.32Z"/>
          <path class="cls-10" d="M44.69,50.13c-.34,2.03-2.11,3.35-3.95,2.94s-3.05-2.38-2.7-4.41c.34-2.03,2.11-3.35,3.95-2.94s3.05,2.38,2.7,4.41Z"/>
          <ellipse class="cls-20" cx="43.37" cy="46.33" rx="1.93" ry="2.14" transform="translate(-2.79 2.78) rotate(-3.56)"/>
          <ellipse class="cls-20" cx="37.87" cy="52.19" rx="1.28" ry="1.41" transform="translate(-3.16 2.45) rotate(-3.56)"/>
        </g>
        <g>
          <path class="cls-22" d="M38.37,59.63c-.28,1.17-.72,2.22-1.29,3.13-1.66,2.66-4.37,4.13-7.11,3.52-1.71-.38-3.14-1.5-4.14-3.07-1.21-1.9-1.78-4.45-1.41-7.09.06.01.11.03.17.05,6.13,1.69,10.68,2.84,13.64,3.43l.14.03Z"/>
          <path class="cls-15" d="M36.09,63.52c-1.29,1.77-3.82,2.87-6.07,2.37-1.41-.31-2.6-1.13-3.45-2.23,1.01-1.29,2.49-2.16,4.18-2.29,2.01-.15,4.19.6,5.34,2.15Z"/>
          <path class="cls-20" d="M37.44,59.9c-.08.42-.27.78-.51,1.02-.25.24-.56.35-.87.28l-10.06-2.23c-.62-.14-1-.96-.85-1.82.02-.12.05-.22.08-.33,5.49,1.52,9.56,2.54,12.22,3.08Z"/>
        </g>
        <path class="cls-14" d="M21.02,54.47l-3.02-.67c-.35-.08-.57-.46-.51-.85l.08-.46c.07-.39.4-.65.75-.57l3.02.67c.35.08.57.46.51.85l-.08.46c-.07.39-.4.65-.75.57Z"/>
        <path class="cls-14" d="M42.75,59.83l-3.23-.72c-.36-.08-.59-.47-.52-.88l.07-.42c.07-.4.42-.67.77-.59l3.23.72c.36.08.59.47.52.88l-.07.42c-.07.4-.42.67-.77.59Z"/>
        <path class="cls-2" d="M16.57,36.38c1.18-.74,2.94-1.62,5.18-1.92.84-.11,1.61-.13,2.29-.09"/>
        <path class="cls-2" d="M51.74,42.9c-.9-1.14-2.32-2.62-4.36-3.73-.76-.42-1.49-.71-2.14-.93"/>
      </g>
    </g>
  </g>
</svg>