<?xml version="1.0" encoding="UTF-8"?>
<svg id="Layer_2" data-name="Layer 2" xmlns="http://www.w3.org/2000/svg" viewBox="0 0 353.22 77.17">
  <defs>
    <style>
      .cls-1, .cls-2, .cls-3, .cls-4, .cls-5, .cls-6 {
        fill: none;
      }

      .cls-2 {
        stroke-width: .71px;
      }

      .cls-2, .cls-3, .cls-7, .cls-8, .cls-9, .cls-10, .cls-11, .cls-4, .cls-5, .cls-12, .cls-6 {
        stroke: #000;
        stroke-miterlimit: 10;
      }

      .cls-2, .cls-3, .cls-4, .cls-5, .cls-6 {
        stroke-linecap: round;
      }

      .cls-3 {
        stroke-width: 2.17px;
      }

      .cls-7 {
        stroke-width: 2.15px;
      }

      .cls-13 {
        fill: #ffbff8;
      }

      .cls-14 {
        fill: #ff6a9c;
      }

      .cls-15 {
        fill: #ebcaa4;
      }

      .cls-8 {
        stroke-width: 1.37px;
      }

      .cls-9 {
        stroke-width: 1.65px;
      }

      .cls-10 {
        stroke-width: 1.62px;
      }

      .cls-16 {
        fill: #6e9e28;
      }

      .cls-17, .cls-11 {
        fill: #fff;
      }

      .cls-11 {
        stroke-width: .38px;
      }

      .cls-18 {
        fill: #7bb02d;
      }

      .cls-19 {
        fill: #f2f2f2;
      }

      .cls-20 {
        fill: #693043;
      }

      .cls-4 {
        stroke-width: 3.29px;
      }

      .cls-5 {
        stroke-width: 2.95px;
      }

      .cls-12 {
        stroke-width: 2.75px;
      }

      .cls-6 {
        stroke-width: 3.55px;
      }
    </style>
  </defs>
  <g id="Layer_1-2" data-name="Layer 1">
    <g>
      <g>
        <path class="cls-18" d="M97.04,27.2c.11-8.19.04-18.36.38-22.31,4.65-7.17,13.86-2.63,13.86,11.34,0,7.31,0,30.65-.04,49.23,0,2.56-.04,6.07-.11,7.75-1.7,3.66-12.95,6.29-13.82-7.02-.26-3.8-.34-12.22-.34-15.36h-7.06v22.46c-2.08,3.66-13.37,7.68-14.01-10.31-.3-8.05-.75-43.67-.3-56.98,5.02-8.05,13.52-4.02,14.09,7.1.34,6.44.11,13.39.11,14.12h7.25Z"/>
        <path class="cls-18" d="M133.85,77.02c-7.89,0-16.77-2.93-18.43-26.55-.98-13.31-.3-31.02.75-46.16,1.66-3.58,12.92-6.22,13.82,7.1.23,3.8-.15,28.68.76,39.21.57,6.44,5.14,7.75,5.93-.29.91-8.78,1.32-33.14.23-44.18,2.95-5.85,14.09-7.9,14.92,10.02.49,10.02.94,13.61-.26,34.02-1.13,18.65-9.86,26.85-17.71,26.85Z"/>
        <path class="cls-18" d="M178.79,73.87c-4.99,3.88-16.69,5.71-23.49-5.12-3.66-8.92.57-23.92,6.72-18,5.33,5.12,9.14,5.85,9.74,1.39.42-2.93.38-3.8-2.46-4.17-6.12-.88-12.73-7.61-13.9-21.36-.49-6.14.79-20.56,9.86-25.24,4.99-2.63,11.9-1.39,15.14,2.78,6.61,8.49,3.13,20.92-1.21,22.9-2.76-6.58-11.33-7.39-11.41-.95,0,1.61.57,2.56,2.49,3.07,5.51,1.39,8.42,3.07,9.78,4.68,9.59,11.48,5.82,34.38-1.28,40.01Z"/>
        <path class="cls-18" d="M205.97,18.13c1.4-4.17,4.53-12.73,5.93-16.82,5.36-2.12,10.99,6.07,7.86,18.58-1.96,7.9-2.38,8.49-4.8,15.95-.3.88-.3,1.54-.04,2.49,2.76,9.95,6.31,20.63,7.74,27.94-1.44,9.44-10.46,17.12-14.46,1.98-.79-3.07-1.78-6.66-3.55-13.39-.87,2.63-1.93,6-2.08,7.53-.15,1.54-.11,5.85.08,9.95-3.25,5.34-12.5,5.12-13.41-7.9-.87-12.14-1.21-44.48-.49-58.23,3.02-7.31,13.44-7.46,13.71,6.8.19,8.63.11,7.68,0,13.97-.04.37,0,.8,0,1.68,1.25-3.8,2.34-7.24,3.51-10.53Z"/>
        <path class="cls-18" d="M240.22,76.58c-9.06,0-13.41-4.75-14.05-18.8-.57-11.92-.53-30.28.11-52.3,6.27-7.17,19.83-5.85,24.81-.73,6.08,6.22,8.95,16.24,8.95,31.97,0,13.39-3.44,39.87-19.83,39.87ZM247.13,37.59c.04-14.34-4.87-13.31-7.89-12.22,0,4.61-.08,17.12,0,25.38.04,2.27,1.21,2.63,1.78,2.63,2.91-.15,6.12-.95,6.12-15.8Z"/>
        <path class="cls-18" d="M267.25,76.51c-2.95-1.32-4.72-5.05-5.02-10.83-.11-2.41-.11-4.9.11-7.31.38-4.54,1.89-7.53,4.15-8.92,1.62-1.02,3.32-1.24,5.02-.51,3.47,1.46,5.63,7.17,5.33,14.19-.08,2.05-.26,4.1-.64,5.92-1.06,5.27-3.44,8.05-6.65,8.12-.75-.22-1.55-.37-2.3-.66Z"/>
        <path class="cls-18" d="M296.67,26.54c-2.68,3.22-3.25,8.78-2.83,14.48.6,8.63,4.3,11.41,8.16,10.31,2.57-.66,5.82-4.83,6.72-5.93,5.32,1.98,8.8,19.68-.83,28.46-4.04,3.66-10.65,3.15-15.03,1.02-6.57-3.29-10.69-11.48-12.54-23.92-1.25-8.63-1.4-17.34.11-25.97,1.7-9.73,5.17-16.09,9.89-20.63,6.31-5.93,14.01-5.93,22.13,3.15,1.89,13.97-4.87,21.36-9.82,17.48-2.3-1.1-3.93-.95-5.97,1.54Z"/>
        <path class="cls-18" d="M351.61,23.11c1.77,9.36,2.19,18.87.68,28.53-2.04,12.73-6.46,20.77-13.18,23.85-5.44,2.56-10.76,1.76-15.79-3.29-4.8-4.75-7.55-12.58-8.72-22.6-1.13-9.44-.83-20.26.94-27.8,2.38-10.31,7.4-21.29,17.79-21.36,12.88-.15,17.15,16.9,18.28,22.68ZM328.54,39.93c.26,8.49,3.17,11.48,5.14,11.19,2-.22,4.46-3.22,4.68-11.48.26-8.27-2.15-13.02-4.83-13.02s-5.29,4.61-4.99,13.31Z"/>
      </g>
      <g>
        <g>
          <path class="cls-5" d="M17.07,32.6c-7.63,9.54-12.46,13.84-14.49,12.89-1.47-.69-1.47-4.15,0-10.37"/>
          <line class="cls-4" x1="16.22" y1="73.12" x2="30.2" y2="50.46"/>
          <g>
            <path d="M30.2,74.87c1.98-4,5.93-3.98,7.91,0,.03.09.19.27.04.34-.67.1-1.35.12-2.02.13-.99.06-2.97.06-3.96,0-.66,0-1.32-.05-1.98-.12-.07,0-.11-.07-.11-.13,0-.02,0-.03.01-.04l.09-.18h0Z"/>
            <line class="cls-6" x1="37.17" y1="51.54" x2="37.63" y2="73.38"/>
          </g>
          <path d="M11.25,70.62c3.49-1.92,5.74-.03,4.53,3.75-.04.08-.06.34-.21.25-1.14-.74-2.46-1.8-3.46-2.72-.37-.32-.73-.66-1.06-1.02-.04-.04-.04-.1,0-.14,0,0,.01-.01.02-.02l.18-.1h0Z"/>
          <g>
            <path class="cls-18" d="M43.54,7.04c.1.04.21.06.32.1.09.03.19.05.31.09.1.04.23.08.36.11.09.04.18.06.28.09.14.05.28.1.45.15,3.37,1.21,7.59,3.31,10.89,7,1.97,2.17,3.62,4.89,4.61,8.31.14.49.28,1,.38,1.52.04.18.08.34.12.52,2.47,12.64-5.49,22.88-6.45,24.03-4.1,4.96-8.86,7.17-13.03,8.03h-.01c-5.54,1.16-10.05-.04-10.58-.24-1.52-.59-14.49-4.26-18.78-19.21-1.83-6.41-1.83-13.23,1.08-19.52.26-.58.56-1.15.88-1.73.67-1.23,1.48-2.43,2.41-3.59,1.67-2.1,3.52-3.65,5.42-4.77,1.75-1.02,3.53-1.69,5.29-2.12,1.28-.31,2.52-.48,3.72-.55.04,0,.09-.01.14-.01h.01s.04.04.04.04h.01c.66.11,1.27.22,1.85.3,5.86.92,7.59,1.01,8.64,1.12l1.64.33Z"/>
            <path class="cls-16" d="M16.43,13.21c.79,13.42,3.17,26.7,9.33,38.76-7.82-11.08-10.44-25.42-9.33-38.76h0Z"/>
            <path class="cls-15" d="M58.09,18.73c0,.13-.02.24-.04.36-.3,1.79-1.53,2.66-1.73,2.85-2.63,2.74-8.5,3.03-12.19,2.91-3.32-.11-11.1-1.19-18.98-5.45-.72-.38-2-1.42-3.12-2.8-.89-1.11-1.68-2.44-1.98-3.82-.05-.18-.08-.38-.1-.56-.07-.49-.07-.99.02-1.49.53-3.1,5.34-5.26,6.79-5.02.22-.5,1.66-.71,3.13-.8,1.67-.09,3.39-.02,3.39-.02.08.01.16.03.24.05.05.01.11.02.16.02h.01c.54.11,1.04.2,1.51.28,4.8.87,6.22.98,7.07,1.1.53.07.85.13,1.61.38.15.04.34.11.55.17.07.03.15.05.23.08.12.04.23.08.37.13,3.36,1.14,10.92,4.11,12.63,8.92.38,1.06.48,1.97.4,2.72Z"/>
            <path class="cls-19" d="M31.61,8.71c-1.58.14-3.74.36-4.75,1.53-.54.62-.51,1.23-.45,2.29.1,1.99,1.25,3.89,2.39,4.27.12.04.45.13.8.34.49.29.58.53.86.76.55.45,2.46,1.19,2.88,1.26,2.01.31,3.4.91,5.29,1.5,3.43,1.07,10.18.93,12.63-1.23,1.45-1.28.57-2.94-.65-4.71-1.61-2.34-5.05-3.53-7.78-4.48-1.19-.41-6.06-2.01-11.22-1.54Z"/>
            <path class="cls-1" d="M59.45,29.08c-.38.44-.77.86-1.2,1.24-1.6,1.47-3.48,2.52-5.44,3.27h-.01c-5.33,2.02-11.26,1.81-13.7,1.57-.29-.03-.53-.06-.72-.09-3.4-.48-7.34-1.49-11.05-3.08-2.83-1.21-5.52-2.74-7.73-4.62-2.76-2.3-4.76-5.15-5.36-8.5-.26-1.51-.22-2.96.11-4.3.15-.71.39-1.39.69-2.03,1.21-2.62,3.46-4.64,6.15-5.62.46-.17.94-.32,1.4-.48,1.94-.6,3.88-1.02,5.77-1.26,1.25-.17,2.47-.27,3.64-.31.47-.02.91-.02,1.35-.02,5.77.95,7.46,1.08,8.49,1.21,3.47,1.08,9.78,3.49,14.18,7,2.2,1.74,3.95,3.76,4.62,6.04.07.21.13.43.17.63.17.59.29,1.14.37,1.67.79,4.76-1.11,6.94-1.74,7.69Z"/>
            <path class="cls-16" d="M35.99,57.14c10.62-4.35,17.34-10.43,20.79-21.59-.23,1.29-.58,2.57-.97,3.83-2.95,9.41-10.56,15.24-19.83,17.77h0Z"/>
          </g>
          <path class="cls-3" d="M56.98,45.79c2.75-.58,18.84-4.07,18.41-7.11-.33-2.33-10.23-3.38-14.6-3.75"/>
          <g>
            <path class="cls-18" d="M60.93,37.17l-10.48-1.48-25.62-3.58c-1.97-1.06-3.82-2.31-5.41-3.75-.97-.87-1.86-1.8-2.61-2.81-1.38-1.85-2.36-3.92-2.74-6.22-.12-.72-.18-1.42-.18-2.11.1-.2.2-.41.32-.62.68-1.31,1.47-2.58,2.41-3.82,1.28-1.72,2.67-3.07,4.1-4.16-.46.62-.79,1.32-.92,2.06-.09.53-.09,1.06-.03,1.59.03.18.06.4.1.6.31,1.48,1.09,2.88,1.99,4.06,1.13,1.48,2.41,2.57,3.13,2.98,7.87,4.51,15.65,5.66,18.97,5.78,3.69.13,9.56-.17,12.19-3.09.19-.2,1.44-1.12,1.73-3.02.01-.13.04-.24.04-.38.05-.58.01-1.25-.15-2.02,1.18,1.83,2.17,3.96,2.85,6.44.14.51.28,1.06.38,1.62.04.18.08.37.12.55,0,.01,0,.03.01.04.74,4.09.51,7.93-.18,11.34Z"/>
            <path class="cls-1" d="M61.1,25.83c-.32,2.48-1.38,3.79-1.85,4.36-.37.47-.77.91-1.19,1.31-1.6,1.56-3.49,2.68-5.45,3.48h-.01c-.72.28-1.44.54-2.17.72l-25.62-3.58c-1.97-1.06-3.82-2.31-5.41-3.75-.97-.87-1.86-1.8-2.61-2.81-1.38-1.85-2.36-3.92-2.74-6.22-.12-.72-.18-1.42-.18-2.11.1-.2.2-.41.32-.62.68-1.31,1.47-2.58,2.41-3.82,1.28-1.72,2.67-3.07,4.1-4.16-.46.62-.79,1.32-.92,2.06-.09.53-.09,1.06-.03,1.59.03.18.06.4.1.6.31,1.48,1.09,2.88,1.99,4.06,1.13,1.48,2.41,2.57,3.13,2.98,7.87,4.51,15.65,5.66,18.97,5.78,3.69.13,9.56-.17,12.19-3.09.19-.2,1.44-1.12,1.73-3.02.01-.13.04-.24.04-.38.05-.58.01-1.25-.15-2.02,1.18,1.83,2.17,3.96,2.85,6.44.14.51.28,1.06.38,1.62.04.18.08.37.12.55,0,.01,0,.03.01.04Z"/>
          </g>
          <ellipse class="cls-8" cx="56.02" cy="45.95" rx="1.43" ry="1.49"/>
          <rect class="cls-7" x="3.13" y="29.57" width=".82" height="2.84" rx=".35" ry=".35"/>
          <rect class="cls-12" x="2.76" y="32.41" width="3.84" height="2.42" rx="1.19" ry="1.19"/>
        </g>
        <g>
          <g>
            <path class="cls-11" d="M30.05,31.8c-1.62,3.85-5.78,5.48-9.28,3.63-3.5-1.85-5.02-6.47-3.4-10.32,1.62-3.85,5.78-5.48,9.28-3.63s5.02,6.47,3.4,10.32Z"/>
            <path class="cls-10" d="M27.31,29.59c-.34,1.98-2.06,3.27-3.86,2.87s-2.98-2.33-2.64-4.31,2.06-3.27,3.86-2.87,2.98,2.33,2.64,4.31Z"/>
            <ellipse class="cls-17" cx="26.02" cy="25.87" rx="1.89" ry="2.09" transform="translate(-1.55 1.66) rotate(-3.56)"/>
            <ellipse class="cls-17" cx="20.65" cy="31.59" rx="1.25" ry="1.38" transform="translate(-1.92 1.34) rotate(-3.56)"/>
          </g>
          <g>
            <path class="cls-11" d="M48.42,35.87c-1.62,3.85-5.78,5.48-9.28,3.63s-5.02-6.47-3.4-10.32c1.62-3.85,5.78-5.48,9.28-3.63,3.5,1.85,5.02,6.47,3.4,10.32Z"/>
            <path class="cls-9" d="M44.69,32.94c-.34,2.03-2.11,3.35-3.95,2.94s-3.05-2.38-2.7-4.41c.34-2.03,2.11-3.35,3.95-2.94s3.05,2.38,2.7,4.41Z"/>
            <ellipse class="cls-17" cx="43.37" cy="29.14" rx="1.93" ry="2.14" transform="translate(-1.72 2.75) rotate(-3.56)"/>
            <ellipse class="cls-17" cx="37.87" cy="34.99" rx="1.28" ry="1.41" transform="translate(-2.1 2.42) rotate(-3.56)"/>
          </g>
          <g>
            <path class="cls-20" d="M38.37,42.44c-.28,1.17-.72,2.22-1.29,3.13-1.66,2.66-4.37,4.13-7.11,3.52-1.71-.38-3.14-1.5-4.14-3.07-1.21-1.9-1.78-4.45-1.41-7.09.06.01.11.03.17.05,6.13,1.69,10.68,2.84,13.64,3.43l.14.03Z"/>
            <path class="cls-14" d="M36.09,46.33c-1.29,1.77-3.82,2.87-6.07,2.37-1.41-.31-2.6-1.13-3.45-2.23,1.01-1.29,2.49-2.16,4.18-2.29,2.01-.15,4.19.6,5.34,2.15Z"/>
            <path class="cls-17" d="M37.44,42.71c-.08.42-.27.78-.51,1.02-.25.24-.56.35-.87.28l-10.06-2.23c-.62-.14-1-.96-.85-1.82.02-.12.05-.22.08-.33,5.49,1.52,9.56,2.54,12.22,3.08Z"/>
          </g>
          <path class="cls-13" d="M21.02,37.27l-3.02-.67c-.35-.08-.57-.46-.51-.85l.08-.46c.07-.39.4-.65.75-.57l3.02.67c.35.08.57.46.51.85l-.08.46c-.07.39-.4.65-.75.57Z"/>
          <path class="cls-13" d="M42.75,42.63l-3.23-.72c-.36-.08-.59-.47-.52-.88l.07-.42c.07-.4.42-.67.77-.59l3.23.72c.36.08.59.47.52.88l-.07.42c-.07.4-.42.67-.77.59Z"/>
          <path class="cls-2" d="M16.57,19.19c1.18-.74,2.94-1.62,5.18-1.92.84-.11,1.61-.13,2.29-.09"/>
          <path class="cls-2" d="M51.74,25.7c-.9-1.14-2.32-2.62-4.36-3.73-.76-.42-1.49-.71-2.14-.93"/>
        </g>
      </g>
    </g>
  </g>
</svg>