<?xml version="1.0" encoding="UTF-8"?>
<svg id="Layer_2" data-name="Layer 2" xmlns="http://www.w3.org/2000/svg" viewBox="0 0 131.63 133.39">
  <defs>
    <style>
      .cls-1 {
        stroke-width: 5px;
      }

      .cls-1, .cls-2, .cls-3, .cls-4, .cls-5, .cls-6, .cls-7, .cls-8, .cls-9, .cls-10 {
        stroke-miterlimit: 10;
      }

      .cls-1, .cls-2, .cls-3, .cls-4, .cls-6, .cls-7, .cls-8, .cls-10 {
        stroke: #000;
      }

      .cls-1, .cls-2, .cls-11, .cls-5, .cls-9 {
        stroke-linecap: round;
      }

      .cls-2 {
        stroke-width: 4px;
      }

      .cls-3 {
        stroke-width: .56px;
      }

      .cls-11 {
        stroke: #966d3e;
        stroke-linejoin: round;
        stroke-width: .5px;
      }

      .cls-11, .cls-5, .cls-9 {
        fill: none;
      }

      .cls-12 {
        fill: #260033;
      }

      .cls-13 {
        fill: #bd9160;
        opacity: .75;
      }

      .cls-4 {
        fill: #37004a;
        stroke-width: 1.13px;
      }

      .cls-5, .cls-9 {
        stroke: #212121;
      }

      .cls-14, .cls-15 {
        fill: #fff;
      }

      .cls-15 {
        font-family: MalayalamMN, 'Malayalam MN';
        font-size: 27.44px;
      }

      .cls-6 {
        fill: #262626;
      }

      .cls-16 {
        fill: #966d3e;
      }

      .cls-17 {
        fill: #c2fcff;
        opacity: .8;
      }

      .cls-7 {
        stroke-width: 3.6px;
      }

      .cls-7, .cls-8, .cls-18 {
        fill: #dbad79;
      }

      .cls-8 {
        stroke-width: 3.77px;
      }

      .cls-9 {
        stroke-width: 2px;
      }

      .cls-19 {
        fill: #c99f6f;
      }

      .cls-10 {
        stroke-width: 3px;
      }
    </style>
  </defs>
  <g id="Layer_1-2" data-name="Layer 1">
    <g>
      <path class="cls-6" d="M96.85,110.66c-1.43-.46-3.72,1.31-4.2,3.47-.33,1.49.22,3.03,1.1,4.03.4.46.81.72.99.84,1.2.73,3.41,1.25,4.78,0,1-.91,1.59-2.81.67-3.84-1.05-1.18-3.54-.6-3.71.07-.16.65,1.81,1.65,1.86,1.59.07-.09-3.83-2.65-3.38-3.67.33-.75,2.72-.04,3.04-.86.2-.49-.42-1.38-1.17-1.62Z"/>
      <g>
        <path d="M23.54,45.3c-2.04,2.35-2.99,4.09-3.19,6.13-.41,4.13,2.62,6.11,1.6,9.09-.95,2.78-3.98,2.22-4.99,5.28-.88,2.67,1.07,4.12,0,6.38-1.19,2.52-4.28,2.14-4.59,3.97-.34,1.99,3.13,3.32,2.8,5.5-.22,1.4-1.75,1.43-2.89,2.96-2.04,2.72.04,6.32,0,10.57-.04,4.06-1.98,4.65-6.29,12.89-3.89,7.44-7.62,14.56-5.19,18.18,1.23,1.83,3.75,2.32,6.99,2.96,2.83.55,4.88.96,6.99,0,4.12-1.87,5.13-7.4,6.99-6.97.79.18.74,1.22,1.8,1.69,1.53.68,3.29-.77,4.99-1.9,5.41-3.6,6.39-1.52,10.78-4.86,2.72-2.07,3.41-3.68,5.79-4.02,2.01-.28,3.64.57,4.19.85,9.03,4.41,29.8-1.89,33.74,5.92,1.05,2.08-.21,2.94,1.2,5.92,1.85,3.9,5.92,6.46,9.78,7.07,4.54.72,5.12-1.82,10.78-2.21,7.89-.54,9.81,4.19,13.98,2.21,3.8-1.81,2.59-5.95,8.99-11.93,2.18-2.04,3.05-2.24,3.59-3.8,1.25-3.6-2.22-5.73-2.2-11.84.02-3.33,1.06-4.31.2-6.55-.87-2.27-2.33-2.3-4.39-4.52-3.51-3.77-1.54-6.12-5.19-11.97-2.24-3.59-4.04-4.4-3.99-6.97.05-2.49,1.75-3.12,1.4-5.07-.48-2.65-3.78-2.29-5.99-5.92-1.53-2.51-.37-3.37-2-6.36-1.5-2.75-2.94-2.87-5.19-5.69-2.13-2.67-2.52-4.67-3.59-6.97-2.18-4.69-5.61-7.23-10.38-10.78-9.1-6.76-19.99-14.85-34.34-13.1,0,0-12.82,1.56-32.15,23.88Z"/>
        <path class="cls-6" d="M32.77,88.12c-1.43-.46-3.72,1.31-4.2,3.47-.33,1.49.22,3.03,1.1,4.03.4.46.81.72.99.84,1.2.73,3.41,1.25,4.78,0,1-.91,1.59-2.81.67-3.84-1.05-1.18-3.54-.6-3.71.07-.16.65,1.81,1.65,1.86,1.59.07-.09-3.83-2.65-3.38-3.67.33-.75,2.72-.04,3.04-.86.2-.49-.42-1.38-1.17-1.62Z"/>
        <path class="cls-8" d="M56.54,66.76c-3.55,1.37-7.02,2.76-10.4,4.16-.75,5.57-1.12,12.76,0,21.02,1.89,14,1.75,21.27,7.6,24.79,1.41.85,7.19,3.93,19.09,0,3.73-6.8,7.46-13.61,11.19-20.41-3.18-12.03-6.36-24.06-9.54-36.09-5.84,2-11.82,4.17-17.93,6.54Z"/>
        <path class="cls-5" d="M95.71,55.87c3.48-.9,4.86.05,5.49,1.02,1.14,1.76-.04,3.83,1.12,6.99,1.15,3.11,3.03,3.06,3.49,5.49.25,1.32.09,3.34-1.87,6.4"/>
        <ellipse class="cls-19" cx="64.15" cy="92.02" rx="16.28" ry="11.46"/>
        <path class="cls-9" d="M92.89,80.56c-.67.93-2.26,3.44-2.11,6.81.03.77.27,6.1,4.09,7.56,2.47.95,6.01.11,7.19-2.3,1.01-2.06.25-5.18-1.25-5.63-1.21-.36-3.3.9-3.21,2.35.06.83.82,1.6,1.86,1.98"/>
        <path class="cls-7" d="M52.14,28.73c-16.97,3.73-21.77,8.85-23.06,12.79-1.04,3.17,3.08,4.66,2.13,16.45-.73,8.96-1.79,9.66-.73,13.63,1.16,4.34,6.45,15.57,18.2,20.48,10.44,4.37,21.15.81,23.4,0,11.77-4.22,14.4-11.2,17.15-15.84,3.59-6.05,1.75-11.74,0-20.71-2.01-10.33-3.12-16.05-8.56-20.71-9.73-8.35-25.39-6.51-28.53-6.09Z"/>
        <path class="cls-13" d="M83.46,40.48c1.61,8.66,10.5,27.27-2.97,25.83s-46.56-12.53-46.56-20.88,10.92-15.11,24.4-15.11,23.62,1.97,25.14,10.16Z"/>
        <g>
          <path class="cls-4" d="M98.23,51.86c-11.39-11.94-27.69-20.6-40.28-19.75-14.24.94-26.38,14.37-34.22,24.28-.07.07-.14.17-.22.26-.08.1-.15.18-.23.28.15-.8.31-1.79.43-3.05.38-3.92.03-6.42-.49-12.6-.13-1.49-.25-2.83-.34-4.02-.01-.07-.01-.16-.02-.23-.35-4.2-.51-6.42-.43-6.93.02-.16.04-.28.04-.37.39-.48,1.57-2.4,4.62-8.49,3.66-7.3,8.39-7.2,11.67-9.19,2.78-1.68,8.1-4.9,14.14-6.01,14.47-2.63,28.99,7.67,34.25,18.13,3.5,6.97,4.15,14.16,4.15,14.16.03.43.07.84.1,1.24v.2c.03.61.05,1.19.05,1.72.01,1.01-.02,1.87-.05,2.57,2.28,2.6,4.56,5.18,6.84,7.8Z"/>
          <path class="cls-12" d="M25.57,53.56c-.39-.24,4.34-13.18,14.5-20.21,11.48-7.95,24.6-6.51,26.76-6.24,16.35,2.03,26.04,20.29,25.78,20.64-.22.3-9.67-8.86-21.61-14.1-3.78-1.66-16.11-3.34-28.31,3.82-10.69,6.27-16.73,16.32-17.12,16.09Z"/>
          <g>
            <g>
              <polygon points="50.02 9.93 64.86 9.13 65.5 22.58 50.66 23.38 50.02 9.93"/>
              <path d="M64.32,9.72l.59,12.32-13.72.74-.59-12.32,13.72-.74M65.4,8.54l-15.97.86.69,14.58,15.97-.86-.69-14.58h0Z"/>
            </g>
            <text class="cls-15" transform="translate(50.81 23.34) rotate(-3.08) scale(1.09 1) skewX(-.32)"><tspan x="0" y="0">s</tspan></text>
            <path class="cls-3" d="M60.78,25.92c.24-.12.47-.23.71-.35.03-.01.04-.04.02-.07-.23-.37-.47-.74-.7-1.11l.91-.15c.06-.01.08-.08.03-.11-.88-.56-1.76-1.11-2.65-1.67-.04-.03-.1,0-.09.05.07.94.15,1.88.22,2.82,0,.04.06.06.1.03.22-.19.43-.39.65-.58.24.37.48.74.72,1.12.02.02.05.03.08.02Z"/>
          </g>
        </g>
        <ellipse cx="45.43" cy="55.69" rx="5.06" ry="4.53"/>
        <ellipse cx="68.85" cy="52.69" rx="4.75" ry="4.6"/>
        <ellipse class="cls-14" cx="46.64" cy="53.74" rx="1.59" ry="1.47"/>
        <ellipse class="cls-14" cx="45.95" cy="55.12" rx=".28" ry=".24"/>
        <path class="cls-19" d="M39.22,55.47c.49.31,1.37-1.4,3.58-2.39,3.44-1.55,6.38-.61,6.54-1.2.16-.59-2.62-2.26-5.48-1.87-.51.07-2.45.37-3.72,2.01-1,1.29-1.39,3.15-.92,3.46Z"/>
        <circle class="cls-14" cx="69.72" cy="50.46" r="1.49"/>
        <path class="cls-19" d="M63.87,51.61c.21.24,1.32-1.1,3.72-1.73,3.44-.91,6,.56,6.24,0,.25-.57-2.03-2.98-4.75-2.87-3.43.14-5.55,4.22-5.21,4.6Z"/>
        <path d="M64.02,45.37c3.04-6.33,13.37-6.95,17-.88.06.11-.05.25-.17.19-5.37-2.27-11.57-1.8-16.68.95-.16.07-.26-.11-.15-.26h0Z"/>
        <path class="cls-18" d="M36.91,52.94c.4-.75.8-1.49,1.2-2.24"/>
        <ellipse class="cls-16" cx="60.29" cy="68.19" rx="3.56" ry="2.25" transform="translate(-8.4 8.47) rotate(-7.52)"/>
        <ellipse class="cls-18" cx="58.44" cy="66.79" rx="3.06" ry="1.78"/>
        <path class="cls-14" d="M60.29,82.84c-4.37-.22-8.66-5.28-9.38-6.71-.21-.42.17-.9.63-.78,2.29.62,5.35.99,8.7.99s6.66-.41,8.98-1.07c.42-.12.81.29.66.71-.37,1.08-4.07,7.13-9.59,6.85Z"/>
        <g>
          <path class="cls-10" d="M35.73,50.6l15.39-2.05c1.78-.24,3.39,1.03,3.64,2.81,1.26,9.16-.15,16.56-8.15,16.58-9.24.02-12.2-4.5-13.65-13.62-.29-1.8.97-3.49,2.77-3.73Z"/>
          <path class="cls-10" d="M62.5,48.81l16.24-2.16c1.52-.2,2.93.85,3.15,2.36,1.38,9.39-.46,16.43-8.08,17.08-9.35.8-12.29-4.64-13.72-14.05-.24-1.56.84-3.03,2.41-3.23Z"/>
          <line class="cls-2" x1="32.21" y1="53.25" x2="24.4" y2="56.89"/>
          <line class="cls-2" x1="82.32" y1="48.76" x2="89.09" y2="52.79"/>
          <line class="cls-1" x1="55.31" y1="56.61" x2="61.13" y2="56.19"/>
          <rect class="cls-17" x="45.64" y="52.53" width="6.04" height="2.27" rx="1.14" ry="1.14" transform="translate(-14.02 17.35) rotate(-17.72)"/>
          <rect class="cls-17" x="43.72" y="54.62" width="6.04" height="2.27" rx="1.14" ry="1.14" transform="translate(-14.75 16.86) rotate(-17.72)"/>
          <rect class="cls-17" x="73.81" y="49.6" width="6.04" height="2.27" rx="1.14" ry="1.14" transform="translate(-11.8 25.78) rotate(-17.72)"/>
          <rect class="cls-17" x="71.89" y="51.7" width="6.04" height="2.27" rx="1.14" ry="1.14" transform="translate(-12.53 25.3) rotate(-17.72)"/>
        </g>
        <path d="M33.33,42.74c2.84-7.38,14.82-6.73,17.41.53.05.13-.1.26-.22.19-5.15-3.07-11.8-3.64-17.02-.43-.19.08-.29-.12-.18-.29h0Z"/>
        <path class="cls-11" d="M48.28,75.66c-.05-.65.11-1.14.67-1.54.51-.36,1.35-.42,1.86-.45"/>
        <path class="cls-11" d="M71.21,74.67c-.51-.36-1.35-.42-1.86-.45"/>
      </g>
    </g>
  </g>
</svg>