<?xml version="1.0" encoding="UTF-8"?>
<svg id="Layer_2" data-name="Layer 2" xmlns="http://www.w3.org/2000/svg" viewBox="0 0 131.63 130.34">
  <defs>
    <style>
      .cls-1 {
        stroke-width: .56px;
      }

      .cls-1, .cls-2, .cls-3, .cls-4, .cls-5, .cls-6, .cls-7, .cls-8, .cls-9, .cls-10, .cls-11 {
        stroke-miterlimit: 10;
      }

      .cls-1, .cls-2, .cls-3, .cls-5, .cls-6, .cls-7, .cls-9, .cls-10, .cls-11 {
        stroke: #000;
      }

      .cls-12 {
        stroke: #966d3e;
        stroke-linejoin: round;
        stroke-width: .5px;
      }

      .cls-12, .cls-2, .cls-4, .cls-8, .cls-9, .cls-10 {
        stroke-linecap: round;
      }

      .cls-12, .cls-2, .cls-4, .cls-8, .cls-9, .cls-10, .cls-11 {
        fill: none;
      }

      .cls-2, .cls-8 {
        stroke-width: 2px;
      }

      .cls-13 {
        fill: #ffbff8;
        opacity: .4;
      }

      .cls-14 {
        fill: #260033;
      }

      .cls-15 {
        font-family: MalayalamMN, 'Malayalam MN';
        font-size: 26.88px;
      }

      .cls-15, .cls-16 {
        fill: #fff;
      }

      .cls-3 {
        fill: #37004a;
        stroke-width: 1.11px;
      }

      .cls-4, .cls-8 {
        stroke: #212121;
      }

      .cls-5 {
        fill: #262626;
      }

      .cls-17 {
        fill: #966d3e;
      }

      .cls-6 {
        stroke-width: 3.56px;
      }

      .cls-6, .cls-7, .cls-18 {
        fill: #dbad79;
      }

      .cls-7 {
        stroke-width: 3.77px;
      }

      .cls-19 {
        fill: #c99f6f;
      }

      .cls-9 {
        stroke-width: 4px;
      }

      .cls-10 {
        stroke-width: 5px;
      }

      .cls-11 {
        stroke-width: 3px;
      }
    </style>
  </defs>
  <g id="Layer_1-2" data-name="Layer 1">
    <g>
      <path d="M118.78,130.34c3.8-1.81,2.59-5.95,8.99-11.93,2.18-2.04,3.05-2.24,3.59-3.8,1.25-3.6-2.22-5.73-2.2-11.84.02-3.33,1.06-4.31.2-6.55-.87-2.27-2.33-2.3-4.39-4.52-3.51-3.77-1.54-6.12-5.19-11.97-2.24-3.59-4.04-4.4-3.99-6.97.05-2.49,1.75-3.12,1.4-5.07-.48-2.65-3.78-2.29-5.99-5.92-1.53-2.51-.37-3.37-2-6.36-1.5-2.75-2.94-2.87-5.19-5.69-2.13-2.67-2.52-4.67-3.59-6.97-2.18-4.69-5.61-7.23-10.38-10.78-9.1-6.76-19.99-14.85-34.34-13.1,0,0-12.82,1.56-32.15,23.88-2.04,2.35-2.99,4.09-3.19,6.13-.41,4.13,2.62,6.11,1.6,9.09-.95,2.78-3.98,2.22-4.99,5.28-.88,2.67,1.07,4.12,0,6.38-1.19,2.52-4.28,2.14-4.59,3.97-.34,1.99,3.13,3.32,2.8,5.5-.22,1.4-1.75,1.43-2.89,2.96-2.04,2.72.04,6.32,0,10.57-.04,4.06-1.98,4.65-6.29,12.89-3.89,7.44-7.62,14.56-5.19,18.18,1.23,1.83,3.75,2.32,6.99,2.96"/>
      <path d="M14.75,126.65c4.12-1.87,5.13-7.4,6.99-6.97.79.18.74,1.22,1.8,1.69,1.53.68,3.29-.77,4.99-1.9,5.41-3.6,6.39-1.52,10.78-4.86,2.72-2.07,3.41-3.68,5.79-4.02,2.01-.28,3.64.57,4.19.85,9.03,4.41,29.8-1.89,33.74,5.92,1.05,2.08-.21,2.94,1.2,5.92,1.85,3.9,5.92,6.46,9.78,7.07"/>
      <path class="cls-5" d="M32.77,85.56c-1.43-.46-3.72,1.31-4.2,3.47-.33,1.49.22,3.03,1.1,4.03.4.46.81.72.99.84,1.2.73,3.41,1.25,4.78,0,1-.91,1.59-2.81.67-3.84-1.05-1.18-3.54-.6-3.71.07-.16.65,1.81,1.65,1.86,1.59.07-.09-3.83-2.65-3.38-3.67.33-.75,2.72-.04,3.04-.86.2-.49-.42-1.38-1.17-1.62Z"/>
      <path class="cls-7" d="M56.54,64.2c-3.55,1.37-7.02,2.76-10.4,4.16-.75,5.57-1.12,12.76,0,21.02,1.89,14,1.75,21.27,7.6,24.79,1.41.85,7.19,3.93,19.09,0,3.73-6.8,7.46-13.61,11.19-20.41-3.18-12.03-6.36-24.06-9.54-36.09-5.84,2-11.82,4.17-17.93,6.54Z"/>
      <path class="cls-4" d="M95.71,53.31c3.48-.9,4.86.05,5.49,1.02,1.14,1.76-.04,3.83,1.12,6.99,1.15,3.11,3.03,3.06,3.49,5.49.25,1.32.09,3.34-1.87,6.4"/>
      <ellipse class="cls-19" cx="64.15" cy="89.46" rx="16.28" ry="11.46"/>
      <path class="cls-8" d="M92.89,78c-.67.93-2.26,3.44-2.11,6.81.03.77.27,6.1,4.09,7.56,2.47.95,6.01.11,7.19-2.3,1.01-2.06.25-5.18-1.25-5.63-1.21-.36-3.3.9-3.21,2.35.06.83.82,1.6,1.86,1.98"/>
      <path class="cls-5" d="M91.57,112.36c-1.43-.46-3.72,1.31-4.2,3.47-.33,1.49.22,3.03,1.1,4.03.4.46.81.72.99.84,1.2.73,3.41,1.25,4.78,0,1-.91,1.59-2.81.67-3.84-1.05-1.18-3.54-.6-3.71.07-.16.65,1.81,1.65,1.86,1.59.07-.09-3.83-2.65-3.38-3.67.33-.75,2.72-.04,3.04-.86.2-.49-.42-1.38-1.17-1.62Z"/>
      <path class="cls-6" d="M52.14,26.16c-16.97,3.64-21.77,8.64-23.06,12.49-1.04,3.09.46,4.63,2.13,16.05,1.42,9.71.43,9.21,1.49,13.08,1.16,4.23,4.55,16.69,16.22,21.69,10.46,4.48,19.34,2.72,23.51,0,10.43-6.82,15.7-14.52,16.8-16.93,2.86-6.27,1.75-11.46,0-20.22-2.01-10.08-3.12-15.66-8.56-20.22-9.73-8.15-25.39-6.36-28.53-5.95Z"/>
      <path d="M61.24,41.53c3.04-6.33,13.37-6.95,17-.88.06.11-.05.25-.17.19-5.37-2.27-11.57-1.8-16.68.95-.16.07-.26-.11-.15-.26h0Z"/>
      <path class="cls-18" d="M36.91,50.38c.4-.75.8-1.49,1.2-2.24"/>
      <ellipse class="cls-17" cx="60.29" cy="65.63" rx="3.56" ry="2.25" transform="translate(-8.07 8.45) rotate(-7.52)"/>
      <ellipse class="cls-18" cx="58.44" cy="64.23" rx="3.06" ry="1.78"/>
      <g>
        <path class="cls-11" d="M35.73,45.64l15.39-2.05c1.78-.24,3.39,1.03,3.64,2.81,1.26,9.16-.15,16.56-8.15,16.58-9.24.02-12.2-4.5-13.65-13.62-.29-1.8.97-3.49,2.77-3.73Z"/>
        <path class="cls-11" d="M62.5,43.85l16.24-2.16c1.52-.2,2.93.85,3.15,2.36,1.38,9.39-.46,16.43-8.08,17.08-9.35.8-12.29-4.64-13.72-14.05-.24-1.56.84-3.03,2.41-3.23Z"/>
        <line class="cls-9" x1="32.21" y1="48.28" x2="24.4" y2="51.93"/>
        <line class="cls-9" x1="82.32" y1="43.79" x2="89.09" y2="47.82"/>
        <line class="cls-10" x1="55.31" y1="51.65" x2="61.13" y2="51.22"/>
      </g>
      <path d="M35.7,43.85c3.04-6.33,13.37-6.95,17-.88.06.11-.05.25-.17.19-5.37-2.27-11.57-1.8-16.68.95-.16.07-.26-.11-.15-.26h0Z"/>
      <path class="cls-2" d="M36.91,54.84c.85-.73,3.13-2.48,6.57-2.91,3.77-.47,6.61.93,7.56,1.46"/>
      <path class="cls-2" d="M65.36,51.88c.85-.73,3.13-2.48,6.57-2.91,3.77-.47,6.61.93,7.56,1.46"/>
      <g>
        <path class="cls-3" d="M98.91,51.76c-11.01-12.01-26.98-20.95-39.52-20.46-14.18.52-26.6,13.34-34.67,22.82-.07.07-.15.16-.22.24-.08.1-.16.18-.24.27.17-.77.35-1.74.51-2.98.48-3.83.2-6.28-.16-12.35-.09-1.46-.18-2.77-.23-3.94,0-.07,0-.15-.02-.22-.24-4.13-.34-6.3-.24-6.8.03-.15.05-.28.05-.36.4-.46,1.62-2.31,4.82-8.19,3.83-7.05,8.54-6.82,11.84-8.67,2.81-1.56,8.18-4.57,14.22-5.49,14.45-2.17,28.62,8.32,33.56,18.71,3.3,6.92,3.75,13.98,3.75,13.98.02.42.04.82.07,1.21v.19c.01.6.02,1.17,0,1.68-.02.99-.07,1.83-.12,2.52,2.19,2.61,4.4,5.2,6.59,7.82Z"/>
        <path class="cls-14" d="M26.62,51.41c-.39-.24,4.66-12.78,14.95-19.39,11.62-7.46,24.63-5.69,26.77-5.37,16.2,2.44,25.35,20.59,25.08,20.93-.22.29-9.38-8.94-21.11-14.4-3.71-1.73-15.92-3.72-28.25,2.96-10.79,5.85-17.06,15.52-17.45,15.28Z"/>
        <g>
          <g>
            <polygon points="52.09 9.36 66.87 9 67.15 22.17 52.37 22.54 52.09 9.36"/>
            <path d="M66.33,9.57l.26,12.07-13.67.34-.26-12.07,13.67-.34M67.42,8.43l-15.9.4.3,14.29,15.9-.4-.3-14.29h0Z"/>
          </g>
          <text class="cls-15" transform="translate(52.51 22.49) rotate(-1.43) scale(1.11 1) skewX(-.19)"><tspan x="0" y="0">s</tspan></text>
          <path class="cls-1" d="M62.36,25.32c.24-.11.47-.21.71-.32.03-.01.04-.04.03-.07-.22-.37-.44-.74-.67-1.11l.91-.12c.06,0,.09-.08.04-.11-.86-.57-1.72-1.14-2.59-1.71-.04-.03-.1,0-.09.04.05.92.09,1.85.14,2.77,0,.04.06.06.1.03.22-.18.44-.37.66-.55.23.37.46.74.68,1.11.01.02.05.03.08.02Z"/>
        </g>
      </g>
      <path class="cls-16" d="M70.16,75.48c-.37,1.08-4.07,7.13-9.59,6.85-4.37-.22-8.66-5.28-9.38-6.71"/>
      <path class="cls-12" d="M48.56,75.15c-.05-.65.11-1.14.67-1.54.51-.36,1.35-.42,1.86-.45"/>
      <path class="cls-12" d="M71.49,74.16c-.51-.36-1.35-.42-1.86-.45"/>
      <rect class="cls-13" x="39.1" y="66.01" width="8.07" height="6.91" rx="3.46" ry="3.46"/>
      <rect class="cls-13" x="74.09" y="64.46" width="8.07" height="6.91" rx="3.46" ry="3.46"/>
    </g>
  </g>
</svg>