<?xml version="1.0" encoding="UTF-8"?>
<svg id="Layer_2" data-name="Layer 2" xmlns="http://www.w3.org/2000/svg" viewBox="0 0 281.19 281.19">
  <defs>
    <style>
      .cls-1 {
        fill-rule: evenodd;
      }

      .cls-2 {
        fill: none;
        stroke: #000;
        stroke-miterlimit: 10;
        stroke-width: 10.82px;
      }
    </style>
  </defs>
  <g id="Layer_1-2" data-name="Layer 1">
    <g>
      <path class="cls-1" d="M152.62,115.53c-.38-1.05-.25-4.83-.17-6.22h-28.99v98.4c2.44-.03,4.87-.04,7.31-.06,1.57-.02,6.04-.25,7.25.02,1.2.23,12.36.04,14.53.04.14-3.48-.17-7.57-.2-11.14-.09-11.4.17-22.85.19-34.26.03-12.89.69-27.67,17.56-28.3,3.58-.13,6.93.49,9.58,1.94,2.16,1.19,4.29,3.53,5.46,6.01,2.72,5.75,2.73,13.26,2.74,20.19.02,11.42.29,22.85.2,34.26-.03,3.54-.38,7.88-.2,11.29l30.21.12c.23-2.13.05-42.38.05-45.67v-16.97c0-1.92.18-3.94.08-5.82-.37-7.51-4.76-18.78-10.37-23.94-1.87-1.71-4.37-3.57-6.69-4.8-5.23-2.78-11.46-4.51-18.43-4.52-8.29,0-17.57,3.26-23.17,8.35-2.68,2.44-4.02,3.86-6.18,6.76l-.78.79v-6.47h0ZM72.97,207.87h30.45c-.28-4.29-.01-9.51,0-13.9.01-4.63.02-9.27.03-13.9,0-3.21-.24-26.93.17-27.8-.28-1.42-.06-18.52-.06-21.49,0-3.56,0-7.11.01-10.67,0-3.37.22-7.52-.02-10.79l-30.55-.09-.03,98.64h0ZM86.17,59.96c-5.42.76-9.57,3.28-11.98,6.25-2.56,3.17-4.75,8.35-4.05,13.87,1.16,9.24,9.38,17.35,20.11,16.04,9.12-1.11,17.19-9.54,15.84-20.18-1.14-8.99-9.43-17.46-19.92-15.98h0Z"/>
      <circle class="cls-2" cx="140.59" cy="140.59" r="135.18"/>
    </g>
  </g>
</svg>