<?xml version="1.0" encoding="UTF-8"?>
<svg id="Layer_2" data-name="Layer 2" xmlns="http://www.w3.org/2000/svg" viewBox="0 0 810 483.06">
  <defs>
    <style>
      .cls-1 {
        fill: #5c0000;
      }

      .cls-2 {
        fill: #ff1;
      }

      .cls-2, .cls-3, .cls-4, .cls-5, .cls-6, .cls-7, .cls-8, .cls-9, .cls-10, .cls-11, .cls-12, .cls-13, .cls-14, .cls-15, .cls-16 {
        stroke-miterlimit: 10;
      }

      .cls-2, .cls-4, .cls-5, .cls-7, .cls-8, .cls-9, .cls-10, .cls-11, .cls-16 {
        stroke: #231f20;
      }

      .cls-2, .cls-15 {
        stroke-width: 2.33px;
      }

      .cls-17 {
        fill: #ffffeb;
      }

      .cls-3 {
        fill: #d4fffe;
        stroke-width: 5.83px;
      }

      .cls-3, .cls-14 {
        stroke: #000;
      }

      .cls-18 {
        fill: #231f20;
      }

      .cls-19 {
        fill: #c00000;
      }

      .cls-20 {
        fill: #919090;
      }

      .cls-21 {
        fill: #fff9c2;
      }

      .cls-4 {
        fill: #42a6ad;
      }

      .cls-4, .cls-5, .cls-6, .cls-13 {
        stroke-width: 10.65px;
      }

      .cls-5 {
        fill: #42e6ad;
      }

      .cls-22 {
        fill: #3d3d3d;
      }

      .cls-23 {
        fill: #303030;
      }

      .cls-6 {
        stroke: #fff9c2;
      }

      .cls-6, .cls-8, .cls-14, .cls-15 {
        fill: none;
      }

      .cls-6, .cls-15 {
        stroke-linecap: round;
      }

      .cls-24 {
        fill: #3b72ad;
      }

      .cls-7 {
        fill: #168221;
      }

      .cls-7, .cls-8, .cls-9, .cls-10, .cls-11, .cls-12, .cls-14, .cls-16 {
        stroke-width: 9px;
      }

      .cls-25, .cls-12 {
        fill: #fff;
      }

      .cls-9 {
        fill: #f7f7f7;
      }

      .cls-26 {
        fill: #00f714;
      }

      .cls-27 {
        fill: #fff9d5;
      }

      .cls-28 {
        fill: #ff3100;
      }

      .cls-29 {
        fill: #f20000;
      }

      .cls-30 {
        fill: #2b2d2b;
      }

      .cls-31 {
        fill: #ff4d00;
      }

      .cls-32 {
        fill: #00cd14;
      }

      .cls-11 {
        fill: #00bf12;
      }

      .cls-12, .cls-15 {
        stroke: #fff;
      }

      .cls-13 {
        fill: #3b85b0;
        stroke: #020202;
      }

      .cls-33 {
        fill: #42c6ad;
      }

      .cls-34 {
        fill: #cecece;
        opacity: .49;
      }

      .cls-16 {
        fill: #00aa14;
      }
    </style>
  </defs>
  <g id="_00_-_R01" data-name="00 - R01">
    <g>
      <g>
        <g>
          <g>
            <g>
              <rect x="59.98" y="3.2" width="189.62" height="173.05" rx="41.85" ry="41.85" transform="translate(-5.27 9.77) rotate(-3.56)"/>
              <ellipse class="cls-30" cx="166.75" cy="166.04" rx="166.98" ry="88.68" transform="translate(-9.98 10.66) rotate(-3.56)"/>
            </g>
            <ellipse cx="168.78" cy="161.02" rx="143.09" ry="55.52" transform="translate(-9.66 10.78) rotate(-3.56)"/>
            <g>
              <circle class="cls-7" cx="66.73" cy="364.55" r="54.98" transform="translate(-22.48 4.84) rotate(-3.56)"/>
              <circle class="cls-7" cx="294.12" cy="350.42" r="54.98" transform="translate(-21.17 18.92) rotate(-3.56)"/>
            </g>
            <circle class="cls-16" cx="175.56" cy="279.17" r="133.44"/>
            <path class="cls-18" d="M295.35,338.99c-14.45,29.55-49.21,66.38-111.52,73.37-62.06,6.96-103.86-34.83-120.62-61.13"/>
            <polygon class="cls-23" points="190.37 399.93 217.4 346.03 238.51 344.19 190.37 399.93"/>
            <polyline class="cls-23" points="176.15 401.81 145.49 349.97 126.94 351.13"/>
            <g>
              <circle class="cls-11" cx="123.82" cy="396.81" r="35.22"/>
              <circle class="cls-11" cx="306.21" cy="375.89" r="35.22"/>
            </g>
            <g>
              <g>
                <circle class="cls-9" cx="99.54" cy="177.63" r="67.8"/>
                <circle class="cls-10" cx="100.76" cy="183.38" r="36.2"/>
                <circle class="cls-12" cx="121.46" cy="161.89" r="20.17"/>
              </g>
              <g>
                <circle class="cls-9" cx="238.41" cy="169" r="67.8"/>
                <circle class="cls-10" cx="239.63" cy="174.75" r="36.2"/>
                <circle class="cls-12" cx="260.33" cy="153.26" r="20.17"/>
              </g>
            </g>
            <g>
              <path class="cls-8" d="M142.92,316.15c.66,6.18,16.75,9.52,35.97,7.46"/>
              <path class="cls-8" d="M226.44,292.77c1.51,14.08-19.76,27.88-47.56,30.85"/>
            </g>
            <path class="cls-8" d="M250.77,290.28c-5.1-10.99-19.01-15.35-31.1-9.75"/>
            <polygon class="cls-25" points="183.09 400.38 149.7 346.87 209.59 343.14 183.09 400.38"/>
            <circle cx="180.84" cy="355.04" r="3.13"/>
            <circle cx="181.66" cy="368.28" r="3.13"/>
            <circle cx="182.54" cy="382.52" r="3.13"/>
            <path class="cls-32" d="M243.21,289.98c-.41,1.26-4.78.66-7.23-.15-2.46-.81-6.16-3.01-5.75-4.27.41-1.26,4.79-1.09,7.25-.28,2.46.81,6.15,3.45,5.73,4.7Z"/>
            <path class="cls-26" d="M336.46,366.06c-.93,2.82-10.83,1.45-16.41-.39-5.58-1.84-14-6.82-13.07-9.65.93-2.82,10.86-2.41,16.43-.58,5.58,1.84,13.97,7.79,13.04,10.61Z"/>
            <path class="cls-26" d="M143.58,386.72c-.93,2.82-10.83,1.45-16.41-.39s-14-6.82-13.07-9.65c.93-2.82,10.86-2.41,16.43-.58,5.58,1.84,13.97,7.79,13.04,10.61Z"/>
          </g>
          <g>
            <circle class="cls-34" cx="230.81" cy="216.64" r="20.86"/>
            <circle class="cls-14" cx="230.61" cy="217.11" r="21.09"/>
          </g>
        </g>
        <rect class="cls-20" x="165.9" y="14.13" width="47.22" height="11.88" rx="5.94" ry="5.94" transform="translate(-.88 11.79) rotate(-3.56)"/>
      </g>
      <g>
        <path class="cls-3" d="M494.12,12.09h166.16c61.97,0,112.29,50.32,112.29,112.29v256.98h-390.74V124.38c0-61.97,50.32-112.29,112.29-112.29Z" transform="translate(10.98 -29.67) rotate(2.97)"/>
        <path class="cls-31" d="M774.53,340.04l-7.23,9.92c-.25.35-.4.76-.42,1.19l-.96,21.59c-.05,1.14.79,2.13,1.92,2.26l5.61.67c1.06.13,2.05-.53,2.35-1.55l6.21-21.16c.12-.42.12-.88-.02-1.3l-3.63-11.02c-.56-1.69-2.78-2.04-3.83-.6Z"/>
        <path class="cls-28" d="M787.92,354.32l-8.35,2c-.48.11-.89.41-1.15.82l-9.46,14.98c-.41.65-.38,1.49.07,2.11l3.5,4.78c.65.89,1.91,1.03,2.74.31l11.91-10.34c.31-.27.52-.63.6-1.03l2.41-11.42c.28-1.35-.93-2.53-2.27-2.21Z"/>
        <path class="cls-28" d="M760.63,349.86l-3.53,11.2c-.14.44-.12.93.06,1.36l6.32,15.32c.42,1.01,1.57,1.49,2.58,1.08l6.01-2.44c.81-.33,1.3-1.14,1.23-2.01l-1.48-17.84c-.04-.52-.29-1.01-.69-1.35l-7.32-6.23c-1.08-.92-2.75-.44-3.18.92Z"/>
        <path class="cls-29" d="M801.2,364.55l-10.64-.55c-.41-.02-.81.08-1.16.3l-16.76,10.51c-.83.52-1.16,1.58-.77,2.48l2.08,4.81c.41.94,1.47,1.42,2.44,1.1l18.58-6.03c.38-.12.72-.36.96-.68l6.74-8.74c.98-1.27.13-3.12-1.47-3.21Z"/>
        <path class="cls-29" d="M743.52,356.61l4.56,11.2c.14.34.37.64.67.86l15.62,11.46c.92.68,2.23.44,2.85-.52l2.78-4.3c.48-.74.41-1.7-.15-2.37l-13.49-15.95c-.27-.32-.63-.54-1.03-.64l-9.47-2.41c-1.58-.4-2.95,1.17-2.34,2.68Z"/>
        <path class="cls-19" d="M732.87,367.46l8.98,9.55c.28.29.62.51,1.01.61l21.51,6.12c1.19.34,2.43-.36,2.75-1.56l1.4-5.23c.26-.99-.18-2.03-1.07-2.52l-20.65-11.36c-.38-.21-.82-.3-1.25-.27l-11.24.92c-1.85.15-2.71,2.38-1.44,3.74Z"/>
        <path class="cls-19" d="M808.75,380.34l-11.26-5.45c-.38-.18-.8-.25-1.22-.21l-22.3,2.53c-1.16.13-2.02,1.14-1.97,2.31l.26,5.49c.05,1.08.88,1.97,1.96,2.1l22.75,2.7c.43.05.87-.02,1.26-.22l10.55-5.27c1.65-.82,1.63-3.18-.03-3.99Z"/>
        <path class="cls-1" d="M774.22,430.02l-34.33-8.93c-7.26-1.89-11.71-9.72-9.88-17.41l4.17-17.51c1.83-7.68,9.27-12.43,16.53-10.54l34.33,8.93c7.26,1.89,11.71,9.72,9.88,17.41l-4.17,17.51c-1.83,7.68-9.27,12.43-16.53,10.54Z"/>
        <g>
          <rect class="cls-5" x="385.88" y="104.87" width="94.16" height="107.73" rx="13.74" ry="13.74" transform="translate(8.82 -22.24) rotate(2.97)"/>
          <rect class="cls-5" x="677.52" y="120.01" width="94.16" height="107.73" rx="13.95" ry="13.95" transform="translate(9.99 -37.35) rotate(2.97)"/>
        </g>
        <rect class="cls-13" x="480.24" y="206.42" width="180.83" height="191.14" rx="42.53" ry="42.53" transform="translate(16.43 -29.19) rotate(2.97)"/>
        <rect class="cls-4" x="423.34" y="17.97" width="307.28" height="324.8" rx="53.1" ry="53.1" transform="translate(10.13 -29.68) rotate(2.97)"/>
        <rect class="cls-33" x="462.87" y="53.65" width="228.2" height="253.44" rx="30.89" ry="30.89" transform="translate(10.13 -29.68) rotate(2.97)"/>
        <path class="cls-22" d="M498.37,58.87h155.24c13.36,0,24.21,10.85,24.21,24.21v184.55c0,13.36-10.85,24.21-24.21,24.21h-155.24c-13.36,0-24.21-10.85-24.21-24.21V83.07c0-13.36,10.85-24.21,24.21-24.21Z" transform="translate(9.87 -29.64) rotate(2.97)"/>
        <ellipse class="cls-24" cx="629.68" cy="325.88" rx="7.07" ry="6.69" transform="translate(271.58 937.81) rotate(-87.03)"/>
        <ellipse class="cls-24" cx="653.2" cy="327.1" rx="7.07" ry="6.69" transform="translate(292.66 962.45) rotate(-87.03)"/>
        <ellipse class="cls-24" cx="676.71" cy="328.32" rx="7.07" ry="6.69" transform="translate(313.73 987.09) rotate(-87.03)"/>
        <path class="cls-4" d="M381.83,406.66l-51.4,16.51c-5.46,1.75-11.26-1.52-12.89-7.29l-15.33-54.23c-1.63-5.76,1.51-11.91,6.97-13.67l51.4-16.51c5.46-1.75,11.26,1.52,12.89,7.29l15.33,54.23c1.63,5.76-1.51,11.91-6.97,13.67Z"/>
        <path class="cls-4" d="M772.32,477.42l-52.02-13.54c-5.53-1.44-8.91-7.4-7.52-13.25l13.11-55.04c1.39-5.85,7.06-9.46,12.58-8.02l52.02,13.54c5.53,1.44,8.91,7.4,7.52,13.25l-13.11,55.04c-1.39,5.85-7.06,9.46-12.58,8.02Z"/>
        <rect class="cls-21" x="526.79" y="80.63" width="31.61" height="90.29" rx="14.46" ry="14.46" transform="translate(7.25 -27.97) rotate(2.97)"/>
        <rect class="cls-21" x="603.16" y="84.6" width="31.61" height="90.29" rx="14.46" ry="14.46" transform="translate(7.56 -31.93) rotate(2.97)"/>
        <path class="cls-6" d="M542.54,223.41c13.59,20.15,43.25,22.34,66.3,4.9"/>
        <rect class="cls-27" x="400.11" y="115.12" width="10.21" height="18.35" rx="4.52" ry="4.52" transform="translate(6.99 -20.85) rotate(2.97)"/>
        <rect class="cls-27" x="752.23" y="133.41" width="10.21" height="18.35" rx="4.52" ry="4.52" transform="translate(8.41 -39.09) rotate(2.97)"/>
        <path class="cls-27" d="M353.17,345.45l1.58-.58c2.82-1.04,5.92.54,6.89,3.52l3.47,10.65c.97,2.98-.55,6.26-3.37,7.31l-1.58.58c-2.82,1.04-5.92-.54-6.89-3.52l-3.47-10.65c-.97-2.98.55-6.26,3.37-7.31Z"/>
        <path class="cls-27" d="M744.43,399.19l1.74.45c3,.78,4.84,4.02,4.08,7.2l-2.68,11.23c-.76,3.18-3.83,5.14-6.83,4.36l-1.74-.45c-3-.78-4.84-4.02-4.08-7.2l2.68-11.23c.76-3.18,3.83-5.14,6.83-4.36Z"/>
        <rect class="cls-27" x="657.91" y="14.57" width="15.38" height="54.03" rx="7.17" ry="7.17" transform="translate(589.55 704.14) rotate(-87.03)"/>
        <path class="cls-1" d="M770.15,389.88l-.77-.08c-4.3-.44-7.53-4.34-7.16-8.68l.19-2.21c.37-4.34,4.19-7.53,8.49-7.09l.77.08c4.3.44,7.53,4.34,7.16,8.68l-.19,2.21c-.37,4.34-4.19,7.53-8.49,7.09Z"/>
        <g>
          <path class="cls-2" d="M398.89,133.57l1.57-15.12c.07-.64.36-1.23.82-1.68l15.67-14.96c1.07-1.02,2.76-1,3.79.05l5.94,6.01c.84.85,1.02,2.14.45,3.19l-11.12,20.5c-.34.63-.92,1.1-1.61,1.3l-12.06,3.57c-1.85.55-3.66-.96-3.46-2.88Z"/>
          <path class="cls-2" d="M390.25,97.17l12.78-6.27c.57-.28,1.22-.34,1.83-.19l21.16,5.48c1.34.35,2.19,1.66,1.95,3.02l-1.4,7.91c-.21,1.22-1.24,2.12-2.47,2.19l-22.68,1.17c-.67.03-1.33-.19-1.84-.62l-9.87-8.29c-1.47-1.23-1.18-3.56.54-4.41Z"/>
          <path class="cls-2" d="M428.5,141.76l-8.11-11.75c-.33-.48-.49-1.05-.47-1.62l1.03-23.28c.06-1.39,1.19-2.5,2.59-2.53l7.3-.16c1.25-.03,2.35.83,2.64,2.05l5.49,23.48c.14.59.07,1.22-.2,1.76l-5.7,11.7c-.89,1.82-3.41,2.01-4.56.35Z"/>
          <path class="cls-2" d="M459.1,123.06l-14.17,1.42c-.69.07-1.39-.13-1.94-.56l-16.99-13.27c-1.08-.84-1.36-2.36-.65-3.53l4.52-7.51c.66-1.1,2-1.58,3.21-1.16l20.85,7.25c.68.24,1.24.74,1.55,1.39l5.79,12.11c.81,1.69-.3,3.67-2.17,3.86Z"/>
          <path class="cls-2" d="M455.72,81.33l-4.48,14.17c-.18.56-.54,1.05-1.03,1.38l-18.3,12.57c-1.2.82-2.84.53-3.67-.67l-4.42-6.32c-.68-.97-.63-2.27.11-3.18l14.96-18.48c.41-.51,1-.85,1.65-.95l12.24-1.93c1.94-.31,3.53,1.54,2.94,3.42Z"/>
          <path class="cls-2" d="M423.37,66.94l9.18,11.27c.41.5.62,1.12.61,1.76l-.45,22.51c-.03,1.41-1.13,2.56-2.54,2.65l-8.13.49c-1.26.08-2.41-.73-2.76-1.95l-6.49-22.43c-.19-.65-.13-1.35.18-1.96l5.88-11.84c.88-1.76,3.28-2.03,4.52-.5Z"/>
          <ellipse cx="427.31" cy="105.93" rx="8.11" ry="7.9" transform="translate(299.36 527.16) rotate(-87.03)"/>
          <path class="cls-17" d="M428.46,80.76h0c-.55.59-1.31.63-1.67.09l-4.49-6.69c-.36-.54-.2-1.46.35-2.05h0c.55-.59,1.31-.63,1.67-.09l4.49,6.69c.36.54.2,1.46-.35,2.05Z"/>
          <path class="cls-15" d="M431.93,103.47c-.73-2.13-2.53-3.38-4.04-2.8"/>
          <path class="cls-17" d="M451.57,83.06h0c.77.14,1.23.76,1.02,1.39l-2.59,7.78c-.21.63-1.01,1.03-1.78.89h0c-.77-.14-1.23-.76-1.02-1.39l2.59-7.78c.21-.63,1.01-1.03,1.78-.89Z"/>
        </g>
        <path class="cls-17" d="M778.63,348.09h0c-.45.15-.92-.15-1.04-.65l-.82-3.34c-.12-.5.14-1.03.59-1.18h0c.45-.15.92.15,1.04.65l.82,3.34c.12.5-.14,1.03-.59,1.18Z"/>
        <path class="cls-17" d="M787.69,359.94l-.3-.11c-.33-.12-.5-.51-.4-.88l.59-2.02c.11-.37.46-.57.79-.46l.3.11c.33.12.5.51.4.88l-.59,2.02c-.11.37-.46.57-.79.46Z"/>
      </g>
    </g>
  </g>
</svg>