<?xml version="1.0" encoding="UTF-8"?>
<svg id="Layer_2" data-name="Layer 2" xmlns="http://www.w3.org/2000/svg" viewBox="0 0 591.29 339.65">
  <defs>
    <style>
      .cls-1 {
        stroke-width: 11.33px;
      }

      .cls-1, .cls-2, .cls-3, .cls-4, .cls-5, .cls-6, .cls-7, .cls-8, .cls-9, .cls-10, .cls-11, .cls-12, .cls-13, .cls-14, .cls-15 {
        stroke-miterlimit: 10;
      }

      .cls-1, .cls-2, .cls-3, .cls-4, .cls-6, .cls-7, .cls-8, .cls-9, .cls-10, .cls-15 {
        stroke: #231f20;
      }

      .cls-1, .cls-2, .cls-4 {
        fill: #42a6ad;
      }

      .cls-16 {
        fill: #fff9c2;
      }

      .cls-2 {
        stroke-width: 10.65px;
      }

      .cls-3 {
        fill: #42e6ad;
      }

      .cls-3, .cls-4, .cls-12 {
        stroke-width: 7.2px;
      }

      .cls-17 {
        fill: #20ba2f;
      }

      .cls-18 {
        fill: #3d3d3d;
      }

      .cls-5 {
        stroke: #fff9c2;
        stroke-width: 5.74px;
      }

      .cls-5, .cls-13, .cls-14 {
        fill: none;
        stroke-linecap: round;
      }

      .cls-19 {
        fill: #3b72ad;
      }

      .cls-6 {
        fill: #1c0026;
      }

      .cls-6, .cls-7, .cls-8, .cls-9, .cls-10, .cls-11, .cls-14, .cls-15 {
        stroke-width: 9px;
      }

      .cls-7 {
        fill: #168221;
      }

      .cls-20, .cls-11 {
        fill: #fff;
      }

      .cls-8 {
        fill: #f7f7f7;
      }

      .cls-21 {
        fill: #00f714;
      }

      .cls-22 {
        fill: #fff9d5;
      }

      .cls-10 {
        fill: #00bf12;
      }

      .cls-11 {
        stroke: #fff;
      }

      .cls-12 {
        fill: #3b85b0;
        stroke: #020202;
      }

      .cls-23 {
        fill: #42c6ad;
      }

      .cls-13 {
        stroke-width: 18px;
      }

      .cls-13, .cls-14 {
        stroke: #000;
      }

      .cls-15 {
        fill: #00aa14;
      }
    </style>
  </defs>
  <g id="_00_-_R05" data-name="00 - R05">
    <g>
      <g>
        <rect class="cls-3" x="319.24" y="80.07" width="65.45" height="70.84" rx="9.29" ry="9.29"/>
        <rect class="cls-3" x="522.24" y="80.07" width="65.45" height="70.84" rx="9.43" ry="9.43"/>
      </g>
      <rect class="cls-12" x="391.48" y="177.17" width="125.7" height="125.7" rx="28.76" ry="28.76"/>
      <rect class="cls-4" x="347.53" y="53.14" width="213.59" height="213.59" rx="35.9" ry="35.9"/>
      <rect class="cls-23" x="375.01" y="76.6" width="158.63" height="166.66" rx="20.88" ry="20.88"/>
      <rect class="cls-18" x="383.55" y="80.07" width="141.56" height="153.2" rx="16.37" ry="16.37"/>
      <circle class="cls-19" cx="496.16" cy="253.69" r="4.65"/>
      <circle class="cls-19" cx="512.53" cy="253.69" r="4.65"/>
      <circle class="cls-19" cx="528.89" cy="253.69" r="4.65"/>
      <rect class="cls-2" x="294.87" y="240.95" width="76.41" height="76.41" rx="10.65" ry="10.65" transform="translate(-74.74 128.96) rotate(-19.75)"/>
      <rect class="cls-16" x="417.51" y="109.33" width="21.97" height="45.61" rx="8.57" ry="8.57"/>
      <rect class="cls-16" x="470.66" y="105.35" width="21.97" height="49.59" rx="8.94" ry="8.94"/>
      <path class="cls-5" d="M426.1,182c13.41,16.84,30.25,25.71,37.64,19.82"/>
      <rect class="cls-22" x="329.52" y="122.93" width="7.1" height="12.07" rx="3.06" ry="3.06"/>
      <rect class="cls-1" x="460.14" y="199.35" width="81.34" height="81.34" rx="11.33" ry="11.33" transform="translate(55.02 -91.17) rotate(11)"/>
      <rect class="cls-22" x="574.62" y="122.93" width="7.1" height="12.07" rx="3.06" ry="3.06"/>
      <rect class="cls-22" x="343.45" y="245.74" width="10.36" height="21.61" rx="5.18" ry="5.18" transform="translate(768.18 363.06) rotate(157.9)"/>
      <ellipse class="cls-18" cx="426.1" cy="105.35" rx="22.03" ry="13.59" transform="translate(-12.83 103.47) rotate(-13.64)"/>
      <ellipse class="cls-18" cx="489.93" cy="108.18" rx="13.59" ry="22.03" transform="translate(220.75 531.59) rotate(-70.01)"/>
      <rect class="cls-22" x="478.44" y="206.16" width="14.28" height="24.28" rx="6.16" ry="6.16" transform="translate(920.57 525.26) rotate(-169)"/>
    </g>
    <g>
      <g>
        <g>
          <circle class="cls-7" cx="62.54" cy="284.59" r="45.97"/>
          <circle class="cls-7" cx="253.03" cy="284.59" r="45.97"/>
        </g>
        <circle class="cls-15" cx="157.79" cy="218.99" r="111.57"/>
        <g>
          <path class="cls-6" d="M46.76,241.89c5.19-5.7,46.66,46.48,111.46,46.12,64.33-.35,104.71-52.22,110.45-46.12,6.72,7.14-36.5,91.17-106.84,93.22-73.32,2.15-121.32-86.37-115.07-93.22Z"/>
          <path class="cls-20" d="M99.62,271.77c-8.56-4.29,22.03,30.54,51.33,42.71,24.65,10.24,61.77-35.33,67.41-44.15,2.26-3.53-22.25,13.3-57.33,14.48-36.15,1.22-56.73-10.7-61.42-13.04Z"/>
          <circle class="cls-10" cx="37.65" cy="173.61" r="29.45"/>
          <circle class="cls-10" cx="286.98" cy="170.2" r="29.45"/>
        </g>
        <g>
          <g>
            <circle class="cls-8" cx="99.62" cy="130.31" r="56.69"/>
            <circle class="cls-9" cx="100.33" cy="135.17" r="30.27"/>
            <circle class="cls-11" cx="118.72" cy="118.31" r="16.86"/>
          </g>
          <g>
            <circle class="cls-8" cx="215.96" cy="130.31" r="56.69"/>
            <circle class="cls-9" cx="216.67" cy="135.17" r="30.27"/>
            <circle class="cls-11" cx="235.06" cy="118.31" r="16.86"/>
          </g>
        </g>
        <path class="cls-20" d="M132.15,246.91c-.87-14.53,10.21-27.01,24.74-27.87,13.83-.82,25.82,9.18,27.66,22.69-7.92-1.1-16.04-1.26-20.98-1.09-7.44.24-19.37,1.64-31.26,7.97-.08-.56-.13-1.12-.17-1.7Z"/>
        <path class="cls-13" d="M57.14,42.52c.71-.83,14.73-16.52,40.29-16,23.97.48,36.74,14.8,37.77,16"/>
        <path class="cls-13" d="M181.45,42.52c.71-.83,14.73-16.52,40.29-16,23.97.48,36.74,14.8,37.77,16"/>
        <line class="cls-14" x1="4.5" y1="36.42" x2="31.96" y2="39.03"/>
        <line class="cls-14" x1="14.19" y1="11.93" x2="34.92" y2="25.98"/>
        <line class="cls-14" x1="283.74" y1="21" x2="306.47" y2="4.5"/>
        <line class="cls-14" x1="286.85" y1="35.12" x2="314.03" y2="35.12"/>
      </g>
      <path class="cls-21" d="M306.82,161.86c-1.17,2.94-10.37,1.31-15.44-.71s-12.49-7.4-11.32-10.34c1.17-2.94,10.5-2.33,15.57-.3,5.07,2.03,12.37,8.42,11.19,11.35Z"/>
      <path class="cls-17" d="M63.95,320.47c-1.17,2.94-8.31,2.14-12.14.61-3.83-1.53-9.25-6.11-8.07-9.04,1.17-2.94,8.49-3.13,12.32-1.6,3.83,1.53,9.06,7.1,7.89,10.03Z"/>
      <path class="cls-21" d="M16.69,168.6c1.17,2.94,10.37,1.31,15.44-.71,5.07-2.03,12.49-7.4,11.32-10.34-1.17-2.94-10.5-2.33-15.57-.3-5.07,2.03-12.37,8.42-11.19,11.35Z"/>
      <path class="cls-17" d="M248.98,320.47c1.17,2.94,8.31,2.14,12.14.61,3.83-1.53,9.25-6.11,8.07-9.04-1.17-2.94-8.49-3.13-12.32-1.6-3.83,1.53-9.06,7.1-7.89,10.03Z"/>
    </g>
  </g>
</svg>